<?xml version="1.0" encoding="UTF-8" standalone="no"?>
<!-- Created with Inkscape (http://www.inkscape.org/) -->

<svg
   xmlns:dc="http://purl.org/dc/elements/1.1/"
   xmlns:cc="http://creativecommons.org/ns#"
   xmlns:rdf="http://www.w3.org/1999/02/22-rdf-syntax-ns#"
   xmlns:svg="http://www.w3.org/2000/svg"
   xmlns="http://www.w3.org/2000/svg"
   xmlns:sodipodi="http://sodipodi.sourceforge.net/DTD/sodipodi-0.dtd"
   xmlns:inkscape="http://www.inkscape.org/namespaces/inkscape"
   id="svg2"
   style="enable-background:new"
   sodipodi:docname="Bird.svg"
   viewBox="0 0 568.144 550.63332"
   version="1.1"
   inkscape:version="0.92.4 (5da689c313, 2019-01-14)"
   width="568.14398"
   height="550.6333">
  <defs
     id="defs4" />
  <sodipodi:namedview
     id="base"
     inkscape:zoom="0.53309714"
     borderopacity="1.0"
     inkscape:snap-intersection-paths="true"
     inkscape:cx="304.18704"
     inkscape:cy="81.682181"
     inkscape:object-paths="true"
     inkscape:window-maximized="1"
     showgrid="false"
     inkscape:snap-nodes="true"
     units="cm"
     inkscape:snap-midpoints="true"
     inkscape:snap-global="true"
     inkscape:document-units="px"
     bordercolor="#666666"
     inkscape:window-x="1912"
     inkscape:window-y="-8"
     inkscape:snap-smooth-nodes="true"
     inkscape:object-nodes="true"
     inkscape:window-width="1920"
     inkscape:pageopacity="0.0"
     inkscape:pageshadow="2"
     pagecolor="#ffffff"
     inkscape:current-layer="layer2"
     inkscape:window-height="1017"
     fit-margin-top="0"
     fit-margin-left="0"
     fit-margin-right="0"
     fit-margin-bottom="0"
     showguides="false" />
  <g
     id="layer2"
     inkscape:label="Colibri"
     inkscape:groupmode="layer"
     transform="translate(-23.392,-8.7729)"
     style="display:inline">
    <path
       style="display:inline;fill:none;fill-opacity:1;stroke:#000000;stroke-width:3.51656294;stroke-miterlimit:4;stroke-dasharray:none;stroke-opacity:1;enable-background:new"
       d="m 455.78477,156.96792 c -11.55597,13.27958 4.93728,23.29204 15.79562,29.37384 27.3284,20.42931 52.16015,44.01349 75.62972,68.72588 -27.84956,-35.00717 -58.92177,-67.41832 -91.42534,-98.09972 z m -43.86366,-11.3989 c -21.76481,19.78761 -8.83031,-27.87969 0,0 z M 321.75833,307.1129 c 35.87217,-30.24952 64.80979,-67.94729 86.08278,-109.69259 -3.3063,-12.09735 -42.75822,2.95503 -47.96913,20.38639 -15.73066,28.42851 -19.55735,62.17121 -38.11365,89.3062 z m 68.21672,-195.28891 c -32.76935,1.08014 -55.26203,29.62701 -71.35227,55.04721 21.08013,-29.20813 55.95615,-58.12144 94.31252,-47.01594 28.19434,12.16247 -5.67343,-8.69451 -17.78489,-7.79182 z M 23.263844,49.992797 C 34.204352,77.93418 65.976578,89.10164 90.524113,102.30061 130.14799,120.51094 171.56265,134.47898 213.23792,147.14501 152.67037,133.1834 90.480744,118.84055 37.272388,85.165864 51.811352,108.45152 81.410185,114.9737 105.56524,124.21187 c 34.28327,10.88305 69.4268,18.88403 104.77649,25.42033 -54.39732,-8.07416 -107.99263,-21.54824 -159.90002,-39.68467 18.937212,18.29491 47.620574,20.66245 72.09743,27.58973 28.21098,6.19721 56.69435,11.12674 85.29234,15.15524 -48.80252,-6.84624 -97.58271,-14.03995 -146.01878,-23.16088 24.208539,18.36502 57.01585,18.63132 85.91599,23.78416 13.0526,2.10961 61.47017,5.26185 53.49512,4.72774 -36.78546,-0.76834 -73.52425,-3.7463 -110.324247,-3.50738 34.073127,15.31038 73.135307,9.95873 109.374997,7.92999 -3.09003,1.13748 -39.86529,6.44862 -55.57567,8.18306 -12.72583,1.10803 -48.302773,1.82053 -18.77419,12.04736 26.41076,3.55993 52.9622,-2.72324 78.66171,-8.30889 -25.46199,6.76873 -50.97928,13.62251 -75.64706,22.95214 19.71957,13.59565 45.64594,-1.77743 66.21788,-7.71457 30.02612,-12.72207 -15.31141,7.41447 -23.67987,14.11445 -13.15322,6.03772 -23.30548,20.55838 -1.78944,10.84649 12.74521,-4.30001 35.57983,-18.06449 41.19934,-21.38618 -11.21171,8.69868 -44.13535,28.22823 -36.22197,36.52809 13.73034,-2.41136 44.13126,-31.11363 40.69728,-27.15947 -9.20885,8.87352 -33.78278,32.26437 -26.27292,36.11946 10.92117,-5.56366 37.24017,-30.98706 33.29354,-26.55232 -12.1828,7.74303 -35.89163,48.08898 -8.83551,25.9741 9.25447,-7.20177 31.99836,-32.12449 13.16795,-10.97985 -10.06555,8.83548 -22.1984,34.85199 -1.04993,15.61957 8.57505,-6.6262 23.74646,-23.89857 9.12879,-5.54234 -6.5515,8.08982 -16.54524,28.28313 -0.0814,13.24011 10.05393,-7.56894 27.61234,-28.34043 10.82992,-6.85141 -12.37197,14.43071 -6.09381,19.96377 6.88886,5.2475 8.63262,-7.73554 18.73687,-22.14861 6.70123,-4.06758 -16.16101,20.38867 1.22374,19.18449 11.68375,3.19545 19.89987,-19.6299 -29.66046,-11.60371 -37.20098,-30.07421 -16.89686,-14.98421 -45.47418,-52.92136 -18.05939,-69.04143 18.82192,1.47749 13.16044,1.09824 -1.28474,-5.47056 C 149.15474,115.49409 81.738046,90.771898 23.263844,49.992797 Z M 389.97505,111.82399 c -32.77097,1.07829 -55.26381,29.62779 -71.35227,55.05003 -14.8174,15.72306 -28.91139,18.05581 -46.03654,3.39067 -18.20014,-5.34142 -56.39085,-38.51408 -64.79819,-11.0554 13.32025,30.86588 45.03329,53.01186 77.53763,59.50842 39.30941,5.23576 -1.337,49.55418 -5.92489,70.53535 -13.41832,21.64594 -3.47332,68.87029 22.04435,34.75846 43.44072,-33.50629 80.80951,-75.30966 105.26221,-124.68466 3.51725,-24.30574 42.29991,-21.34066 46.45383,-27.8638 2.78831,-13.70615 -0.59806,-27.01979 -15.70314,-37.14807 -12.67449,-12.41364 -29.19539,-22.64602 -47.48299,-22.491 z m 12.05251,20.29844 c 28.75579,5.85967 -10.87513,37.31537 -9.53309,7.62845 1.08484,-4.25874 5.11997,-7.54924 9.53309,-7.62845 z M 184.97391,42.543184 c 0.7857,35.974273 29.81565,62.541726 53.24107,86.609446 19.53154,18.51686 40.46856,35.54062 62.37344,51.16853 -42.0507,-28.67946 -85.33025,-58.93199 -114.43111,-101.539044 5.38573,27.584844 31.79148,44.148294 52.08651,60.966224 19.92411,14.78391 40.83923,28.21271 62.3446,40.57282 -39.43664,-21.60291 -77.81887,-45.76671 -111.61041,-75.58731 14.38437,27.41152 45.88791,40.66914 70.4465,57.7263 12.56504,8.06086 54.42445,29.87571 21.03543,12.12734 -30.13943,-16.9585 -60.43072,-33.84674 -88.9206,-53.49973 10.1454,27.4688 45.25783,27.22817 66.61648,42.41465 11.78657,2.32184 37.92324,25.95666 40.38491,14.34104 C 261.26218,132.15575 207.94728,98.893586 184.97391,42.543184 Z m 89.89498,173.905066 c 11.1878,3.28738 21.34987,3.49862 3.97587,1.05515 z m 15.8795,2.7556 c -8.2822,14.39825 -29.49742,39.04276 -38.64479,40.12623 3.3631,-12.24202 22.6529,-35.54392 4.40164,-14.42497 -16.93019,14.50835 -18.14897,39.52756 -24.68394,59.79558 -17.91418,83.5911 -17.79755,169.63756 -17.9235,254.74137 5.08977,-59.55162 6.64359,-120.63546 25.89127,-177.71846 0.83166,-23.5961 40.84008,-30.5051 37.9542,-47.44648 -13.24941,-31.01019 10.33578,-60.60793 21.52303,-88.3351 5.2477,-9.77733 7.64036,-26.87044 -8.51791,-26.73817 z"
       id="path4166"
       inkscape:connector-curvature="0" />
  </g>
  <metadata
     id="metadata160">
    <rdf:RDF>
      <cc:Work>
        <dc:format>image/svg+xml</dc:format>
        <dc:type
           rdf:resource="http://purl.org/dc/dcmitype/StillImage" />
        <cc:license
           rdf:resource="http://creativecommons.org/publicdomain/zero/1.0/" />
        <dc:publisher>
          <cc:Agent
             rdf:about="http://openclipart.org/">
            <dc:title>Openclipart</dc:title>
          </cc:Agent>
        </dc:publisher>
        <dc:title />
        <dc:date>2010-07-17T12:13:46</dc:date>
        <dc:description />
        <dc:source>https://openclipart.org/detail/73573/colibri-birds-by-pixelflake</dc:source>
        <dc:creator>
          <cc:Agent>
            <dc:title>pixelflake</dc:title>
          </cc:Agent>
        </dc:creator>
        <dc:subject>
          <rdf:Bag>
            <rdf:li>Bird</rdf:li>
            <rdf:li>Birdie</rdf:li>
            <rdf:li>Birds</rdf:li>
            <rdf:li>Colibri</rdf:li>
            <rdf:li>Kolibri</rdf:li>
            <rdf:li>Vogel</rdf:li>
            <rdf:li>Vögel</rdf:li>
          </rdf:Bag>
        </dc:subject>
      </cc:Work>
      <cc:License
         rdf:about="http://creativecommons.org/publicdomain/zero/1.0/">
        <cc:permits
           rdf:resource="http://creativecommons.org/ns#Reproduction" />
        <cc:permits
           rdf:resource="http://creativecommons.org/ns#Distribution" />
        <cc:permits
           rdf:resource="http://creativecommons.org/ns#DerivativeWorks" />
      </cc:License>
    </rdf:RDF>
  </metadata>
</svg>
