<?xml version="1.0" encoding="UTF-8" standalone="no"?>
<svg
   xmlns:dc="http://purl.org/dc/elements/1.1/"
   xmlns:cc="http://creativecommons.org/ns#"
   xmlns:rdf="http://www.w3.org/1999/02/22-rdf-syntax-ns#"
   xmlns:svg="http://www.w3.org/2000/svg"
   xmlns="http://www.w3.org/2000/svg"
   xmlns:sodipodi="http://sodipodi.sourceforge.net/DTD/sodipodi-0.dtd"
   xmlns:inkscape="http://www.inkscape.org/namespaces/inkscape"
   viewBox="0 0 626.68 396.12"
   version="1.1"
   id="svg5475"
   sodipodi:docname="camera.svg"
   inkscape:version="0.92.4 (5da689c313, 2019-01-14)">
  <metadata
     id="metadata5479">
    <rdf:RDF>
      <cc:Work
         rdf:about="">
        <dc:format>image/svg+xml</dc:format>
        <dc:type
           rdf:resource="http://purl.org/dc/dcmitype/StillImage" />
      </cc:Work>
    </rdf:RDF>
  </metadata>
  <sodipodi:namedview
     pagecolor="#ffffff"
     bordercolor="#666666"
     borderopacity="1"
     objecttolerance="10"
     gridtolerance="10"
     guidetolerance="10"
     inkscape:pageopacity="0"
     inkscape:pageshadow="2"
     inkscape:window-width="1920"
     inkscape:window-height="1017"
     id="namedview5477"
     showgrid="false"
     inkscape:zoom="1.5525929"
     inkscape:cx="379.59994"
     inkscape:cy="188.08335"
     inkscape:window-x="1912"
     inkscape:window-y="-8"
     inkscape:window-maximized="1"
     inkscape:current-layer="svg5475"
     showguides="true"
     inkscape:guide-bbox="true">
    <sodipodi:guide
       position="190.64881,420.58674"
       orientation="0,1"
       id="guide6062"
       inkscape:locked="false" />
  </sodipodi:namedview>
  <defs
     id="defs5393">
    <style
       id="style5391">.cls-1,.cls-3,.cls-5,.cls-7{fill:none;}.cls-1,.cls-3,.cls-7{stroke:#231f20;stroke-miterlimit:10;}.cls-2{writing-mode:tb;text-orientation:upright;glyph-orientation-vertical:0deg;}.cls-3{opacity:0.1;}.cls-4{fill:#fff;}.cls-6{fill:#bcbec0;}.cls-7{opacity:0.6;}</style>
  </defs>
  <title
     id="title5395">camera</title>
  <g
     id="body"
     transform="matrix(0.76424768,0,0,0.76424768,6.2612504,33.48428)" />
  <g
     id="lens"
     transform="matrix(0.76424768,0,0,0.76424768,6.2612504,33.48428)">
    <g
       style="writing-mode:tb-rl;text-orientation:upright"
       id="text5414" />
  </g>
  <g
     id="Layer_6"
     data-name="Layer 6"
     transform="matrix(0.76424768,0,0,0.76424768,6.2612504,33.48428)" />
  <g
     id="rubber_texture"
     data-name="rubber texture"
     transform="matrix(0.76424768,0,0,0.76424768,6.2612504,33.48428)" />
  <g
     id="shutter_bottom_around"
     data-name="shutter bottom around"
     transform="matrix(0.76424768,0,0,0.76424768,6.2612504,33.48428)" />
  <g
     id="buttons"
     transform="matrix(0.76424768,0,0,0.76424768,6.2612504,33.48428)" />
  <g
     id="rubber_texture_other_side"
     data-name="rubber texture other side"
     transform="matrix(0.76424768,0,0,0.76424768,6.2612504,33.48428)" />
  <g
     id="Layer_10"
     data-name="Layer 10"
     transform="matrix(0.76424768,0,0,0.76424768,6.2612504,33.48428)" />
  <g
     id="under_flash"
     data-name="under flash"
     transform="matrix(0.76424768,0,0,0.76424768,6.2612504,33.48428)" />
  <g
     id="top_flash"
     data-name="top flash"
     transform="matrix(0.76424768,0,0,0.76424768,6.2612504,33.48428)" />
  <g
     id="Layer_13"
     data-name="Layer 13"
     transform="matrix(0.76424768,0,0,0.76424768,6.2612504,33.48428)" />
  <g
     id="Layer_15"
     data-name="Layer 15"
     transform="matrix(0.76424768,0,0,0.76424768,6.2612504,33.48428)" />
  <g
     id="Layer_16"
     data-name="Layer 16"
     transform="matrix(0.76424768,0,0,0.76424768,6.2612504,33.48428)" />
  <g
     id="Layer_18"
     data-name="Layer 18"
     transform="matrix(0.76424768,0,0,0.76424768,6.2612504,33.48428)" />
  <g
     id="Layer_19"
     data-name="Layer 19"
     transform="matrix(0.76424768,0,0,0.76424768,6.2612504,33.48428)" />
  <g
     id="Layer_20"
     data-name="Layer 20"
     transform="matrix(0.76424768,0,0,0.76424768,6.2612504,33.48428)">
    <path
       style="fill:none;stroke:#231f20;stroke-miterlimit:10"
       d="m 574.5,57.77 c 0,16.37667 0,32.75333 0,49.13 16.86333,0 33.72667,0 50.59,0 C 624.02503,87.15627 622.86677,64.73674 597.19577,64.58334 589.63227,62.30638 582.06675,60.03613 574.5,57.77 Z M 313.9,187.35 c 5.9722,-16.74482 26.81559,-28.2473 26.91507,-45.64013 -3.29431,-19.4971 -31.89044,-6.61261 -45.9335,-10.2518 -33.71248,0.26744 -67.50964,-0.2568 -101.16907,0.45943 -9.44668,4.80981 -3.44356,17.41744 -4.35025,25.96573 0.45258,8.24559 0.90516,16.49118 1.35775,24.73677 21.70112,17.66989 51.78441,9.73578 76.54532,4.73 15.54489,0 31.08979,0 46.63468,0 z M 282.6,131.3 c 0,18.68 0,37.36 0,56.04 8.24754,1.00454 15.31438,0.81559 12.40189,-9.46073 0.16604,-15.41642 0.33207,-30.83285 0.49811,-46.24927 -4.3,-0.11 -8.6,-0.22 -12.9,-0.33 z m -94.35,5.73 c 17.2541,-11.78544 42.84359,-2.7514 63.3,-5.625 27.84403,0.77444 55.86029,-0.61711 83.625,0.48375 14.5283,10.63417 -0.0428,26.44872 -8.38331,36.0275 -7.2723,10.81534 -12.13738,23.62342 -27.08361,19.43375 -15.22669,0.3532 -30.70698,-1.73867 -45.25886,3.93135 -20.94331,3.54519 -46.43927,6.17289 -63.69922,-8.66135 -0.83333,-15.19667 -1.66667,-30.39333 -2.5,-45.59 z M 410.31,6.44 c -15.80021,14.52404 -28.96018,34.48226 -49.41,43.5 -33.85847,-0.39731 -67.95046,-3.05681 -101.68973,0.03205 -6.61829,1.0832 -38.55307,6.76452 -26.61229,12.65795 14.11224,0.42245 28.38915,-0.89721 42.38653,0.75938 23.24342,12.49119 -0.51578,41.3433 -20.18685,41.61375 -8.4608,1.99738 -17.27343,1.18391 -25.89766,1.86687 19.67772,1.78758 40.93778,7.31658 58.9,-4.28 17.83048,-7.06394 37.63995,-2.39188 56.24954,-1.48208 11.47704,5.17245 19.21514,3.23877 19.62183,-11.6203 C 369.77425,70.13479 377.89621,48.46224 400.5,44.61 c 6.4,-10.6 12.8,-21.2 19.2,-31.8 -3.13,-2.12333 -6.26,-4.24667 -9.39,-6.37 z m 9.39,6.39 C 398.82927,3.88274 429.542,-0.26954 439.39599,1.4717 462.47575,2.36975 485.82101,1.25404 508.7025,4.32094 519.09627,16.54659 486.662,11.07867 478.29053,10.64007 458.82372,9.97998 438.82112,8.21203 419.7,12.83 Z m -19.2,31.8 c 6.4,-10.6 12.8,-21.2 19.2,-31.8 28.61022,-5.84694 58.3225,-4.88303 87,0 1.51222,14.01999 31.70418,38.45905 4.72178,42.09232 -30.20935,0.88141 -60.73457,2.35816 -90.79439,-1.17784 C 414.09917,51.91197 403.48028,51.86704 400.5,44.63 Z m -44.24,91.13 c 1.57965,-15.45425 0.52467,-31.4614 7.48033,-45.78745 5.017,-13.77879 9.57433,-28.92911 20.55967,-39.04255 17.87132,-13.4396 32.00366,9.71821 52.91829,4.64315 24.74319,0.26966 49.84132,2.68406 74.3948,0.04406 10.23977,-7.31363 17.77036,-11.76905 29.29834,-0.8877 17.67123,12.78398 15.03278,38.50013 22.27482,57.30799 2.42498,14.75963 10.09195,37.80333 3.78427,48.21674 C 529.22832,117.33799 467.60173,92.81881 411.41207,109.58816 391.68171,115.01842 373.17534,124.33399 356.26,135.76 Z M 574.5,106.9 c 0.8,21.64333 1.6,43.28667 2.4,64.93 25.75206,44.07677 29.12006,101.94032 3.15,146.69 -0.5366,5.50549 1.28324,-0.98287 3.93,0.38 25.64368,4.07632 35.1214,-24.8784 33.82139,-45.55751 C 621.52344,217.94563 622.28017,162.4008 623.1,106.9 c -16.2,0 -32.4,0 -48.6,0 z M 264.07317,75.65102 c 1.9576,15.33744 -21.13105,23.9249 -32.37458,15.55365 -8.97988,-9.40085 4.99295,-21.20927 14.56185,-22.11761 6.28513,-1.23932 15.18676,-0.3415 17.81273,6.56396 z M 188.42,106.23 c 23.44913,0.16783 47.29854,2.39575 70.48,-1.79 22.48532,-0.14414 39.05829,-40.98301 9.61734,-41.85 -16.00578,0 -32.01156,0 -48.01734,0 -18.2982,7.82203 -24.78823,26.85598 -32.08,43.64 z m 0,0 c 26.51087,-0.75921 54.1359,3.37546 81.07375,3.96766 13.6933,-3.71111 26.15868,-12.07301 41.54487,-9.41766 15.93487,0.64924 32.26648,-2.13147 47.61138,3.65 -1.22,10.75667 -2.44,21.51333 -3.66,32.27 -43.42493,32.79471 -66.64433,91.97494 -50.63953,144.98015 3.70603,16.15907 14.17091,36.07701 19.99321,47.22566 -5.2842,-4.87772 -10.0167,-11.20556 -18.07195,-8.79982 -14.87622,-4.35989 -8.2213,21.03612 -26.39736,17.65209 -23.56611,1.9357 -47.47714,3.2682 -71.03056,1.73575 C 188.0751,330.20678 198.35054,302.35748 194.42328,284.44687 192.0547,225.05451 190.22626,165.64161 188.42,106.23 Z m 0,0 c 26.1164,-0.8755 54.09826,3.58577 80.87375,3.69734 C 290.63547,98.937 314.46271,96.9589 338.1,100.78 c 6.34482,1.95217 16.24712,1.24989 20.41672,4.82513 -1.17557,10.36495 -2.35115,20.72991 -3.52672,31.09487 -43.52428,32.25767 -64.64811,91.37675 -49.73911,143.74947 3.49638,16.47076 13.56365,36.83801 19.09279,48.45634 -5.2842,-4.87772 -10.0167,-11.20556 -18.07195,-8.79982 -15.09655,-4.50125 -7.59869,22.00379 -26.42207,17.38302 -23.01737,1.23361 -46.14559,2.69644 -69.16075,2.31927 C 190.01493,332.4041 195.377,306.32141 194.09845,289.08993 192.49074,228.12837 190.43606,167.17913 188.42,106.23 Z M 440.8,374.47 c -2.12871,3.2911 -3.85602,-1.37218 -5.6167,1.18079 -3.82819,0.18547 -0.32562,-5.67613 -2.8033,-6.49079 3.47297,0.36803 2.72066,-0.62584 2.09,1.49 -1.97141,2.21417 1.22002,6.2552 2.59,3.05 3.1964,-3.25129 -3.97432,-5.23669 1.43474,-4.41762 1.1366,-0.39636 -1.65203,2.49266 -0.27319,4.31036 1.26694,4.38934 5.27761,-3.53544 1.81081,-4.04521 2.23402,-0.19109 3.19342,-0.99062 2.07764,1.17247 0.25528,1.25602 -0.77057,4.34585 1.04,4.28 -0.83924,0.0265 -3.01819,1.97612 -2.35,-0.53 z m 10.99,0.07 c -1.82309,3.46986 -3.84088,-1.27978 -5.16269,1.15057 -4.23368,1.06521 -0.94927,-5.48083 -3.37731,-6.31057 2.85084,0.32157 3.17458,-0.69313 2.08697,1.13962 -1.35193,2.1339 0.91212,6.64778 2.68303,3.27038 1.84316,-2.00663 -2.10096,-5.07353 0.16266,-4.42 3.50159,-1.13747 -0.72977,2.36366 1.09353,4.89883 2.54196,2.96812 4.09842,-4.44181 1.57381,-4.89883 3.10892,0.24515 2.97234,-0.71179 2.16,1.42 0.25286,1.24355 -0.78476,4.42857 1.08,4.3 -0.9168,0.0906 -3.01327,2.06325 -2.3,-0.55 z m 8.04,4.07 c -12.19669,3.65556 4.9494,-20.66067 -3.97,-1.05 2.21082,1.8332 6.54802,-3.44629 3.97,1.05 z m 2.17,0.15 c 2.31384,-0.20186 6.32315,-5.63258 1.652,-3.69338 -5.00477,-1.4259 0.593,-9.36486 3.31456,-4.45198 1.98339,3.42925 -1.06994,8.23288 -4.96656,8.14536 z m 4.19,-4.89 c 1.59374,-2.6543 -2.75067,-6.67242 -3.31119,-2.49676 -0.29223,1.997 1.41594,4.21496 3.31119,2.49676 z M 580.05002,252.53 c 2.74898,84.67783 -90.85063,149.79031 -169.84271,122.5219 -81.0543,-20.63861 -120.54974,-127.79206 -69.4588,-194.9373 46.11681,-70.58892 159.95209,-74.39809 210.89567,-7.30608 18.20086,22.30097 28.4873,50.92062 28.40584,79.72148 z M 466.35,248.55 c 0.90413,15.71272 -22.37703,22.5569 -30.10805,8.83394 -9.10113,-12.53823 6.22797,-30.72555 20.12504,-23.89329 5.95881,2.44343 10.05255,8.61892 9.98301,15.05935 z m 23.34,0.17 c 1.27116,28.9435 -34.00391,49.61165 -58.7184,34.68206 -26.03676,-12.62243 -27.50049,-53.50153 -2.4162,-67.93699 25.16468,-17.14069 61.97864,2.63245 61.1346,33.25493 z m 0,-0.17 c 1.31548,28.96618 -33.94154,49.85409 -58.7184,34.83125 -26.05199,-12.73373 -27.50218,-53.68455 -2.4162,-68.22923 25.23517,-17.25476 62.01464,2.74984 61.1346,33.39798 z m 46.70999,2.84999 c 1.97357,56.77228 -60.48387,101.23266 -113.6819,82.75126 -54.54581,-14.19955 -80.56439,-86.39628 -46.4913,-131.66059 30.6559,-47.62309 107.23255,-50.24632 141.16014,-4.93452 12.20939,15.10043 19.06528,34.42015 19.01306,53.84385 z m 19.35003,2.25 C 558.21188,323.26287 481.7255,378.04338 416.41681,355.3169 349.4678,337.78656 317.71426,249.1442 359.43517,193.56074 c 37.5037,-58.49172 131.4846,-61.73114 173.01165,-6.06248 14.97305,18.56463 23.36644,42.29725 23.3032,66.15173 z m 0,0 C 558.21188,323.26287 481.7255,378.04338 416.41681,355.3169 349.4678,337.78656 317.71426,249.1442 359.43517,193.56074 c 37.5037,-58.49172 131.4846,-61.73114 173.01165,-6.06248 14.97305,18.56463 23.36644,42.29725 23.3032,66.15173 z M 580.05,252.53 c 2.7385,84.71462 -90.92777,149.78455 -169.93339,122.5219 -81.07158,-20.6158 -120.62504,-127.78447 -69.49587,-194.9373 46.16007,-70.59352 160.02244,-74.39827 211.00825,-7.30608 18.20818,22.29759 28.50272,50.9181 28.42101,79.72148 z m 18.45,-3.60001 c 2.83032,96.28542 -104.24294,168.5656 -193.55071,137.99836 -91.71808,-22.68131 -137.65025,-143.74409 -79.15442,-219.56096 53.01777,-79.61858 181.90562,-83.80015 240.33417,-8.22895 20.68126,25.034 32.46881,57.28985 32.37096,89.79155 z M 297.12,320.23 c -3.49264,23.76776 -33.54138,19.99477 -51.26567,19.70967 -18.11664,-1.24071 -48.13391,7.63516 -50.27255,-19.37188 -3.48993,-58.98448 -3.69474,-118.23542 -6.03199,-177.31649 0.11881,-19.48417 -5.18363,-40.37944 7.45294,-57.42023 6.30889,-17.92293 24.71815,-21.38793 37.63907,-29.99087 40.56284,-13.32113 84.40158,-7.74535 126.10011,-5.89975 19.15782,-8.50575 33.36224,-25.51313 46.26309,-41.31295 19.97561,-12.30632 44.93902,-7.09583 67.22506,-7.68565 20.16214,0.89502 44.30769,0.25569 56.43916,19.76596 9.9905,20.03592 29.1543,32.30926 50.0696,39.37629 16.08639,6.09692 46.69245,5.11689 42.37868,30.23965 3.42184,24.50466 3.35259,49.50602 1.6657,74.30275 -2.10637,46.24408 -6.95485,92.31566 -10.2732,138.4835 -10.73788,21.18657 -38.20601,8.45554 -46.38843,32.34023 C 533.83839,375.21257 480.3371,404.65032 426.6369,393.23677 381.53941,384.12914 344.53744,353.50095 314.55,320.03 c -5.81,0.0667 -11.62,0.13333 -17.43,0.2 z"
       id="path5472"
       inkscape:connector-curvature="0" />
  </g>
</svg>
