<?xml version="1.0" encoding="UTF-8" standalone="no"?>
<svg
   xmlns:dc="http://purl.org/dc/elements/1.1/"
   xmlns:cc="http://creativecommons.org/ns#"
   xmlns:rdf="http://www.w3.org/1999/02/22-rdf-syntax-ns#"
   xmlns:svg="http://www.w3.org/2000/svg"
   xmlns="http://www.w3.org/2000/svg"
   xmlns:sodipodi="http://sodipodi.sourceforge.net/DTD/sodipodi-0.dtd"
   xmlns:inkscape="http://www.inkscape.org/namespaces/inkscape"
   viewBox="0 0 104 97"
   version="1.1"
   id="svg3008"
   sodipodi:docname="cartman.svg"
   inkscape:version="0.92.4 (5da689c313, 2019-01-14)">
  <metadata
     id="metadata3014">
    <rdf:RDF>
      <cc:Work
         rdf:about="">
        <dc:format>image/svg+xml</dc:format>
        <dc:type
           rdf:resource="http://purl.org/dc/dcmitype/StillImage" />
      </cc:Work>
    </rdf:RDF>
  </metadata>
  <defs
     id="defs3012" />
  <sodipodi:namedview
     pagecolor="#ffffff"
     bordercolor="#666666"
     borderopacity="1"
     objecttolerance="10"
     gridtolerance="10"
     guidetolerance="10"
     inkscape:pageopacity="0"
     inkscape:pageshadow="2"
     inkscape:window-width="1920"
     inkscape:window-height="1017"
     id="namedview3010"
     showgrid="false"
     inkscape:object-paths="true"
     inkscape:zoom="5.6568543"
     inkscape:cx="58.905294"
     inkscape:cy="54.819872"
     inkscape:window-x="-8"
     inkscape:window-y="-8"
     inkscape:window-maximized="1"
     inkscape:current-layer="svg3008" />
  <path
     style="color:#000000;font-style:normal;font-variant:normal;font-weight:normal;font-stretch:normal;font-size:medium;line-height:normal;font-family:sans-serif;font-variant-ligatures:normal;font-variant-position:normal;font-variant-caps:normal;font-variant-numeric:normal;font-variant-alternates:normal;font-feature-settings:normal;text-indent:0;text-align:start;text-decoration:none;text-decoration-line:none;text-decoration-style:solid;text-decoration-color:#000000;letter-spacing:normal;word-spacing:normal;text-transform:none;writing-mode:lr-tb;direction:ltr;text-orientation:mixed;dominant-baseline:auto;baseline-shift:baseline;text-anchor:start;white-space:normal;shape-padding:0;clip-rule:nonzero;display:inline;overflow:visible;visibility:visible;opacity:1;isolation:auto;mix-blend-mode:normal;color-interpolation:sRGB;color-interpolation-filters:linearRGB;solid-color:#000000;solid-opacity:1;vector-effect:none;fill:#000000;fill-opacity:1;fill-rule:nonzero;stroke:none;stroke-width:1;stroke-linecap:butt;stroke-linejoin:miter;stroke-miterlimit:4;stroke-dasharray:none;stroke-dashoffset:0;stroke-opacity:1;color-rendering:auto;image-rendering:auto;shape-rendering:auto;text-rendering:auto;enable-background:accumulate"
     d="m 49.619141,3.5605469 c -2.092541,0 -4.029987,0.5784384 -5.576172,1.28125 -1.546186,0.7028115 -2.689122,1.5113869 -3.263672,2.0859375 l 0.130859,0.1308594 C 29.728594,10.082855 20.087277,18.027336 16.591797,31.65625 L 16.5,31.708984 v 0.259766 c -0.354964,5.67943 0.579138,10.576141 2.326172,14.832031 l -0.15625,-0.177734 c 0,0 -8.102914,7.126355 -12.3007814,14.080078 -0.535457,0.248089 -1.0691383,0.495962 -1.6464844,0.880859 L 5,62 4.6464844,61.646484 c -2.1031198,2.10312 -2.6678568,4.569812 -2.1328125,6.84375 0.5350442,2.273939 2.1108802,4.354157 4.1855469,5.910157 l 0.037109,0.02734 0.041016,0.01953 c 0.5787445,0.289372 1.2080332,0.426003 1.8457031,0.458984 0.4229233,2.228419 0.8019783,4.635902 1.0117187,7.572266 l 0.015625,0.222656 0.1777344,0.138672 c 0,0 1.58954,1.050068 3.787109,2.289062 l -0.08984,0.0293 2.570312,7.712891 c -2.555644,0.347331 -4.193359,0.638672 -4.193359,0.638672 L 12,94.5 h 4.638672 37.318359 l 0.03516,0.0059 0.04102,-0.0059 H 89.335938 93 l 0.158203,-0.974609 c -0.937287,-0.31243 -2.089185,-0.493097 -3.175781,-0.714844 0.345841,-0.865677 0.767223,-1.87487 1.445312,-3.847656 0.460596,-1.340025 0.891596,-2.711271 1.148438,-3.835938 0.128421,-0.562333 0.213851,-1.062085 0.234375,-1.486328 0.0097,-0.200207 -0.112291,-0.357654 -0.140625,-0.539063 0.14545,-0.06746 0.335757,-0.09907 0.476562,-0.169921 C 95.689912,81.651827 97.5,79.716667 97.5,77 c 0,-1.223543 0.259562,-2.564549 0.421875,-3.851562 0.658046,-0.144439 1.320061,-0.300135 1.910156,-0.56836 C 101.3068,71.90973 102.5,70.722222 102.5,69 c 0,-2.041667 -0.25015,-4.807787 -0.76367,-6.990234 -0.25676,-1.091224 -0.5681,-2.031255 -1.00391,-2.703125 -0.2179,-0.335935 -0.47089,-0.616718 -0.814451,-0.779297 -0.245904,-0.116365 -0.537117,-0.04165 -0.816407,0.01758 l 0.0078,-0.0332 c 0,0 -0.525238,-0.07735 -0.878906,-0.134766 -1.13302,-4.310606 -4.209364,-8.491267 -11.175781,-12.15625 1.882619,-4.714494 2.628924,-10.143398 1.5625,-16.394531 L 88.849609,29.931641 88.5,28.917969 V 28.683594 L 88.375,28.625 C 84.513122,17.707104 74.825089,10.328012 63.707031,7.25 L 63.759766,7.1445312 63.445312,6.890625 C 58.280564,2.7588265 52.532582,3.5605469 49.619141,3.5605469 Z m 0,1 c 2.739802,0 7.201599,-0.4113335 11.552734,2.1601562 C 58.198322,6.0808318 55.171177,5.6497339 52.128906,5.625 49.077972,5.6001957 46.053071,5.9928807 43.087891,6.6191406 43.575029,6.3060513 43.790315,6.055006 44.457031,5.7519531 45.903914,5.0942792 47.711681,4.5605469 49.619141,4.5605469 Z M 52.121094,6.625 c 3.411891,0.027739 6.812377,0.518244 10.115234,1.3339844 L 61.824219,8.78125 h -1.691407 -2.082031 l -0.07617,0.025391 c 0,0 -0.705183,0.2348764 -1.654297,0.3535156 -0.949113,0.1186393 -2.113914,0.099293 -2.964843,-0.3261718 -0.485093,-0.2425465 -0.778995,-0.422625 -0.923828,-0.53125 -0.07242,-0.054312 -0.105084,-0.091804 -0.103516,-0.089844 0.0016,0.00196 0.05469,0.057943 0.05469,0.1933594 0,0.093403 -0.06178,0.1592692 -0.111328,0.2265625 L 52.132812,7.78125 c 0,0 -0.107504,-0.0034 -0.246093,0.03125 -0.05,0.012499 -0.121567,0.049533 -0.191407,0.087891 L 49.171875,8.7421875 47.25,7.78125 h -1.425781 l -0.138672,0.2773438 c 0,0 -0.854109,1.6099512 -2.4375,1.6953124 C 43.087314,9.6661297 42.107697,9.0467458 41.78125,7.8847656 45.136974,7.0420394 48.616696,6.596509 52.121094,6.625 Z M 40.822266,8.0917969 c 0.455221,1.7432853 2.085937,2.6367191 2.085937,2.6367191 l 0.105469,0.05273 h 0.11914 c 2.051059,0 3.00393,-1.5744264 3.242188,-2 h 0.638672 l 2.080078,1.0410156 2.583984,-0.8613281 c 0.05004,0.046778 0.09226,0.096049 0.154297,0.1425781 0.230167,0.172625 0.561265,0.3675465 1.076172,0.625 1.149071,0.5745354 2.486223,0.5551894 3.537109,0.4238284 0.983075,-0.122885 1.632661,-0.3406046 1.726563,-0.371094 h 1.960937 2.308594 L 63.248047,8.1679688 C 73.844967,11.054318 83.052483,17.960338 87.023438,28.060547 52.846694,12.674134 20.815558,29.425339 17.857422,31.042969 21.412636,18.451916 30.34284,11.012033 40.822266,8.0917969 Z M 56.630859,23.115234 C 67.820668,22.744477 77.655223,24.953204 87.5,29.339844 v 0.93164 c -1.449079,-0.68047 -19.338277,-8.725868 -42.806641,-5.773437 4.141877,-0.724832 8.157158,-1.257557 11.9375,-1.382813 z m -1.347656,1.642578 c 18.812498,0.09472 32.262523,6.584875 32.414063,6.658204 C 89.01286,41.598549 85.835782,49.619969 79.935547,55.263672 73.575493,61.347202 64.247952,64.755281 54.724609,65.25 45.201267,65.744719 35.499601,63.325408 28.398438,57.853516 21.775385,52.750038 17.56602,44.895758 17.605469,34.257812 c 13.291322,-7.293036 26.429199,-9.556635 37.677734,-9.5 z m -9.822265,1.611329 C 40.476484,27.418612 36.526346,32.585615 36.5,37.998047 V 38 38.101562 c 0.01318,2.701358 1.029773,4.976672 2.697266,6.433594 1.667492,1.456923 3.980936,2.076647 6.472656,1.53711 3.91541,-0.847812 7.096864,-4.248321 8.314453,-8.28125 1.060421,4.329518 4.339923,8.068488 8.476563,8.939453 2.492103,0.524709 4.800453,-0.111133 6.457031,-1.580078 1.656578,-1.468946 2.658203,-3.749919 2.658203,-6.453125 0,-5.406412 -3.923058,-10.590901 -8.90625,-11.669922 -2.49172,-0.539538 -4.805164,0.08214 -6.472656,1.539062 -0.976546,0.853228 -1.63441,2.043607 -2.09375,3.378906 -0.419563,-1.586571 -1.080739,-3.016421 -2.185547,-3.996093 -1.656578,-1.468946 -3.964928,-2.104788 -6.457031,-1.580078 z m 0.207031,0.978515 c 2.214949,-0.466355 4.163468,0.08826 5.585937,1.34961 1.422469,1.261353 2.322266,3.249566 2.322266,5.707031 0,4.914929 -3.686274,9.731971 -8.117188,10.691406 -2.215576,0.479743 -4.17179,-0.06353 -5.603515,-1.314453 C 38.424153,42.53068 37.512484,40.553308 37.5,38.099609 v -0.002 -0.0957 c 0.02396,-4.92111 3.737831,-9.721536 8.167969,-10.654297 z m 16.791015,0.65625 c 4.430914,0.959435 8.117188,5.77843 8.117188,10.69336 0,2.457464 -0.899797,4.443725 -2.322266,5.705078 -1.422469,1.261353 -3.370988,1.815964 -5.585937,1.349609 C 58.238411,44.819314 54.524917,40.020045 54.5,35.099609 v -0.002 -0.0957 c 0.01197,-2.454672 0.923744,-4.432666 2.355469,-5.683594 1.431725,-1.250927 3.387939,-1.794196 5.603515,-1.314453 z m -38.947265,2.21875 c -1.977485,0.86282 -3.966351,1.868837 -5.957031,2.945313 0.0095,-0.2884 -0.05495,-0.527783 -0.03906,-0.820313 2.082955,-0.802381 4.010847,-1.430891 5.996094,-2.125 z m 24.447265,4.228516 c -0.355714,0.01253 -0.712166,0.140536 -0.992187,0.398437 -0.280022,0.257901 -0.464844,0.6538 -0.464844,1.09961 0,0.44581 0.184822,0.843661 0.464844,1.101562 0.280021,0.257901 0.636473,0.385912 0.992187,0.398438 0.355715,0.01253 0.723276,-0.09137 1.019532,-0.335938 0.296255,-0.24457 0.498878,-0.636327 0.521484,-1.08789 l -1,-0.05078 c -0.0104,0.2078 -0.07372,0.299397 -0.158203,0.369141 -0.08448,0.06974 -0.212225,0.110238 -0.347656,0.105469 -0.135432,-0.0048 -0.265398,-0.05525 -0.34961,-0.132813 -0.08421,-0.07756 -0.142578,-0.172811 -0.142578,-0.367187 0,-0.194376 0.05837,-0.287675 0.142578,-0.365235 0.08421,-0.07756 0.214178,-0.129996 0.34961,-0.134765 0.135431,-0.0048 0.263173,0.03768 0.347656,0.107422 0.08448,0.06974 0.1478,0.161341 0.158203,0.36914 l 1,-0.05078 c -0.02261,-0.451563 -0.225229,-0.845274 -0.521484,-1.089844 -0.296256,-0.24457 -0.663817,-0.346509 -1.019532,-0.333984 z m 11,0 c -0.355714,0.01253 -0.712166,0.140536 -0.992187,0.398437 -0.280022,0.257901 -0.464844,0.6538 -0.464844,1.09961 0,0.44581 0.184822,0.843661 0.464844,1.101562 0.280021,0.257901 0.636473,0.385912 0.992187,0.398438 0.355715,0.01253 0.723276,-0.09137 1.019532,-0.335938 0.296255,-0.24457 0.498878,-0.636327 0.521484,-1.08789 l -1,-0.05078 c -0.0104,0.2078 -0.07372,0.299397 -0.158203,0.369141 -0.08448,0.06974 -0.212225,0.110238 -0.347656,0.105469 -0.135432,-0.0048 -0.265398,-0.05525 -0.34961,-0.132813 -0.08421,-0.07756 -0.142578,-0.172811 -0.142578,-0.367187 0,-0.194376 0.05837,-0.287675 0.142578,-0.365235 0.08421,-0.07756 0.214178,-0.129996 0.34961,-0.134765 0.135431,-0.0048 0.263173,0.03768 0.347656,0.107422 0.08448,0.06974 0.1478,0.161341 0.158203,0.36914 l 1,-0.05078 c -0.02261,-0.451563 -0.225229,-0.845274 -0.521484,-1.089844 -0.296256,-0.24457 -0.663817,-0.346509 -1.019532,-0.333984 z M 82.597656,46.705078 C 77.144658,54.140985 71.748234,57.807174 66.095703,59.650391 60.443172,61.493607 54.5,61.5 48,61.5 35.307692,61.5 25.384766,49.679688 25.384766,49.679688 l -0.769532,0.640624 c 0,0 10.077074,12.179688 23.384766,12.179688 6.5,0 12.556828,0.0064 18.404297,-1.900391 5.847469,-1.906783 11.451045,-5.740594 16.998047,-13.304687 z m 4.035156,0.421875 c 6.572713,3.462059 9.46913,7.229017 10.578126,11.154297 -0.858968,-0.07646 -1.869727,-0.143301 -3.009766,-0.0293 -1.297617,0.129762 -2.679098,0.453432 -3.890625,1.160156 -1.211527,0.706725 -2.246946,1.815055 -2.785156,3.429688 l 0.04492,-0.09961 L 84.5,67.861328 V 68 c 0,0.08333 -0.09359,0.386227 -0.208984,0.732422 -0.115399,0.346195 -0.251436,0.764304 -0.15625,1.240234 0.09519,0.47593 0.486319,0.920925 1.103515,1.164063 C 85.855477,71.379856 86.716667,71.5 88,71.5 c 2.433333,0 3.555383,0.464125 4.376953,0.933594 0.410785,0.234734 0.75316,0.485938 1.158203,0.697265 C 93.9402,73.342186 94.416667,73.5 95,73.5 c 0.601363,0 1.248821,-0.07764 1.890625,-0.162109 C 96.74717,74.559839 96.5,75.803425 96.5,77 c 0,2.283333 -1.439912,3.848173 -3.802734,5.037109 -2.362823,1.188937 -5.604154,1.907993 -8.888672,2.341797 -3.284518,0.433805 -6.613184,0.589923 -9.189453,0.699219 -1.288135,0.05465 -2.38619,0.0984 -3.208985,0.160156 -0.411397,0.03088 -0.752243,0.06538 -1.027344,0.113281 -0.2751,0.0479 -0.467588,0.02618 -0.736328,0.294922 L 69.5,85.792969 V 86 c 0,0.104167 -0.03941,0.214528 -0.179688,0.373047 -0.140282,0.158519 -0.377758,0.341322 -0.691406,0.519531 -0.627295,0.356418 -1.542063,0.697959 -2.527344,1.00586 -1.970561,0.6158 -4.175147,1.079761 -5.324218,1.654296 -0.291301,0.145651 -1.434976,0.322813 -3.041016,0.369141 -0.313448,0.009 -0.863261,-0.01327 -1.214844,-0.0098 L 58.507812,78 56.511719,66.025391 c 9.111958,-0.809126 17.933308,-4.125916 24.115234,-10.039063 2.589122,-2.476551 4.523036,-5.519767 6.005859,-8.859375 z M 19.074219,47.625 c 1.999379,4.493026 5.0176,8.172527 8.714843,11.021484 7.336337,5.653108 17.259671,8.108797 26.986329,7.603516 0.249996,-0.01299 0.492475,-0.07881 0.742187,-0.0957 L 57.492188,78 55.507812,89.904297 C 54.25178,89.90232 53.114803,89.915077 51.511719,89.875 46.517547,89.750146 40.011905,89.5 33,89.5 20.497188,89.5 11.049248,82.49099 10.601562,82.154297 10.389139,79.335927 10.03425,76.977362 9.6289062,74.816406 c 0.2859443,-0.03081 0.5813448,-0.01721 0.8554688,-0.07813 1.068453,-0.237434 1.91918,-0.707549 2.550781,-1.232422 0.838193,0.0085 2.343373,0.481708 3.882813,0.738282 1.553318,0.258886 3.25877,0.286151 4.435547,-0.890625 1.332495,-1.332496 1.735928,-2.746153 1.412109,-4.023438 -0.323819,-1.277284 -1.279733,-2.368527 -2.445313,-3.339844 -2.331159,-1.942633 -5.628307,-3.463142 -7.042968,-4.40625 C 11.734675,60.555538 10.383333,60 9,60 8.6444074,60 8.2867991,60.136972 7.9316406,60.208984 12.017918,54.001531 18.670572,47.981988 19.074219,47.625 Z m 35.878906,3.826172 c -1.3243,0.08429 -2.451172,1.441351 -2.451172,3.498047 0,2.056696 1.126872,3.415707 2.451172,3.5 0.66215,0.04215 1.333159,-0.264895 1.796875,-0.861328 0.463716,-0.596433 0.737538,-1.460641 0.75,-2.582032 l -1,-0.01172 c -0.01071,0.963287 -0.248976,1.605404 -0.539062,1.978515 -0.290087,0.373111 -0.613976,0.499606 -0.945313,0.478516 -0.662675,-0.04218 -1.513672,-0.795181 -1.513672,-2.501953 0,-1.706773 0.850997,-2.457821 1.513672,-2.5 0.331337,-0.02109 0.655226,0.103451 0.945313,0.476562 0.290086,0.373111 0.528357,1.017181 0.539062,1.980469 l 1,-0.01172 c -0.01246,-1.12139 -0.286284,-1.985598 -0.75,-2.582031 -0.463716,-0.596433 -1.134725,-0.903474 -1.796875,-0.861328 z m 4.824219,7.101562 c -2.900619,1.45031 -5.267271,1.438543 -6.921875,1.083985 -1.654605,-0.354558 -2.554688,-1.03711 -2.554688,-1.03711 l -0.601562,0.800782 c 0,0 1.099917,0.817448 2.945312,1.21289 1.845396,0.395442 4.478744,0.383675 7.578125,-1.166015 z M 99,59 l 0.222656,0.447266 c 0.138197,-0.0691 0.171689,-0.06203 0.265625,-0.01758 0.09394,0.04445 0.247201,0.177731 0.404297,0.419921 0.314192,0.48438 0.627852,1.356849 0.871092,2.390625 C 101.25015,64.307787 101.5,67.041667 101.5,69 c 0,1.277778 -0.8068,2.09027 -2.082031,2.669922 -0.409928,0.186331 -0.904014,0.285326 -1.378907,0.40625 0.500495,-3.527418 1.112584,-7.16249 0.792969,-10.867188 -0.05168,-0.59898 -0.26424,-1.190444 -0.378906,-1.787109 0.100305,0.01908 0.4375,0.06641 0.4375,0.06641 z m -4.701172,0.248047 c 1.172289,-0.117229 2.278479,-0.05709 3.119141,0.0293 0.140985,0.672404 0.359304,1.33759 0.417969,2.017578 0.313064,3.628771 -0.342425,7.348991 -0.837891,11.03125 C 96.322672,72.429601 95.634749,72.5 95,72.5 94.583333,72.5 94.3098,72.407814 93.996094,72.244141 93.682387,72.080468 93.337262,71.831672 92.873047,71.566406 91.944617,71.035875 90.566667,70.5 88,70.5 c -1.216667,0 -1.980477,-0.129856 -2.394531,-0.292969 -0.414054,-0.163112 -0.460421,-0.280617 -0.490235,-0.429687 -0.02981,-0.14907 0.02165,-0.418461 0.125,-0.728516 0.0797,-0.239099 0.154352,-0.517348 0.201172,-0.808594 l 3.015625,-5.029296 0.01758,-0.05273 c 0.46179,-1.385367 1.301371,-2.277037 2.339844,-2.882812 1.038473,-0.605776 2.281992,-0.907106 3.484375,-1.027344 z M 9,61 c 1.116667,0 2.265325,0.444462 3.722656,1.416016 1.585339,1.056892 4.788191,2.536383 6.957032,4.34375 1.08442,0.903683 1.878506,1.87494 2.117187,2.816406 0.238681,0.941465 0.01711,1.902808 -1.150391,3.070312 -0.823223,0.823224 -2.117771,0.850489 -3.564453,0.609375 C 15.63535,73.014746 14.166667,72.5 13,72.5 h -0.207031 l -0.146485,0.146484 c -0.382148,0.382149 -1.332423,0.882249 -2.380859,1.115235 -0.2755784,0.06124 -0.5562095,0.05036 -0.8378906,0.07422 C 8.5092991,69.286933 7.4191431,65.689323 6.9296875,61.640625 6.9654966,61.578858 7.0220579,61.516938 7.0585938,61.455078 7.7410667,61.170288 8.3835676,61 9,61 Z M 5.9902344,62.03125 C 6.5011995,66.010618 7.5170976,69.527006 8.4023438,73.839844 7.9996051,73.793084 7.601261,73.725155 7.2636719,73.5625 5.3603807,72.122292 3.9477811,70.220941 3.4863281,68.259766 3.0239726,66.294754 3.4639544,64.27451 5.3339844,62.386719 5.5732953,62.22868 5.7663099,62.160958 5.9902344,62.03125 Z M 54.5,69 v 1 h 1 v -1 z m 1,9 v 1 h 1 v -1 z m 36.310547,5.408203 c 0.01408,0.0689 0.0094,0.03175 0.002,0.185547 -0.01559,0.322189 -0.08995,0.780782 -0.210938,1.310547 -0.241966,1.05953 -0.664658,2.412137 -1.11914,3.734375 -0.694133,2.01946 -1.161976,3.139563 -1.486328,3.949219 C 83.080458,91.558479 75.592929,91.598653 68.970703,92 60.745346,92.498506 54.092207,93.484481 54.013672,93.496094 38.487704,90.685769 24.36461,91.837435 17.117188,92.767578 L 14.779297,85.757812 C 18.940674,87.937341 25.260956,90.5 33,90.5 c 6.988095,0 13.482453,0.249854 18.488281,0.375 2.502914,0.06257 4.63143,0.0943 6.275391,0.04687 1.64396,-0.04742 2.750285,-0.12026 3.458984,-0.474609 0.850929,-0.425465 3.146343,-0.961504 5.175782,-1.595704 1.014719,-0.317099 1.974951,-0.663058 2.722656,-1.08789 0.373852,-0.212416 0.698876,-0.443676 0.949218,-0.726563 0.165008,-0.186458 0.210744,-0.442629 0.283204,-0.683593 -0.14374,0.143739 -0.01445,0.01997 0.201172,-0.01758 0.215622,-0.03755 0.534444,-0.0719 0.929687,-0.101563 0.790487,-0.05933 1.887744,-0.101523 3.177734,-0.15625 2.579981,-0.109454 5.938815,-0.265836 9.279297,-0.707031 2.822041,-0.372723 5.531705,-1.023078 7.869141,-1.962891 z M 54.5,87 v 1 h 1 v -1 z m -16.357422,5.8125 c 2.798786,0.105656 5.745595,0.348956 8.751953,0.6875 H 19.826172 c 4.677183,-0.504901 10.711344,-0.974596 18.316406,-0.6875 z m 43.685547,0.0059 c 2.373841,0.106162 4.587822,0.347745 6.648437,0.681641 H 64.025391 c 2.221501,-0.222397 2.251432,-0.333183 5.003906,-0.5 4.113128,-0.24928 8.60493,-0.369198 12.798828,-0.181641 z"
     id="path3006"
     inkscape:connector-curvature="0" />
</svg>
