<?xml version="1.0" encoding="UTF-8" standalone="no"?>
<!-- Created with Inkscape (http://www.inkscape.org/) -->

<svg
   xmlns:dc="http://purl.org/dc/elements/1.1/"
   xmlns:cc="http://creativecommons.org/ns#"
   xmlns:rdf="http://www.w3.org/1999/02/22-rdf-syntax-ns#"
   xmlns:svg="http://www.w3.org/2000/svg"
   xmlns="http://www.w3.org/2000/svg"
   xmlns:sodipodi="http://sodipodi.sourceforge.net/DTD/sodipodi-0.dtd"
   xmlns:inkscape="http://www.inkscape.org/namespaces/inkscape"
   sodipodi:docname="Catmeme.svg"
   viewBox="0 0 430.20941 182.04552"
   height="182.04552"
   width="430.20941"
   id="svg815"
   version="1.1"
   inkscape:version="0.92.4 (5da689c313, 2019-01-14)">
  <metadata
     id="metadata821">
    <rdf:RDF>
      <cc:Work
         rdf:about="">
        <dc:format>image/svg+xml</dc:format>
        <dc:type
           rdf:resource="http://purl.org/dc/dcmitype/StillImage" />
        <dc:title></dc:title>
      </cc:Work>
    </rdf:RDF>
  </metadata>
  <defs
     id="defs819" />
  <sodipodi:namedview
     pagecolor="#ffffff"
     bordercolor="#666666"
     borderopacity="1"
     objecttolerance="10"
     gridtolerance="10"
     guidetolerance="10"
     inkscape:pageopacity="0"
     inkscape:pageshadow="2"
     inkscape:window-width="1920"
     inkscape:window-height="1017"
     id="namedview817"
     showgrid="false"
     inkscape:zoom="4.4576011"
     inkscape:cx="299.56175"
     inkscape:cy="63.380342"
     inkscape:window-x="1912"
     inkscape:window-y="-8"
     inkscape:window-maximized="1"
     inkscape:current-layer="svg815"
     fit-margin-top="0"
     fit-margin-left="0"
     fit-margin-right="0"
     fit-margin-bottom="0" />
  <path
     style="fill:none;stroke:#000000;stroke-width:1.78024566;stroke-opacity:1"
     d="m 390.18251,83.01267 c -1.72607,-2.07979 -1.77895,-3.2457 -0.21799,-4.80666 3.14304,-3.14304 2.46649,-4.68199 -1.59172,-3.62074 -3.22454,0.84324 -3.52099,0.35432 -2.5298,-4.17222 l 1.12277,-5.12739 -3.42733,4.22254 c -3.08609,3.80214 -3.54627,3.91261 -4.62189,1.10954 -1.78865,-4.66115 1.29422,-7.19919 16.34664,-13.45766 14.18423,-5.8975 29.80304,-15.50471 28.0525,-17.25525 -0.55237,-0.55237 -2.41118,0.23922 -4.13066,1.7591 -1.71949,1.51988 -12.13884,7.26295 -23.15411,12.76239 -18.82562,9.39878 -20.02776,10.31864 -20.02776,15.32483 0,3.05707 0.94796,5.33928 2.2253,5.35735 1.22392,0.0173 4.22809,2.35864 6.67592,5.20293 4.49769,5.22615 9.49703,7.78471 5.27813,2.70124 z"
     id="path3759" />
  <path
     style="fill:none;stroke:#000000;stroke-width:1.78024566;stroke-opacity:1"
     d="m 294.5826,97.15604 c 1.60479,-1.60478 -0.60492,-6.18402 -2.43753,-5.0514 -0.87654,0.54173 -1.59371,-0.17059 -1.59371,-1.58294 0,-3.04379 -8.48303,-5.09988 -10.11911,-2.45263 -0.6231,1.00819 1.04292,3.70464 3.70225,5.99211 4.77222,4.10489 8.37182,5.17114 10.4481,3.09486 z"
     id="path3757" />
  <path
     style="fill:none;stroke:#000000;stroke-width:1.78024566;stroke-opacity:1"
     d="m 346.6291,94.65972 5.11675,-5.34074 h -6.56393 c -4.86794,0 -6.56392,0.74629 -6.56392,2.88835 0,2.3648 -0.48375,2.48688 -2.66877,0.67348 -2.1275,-1.76568 -3.75222,-1.76609 -8.01111,-0.002 -8.79523,3.64306 -6.78483,7.1216 4.11595,7.1216 8.18532,0 10.14694,-0.71879 14.57503,-5.34073 z"
     id="path3755" />
  <path
     style="fill:none;stroke:#000000;stroke-width:1.78024566;stroke-opacity:1"
     d="m 297.08045,118.24797 c -0.76916,-1.22392 -0.82687,-3.15019 -0.12818,-4.28061 0.78701,-1.27341 0.48836,-1.57207 -0.78505,-0.78506 -1.13047,0.69864 -2.05537,0.42186 -2.05537,-0.61506 0,-2.42107 11.88701,-2.47523 13.3791,-0.061 0.62013,1.0034 0.46714,1.70964 -0.33999,1.56943 -4.36881,-0.75893 -7.5073,0.51995 -8.05467,3.28214 -0.45159,2.27895 -0.99284,2.51795 -2.01584,0.89012 z"
     id="path3753" />
  <path
     style="fill:none;stroke:#000000;stroke-width:1.78024566;stroke-opacity:1"
     d="m 276.18891,121.80846 c -0.10842,-6.0063 -0.30985,-6.28401 -2.00844,-2.76866 -1.03836,2.14899 -1.40985,5.15315 -0.8255,6.67592 1.79891,4.68785 2.96016,3.08676 2.83394,-3.90726 z"
     id="path3749" />
  <path
     style="fill:none;stroke:#000000;stroke-width:1.78024566;stroke-opacity:1"
     d="m 345.04103,130.70969 c 1.30074,-1.71349 2.32159,-5.1182 2.26855,-7.56604 -0.0942,-4.34482 -0.13209,-4.33153 -1.6001,0.55888 -0.82703,2.75522 -2.45848,6.15994 -3.62545,7.56604 -1.16697,1.4061 -1.51115,2.55655 -0.76485,2.55655 0.7463,0 2.42113,-1.40194 3.72185,-3.11543 z"
     id="path3747" />
  <path
     style="fill:none;stroke:#000000;stroke-width:1.78024566;stroke-opacity:1"
     d="m 332.94264,141.19058 c 1.43095,-0.90745 -0.67804,-1.4141 -5.44433,-1.30792 -6.04649,0.13469 -9.07665,-0.91755 -13.59888,-4.72235 -3.20033,-2.69263 -7.35954,-4.89568 -9.2427,-4.89568 -1.88314,0 -3.42389,-0.96133 -3.42389,-2.13629 0,-1.66157 -0.47474,-1.66157 -2.1363,0 -1.17496,1.17496 -3.57829,2.13629 -5.34074,2.13629 -1.76244,0 -3.20444,1.15439 -3.20444,2.5653 0,3.85465 -3.00414,4.95478 -7.52924,2.75725 l -4.04235,-1.96309 4.17086,3.63517 c 3.26725,2.84761 4.92112,3.23364 7.63384,1.78185 3.48536,-1.86531 16.89478,-0.7166 23.80021,2.03883 4.74597,1.89376 15.44452,1.95824 18.35796,0.11064 z"
     id="path3745" />
  <path
     style="fill:none;stroke:#000000;stroke-width:1.78024566;stroke-opacity:1"
     d="m 327.93652,156.80925 c 2.95612,-2.41796 3.25502,-3.02249 0.89012,-1.80028 -5.80675,3.00101 -9.02597,5.46618 -7.12098,5.45299 0.97914,-0.007 3.78302,-1.6505 6.23086,-3.65271 z"
     id="path3743" />
  <path
     style="fill:none;stroke:#000000;stroke-width:1.78024566;stroke-opacity:1"
     d="m 297.78087,158.8533 c -1.40901,-0.89154 -3.96787,-5.0851 -5.68634,-9.31903 -3.4716,-8.55327 -4.32126,-6.0219 -1.44956,4.31861 1.42984,5.14859 2.75126,6.66969 5.77586,6.64866 3.05054,-0.0212 3.3527,-0.38739 1.36004,-1.64824 z"
     id="path3741" />
  <path
     style="fill:none;stroke:#000000;stroke-width:1.78024566;stroke-opacity:1"
     d="m 308.89478,178.16013 c -1.11605,-1.11606 -8.30349,-3.52354 -15.97209,-5.34998 -14.51152,-3.4562 -15.4164,-4.13206 -23.26547,-17.37722 -4.15375,-7.00939 -4.64111,-9.78523 -5.00096,-28.48393 -0.21927,-11.39472 0.33747,-21.63372 1.23719,-22.75333 0.89972,-1.1196 1.94148,-4.45053 2.31503,-7.40207 0.37353,-2.95154 1.54794,-6.98978 2.60978,-8.97386 1.06187,-1.98408 1.93065,-5.27318 1.93065,-7.30911 0,-2.03592 0.92542,-5.18351 2.05648,-6.99463 1.69357,-2.71184 1.22232,-4.3866 -2.67037,-9.49017 -2.59976,-3.40848 -4.75941,-8.12438 -4.7992,-10.4798 -0.0399,-2.35542 -2.44312,-7.0562 -5.34074,-10.44619 -5.73882,-6.71397 -7.15933,-11.1854 -2.15296,-6.77697 1.71349,1.50883 7.2925,4.83636 12.3978,7.3945 9.56677,4.79366 15.71161,11.77694 10.36297,11.77694 -1.50315,0 -2.733,-1.24894 -2.733,-2.77543 0,-1.52649 -0.79367,-2.28492 -1.76371,-1.6854 -2.54609,1.57357 -1.68781,15.14231 0.95779,15.14231 1.19399,0 2.58988,-1.60222 3.10199,-3.56049 0.51211,-1.95827 2.20775,-3.5605 3.76812,-3.5605 1.56037,0 2.83704,-0.73964 2.83704,-1.64365 0,-3.37726 -9.60003,-12.88245 -16.63659,-16.47223 -9.16514,-4.67571 -17.18808,-10.55906 -17.18808,-12.60431 0,-0.86167 2.20305,-0.0114 4.89567,1.88956 2.69263,1.90093 9.99945,6.02144 16.23738,9.15669 6.23792,3.13525 13.14679,7.50555 15.35301,9.71178 3.47556,3.47556 4.44634,3.69322 7.26839,1.6297 2.42494,-1.77317 10.10038,-2.30593 30.04325,-2.08537 22.21257,0.24567 28.24466,0.90012 35.32808,3.83291 9.9055,4.10123 11.50425,3.79104 41.78946,-8.10781 10.0578,-3.95164 18.68951,-6.78221 19.18157,-6.29015 0.49206,0.49206 -1.5278,6.01534 -4.48862,12.27395 -2.9608,6.25862 -5.38391,13.07165 -5.38467,15.14006 -7.7e-4,2.06842 -2.48049,6.87509 -5.51047,10.68148 -8.39804,10.54996 -8.68575,11.60718 -6.76995,24.8773 2.39293,16.57514 2.23289,34.69731 -0.38354,43.43017 -2.71389,9.0582 -12.40468,20.48744 -21.15717,24.95263 -9.15085,4.66841 -39.40081,10.77668 -42.21779,8.52488 -2.30829,-1.84517 -20.96501,-1.13487 -25.48659,0.97032 -1.49626,0.69663 -3.63362,0.35347 -4.74968,-0.76258 z"
     id="path3739" />
  <path
     style="fill:none;stroke:#000000;stroke-width:1.78024566;stroke-opacity:1"
     d="m 326.79013,178.90249 c 6.07351,-0.74505 9.06432,-0.38201 10.05472,1.22052 1.76763,2.86007 30.1652,-2.12553 43.14898,-7.57543 9.47749,-3.97813 19.3648,-13.93226 23.83469,-23.99578 3.30351,-7.43748 4.21074,-28.89628 1.88989,-44.70152 -0.87859,-5.98331 -0.76198,-9.11062 0.31489,-8.44508 2.55855,1.58127 3.50532,-2.9725 1.34455,-6.46694 -1.49049,-2.41046 -0.68376,-4.75759 3.84216,-11.17858 3.15084,-4.47012 5.7288,-9.52862 5.7288,-11.2411 0,-1.71249 2.80388,-8.96434 6.23086,-16.11523 6.50622,-13.57622 7.77064,-19.09364 4.00555,-17.47864 -24.36599,10.45152 -32.61506,13.75721 -42.45218,17.01205 l -11.74295,3.88543 -8.2989,-3.55732 c -7.32552,-3.14008 -12.06546,-3.5405 -40.41243,-3.41393 -26.16322,0.11682 -32.6754,-0.35154 -35.14577,-2.5277 -1.66774,-1.46909 -7.8389,-5.10019 -13.71372,-8.0691 -5.87481,-2.96892 -13.428,-7.45559 -16.78485,-9.97039 -3.35685,-2.5148 -6.41267,-4.26306 -6.79071,-3.88502 -2.03576,2.03576 2.56608,14.86934 7.78211,21.70273 6.75906,8.85485 7.40677,12.17804 2.88667,14.81075 -2.78229,1.62053 -2.6871,1.82036 0.89013,1.86871 2.21103,0.0299 4.00555,1.16515 4.00555,2.53403 0,1.36395 1.20166,2.94103 2.67037,3.50462 3.62011,1.38917 3.37321,5.89091 -0.44506,8.11485 -1.729,1.00704 -2.12512,1.83866 -0.89013,1.86871 3.02398,0.0736 2.80715,5.55218 -0.401,10.13247 -1.44449,2.06228 -2.82007,6.29234 -3.05687,9.40014 -0.23681,3.10779 -1.45057,6.49706 -2.69722,7.53169 -1.33867,1.11101 -1.82498,3.64095 -1.18783,6.17957 0.59335,2.36412 1.18644,12.10562 1.31798,21.64778 0.2277,16.5191 0.52991,17.80237 6.31516,26.81524 8.48955,13.22595 9.24439,13.77697 22.22914,16.22701 6.36696,1.20137 13.01739,3.3095 14.77877,4.68474 1.82576,1.42555 5.11571,2.07933 7.65308,1.52085 2.44783,-0.5388 8.34084,-1.45685 13.09557,-2.04013 z"
     id="path3737" />
  <path
     style="fill:none;stroke:#000000;stroke-width:1.78024566;stroke-opacity:1"
     d="m 181.06312,76.26738 c 12.10242,-8.01211 15.80507,-11.39051 13.19635,-12.04069 -0.50507,-0.12587 -7.74902,2.66673 -16.09765,6.2058 -14.53355,6.16088 -15.09322,6.60683 -13.15486,10.48167 1.11348,2.22585 2.17154,4.08366 2.35126,4.12845 0.17973,0.0448 6.34693,-3.90405 13.7049,-8.77523 z"
     id="path3733" />
  <path
     style="fill:none;stroke:#000000;stroke-width:1.78024566;stroke-opacity:1"
     d="m 124.78174,73.90838 c 1.5754,-5.76585 -1.57825,-35.71429 -3.63092,-34.48067 -0.4202,0.25253 -0.25296,5.42928 0.37164,11.50389 0.62461,6.07461 1.21377,15.19229 1.30925,20.26153 l 0.1736,9.21679 z"
     id="path3731" />
  <path
     style="fill:none;stroke:#000000;stroke-width:1.78024566;stroke-opacity:1"
     d="m 172.87593,91.76205 c 2.49799,-2.43664 -0.68246,-6.73743 -3.65934,-4.94837 -2.49008,1.49649 -2.16095,5.49234 0.50719,6.15732 0.83792,0.20884 2.2564,-0.33519 3.15215,-1.20895 z"
     id="path3729" />
  <path
     style="fill:none;stroke:#000000;stroke-width:1.78024566;stroke-opacity:1"
     d="m 101.94026,101.30437 c 2.30302,-1.05185 3.47349,-3.43033 4.0212,-8.17131 0.42492,-3.67818 0.15426,-6.84169 -0.60146,-7.03004 -0.75572,-0.18835 -1.71408,2.71045 -2.12968,6.44178 -0.64912,5.82796 -1.39771,6.91695 -5.310806,7.72573 -2.92359,0.60425 -3.6011,1.22373 -1.89152,1.72952 1.46501,0.43346 4.125536,0.12036 5.912266,-0.69568 z"
     id="path3725" />
  <path
     style="fill:none;stroke:#000000;stroke-width:1.78024566;stroke-opacity:1"
     d="m 81.853594,54.79435 c -1.53624,1.49851 -2.39426,1.37308 -3.52954,-0.51595 -2.02217,-3.36476 8.44844,-5.87256 12.67229,-3.03513 2.84967,1.91431 2.74366,2.13455 -1.88272,3.91173 -3.27607,1.25845 -4.95682,1.18261 -5.0664,-0.22863 -0.11047,-1.42266 -0.82632,-1.46575 -2.19363,-0.13202 z"
     id="path3723" />
  <path
     style="fill:none;stroke:#000000;stroke-width:1.78024566;stroke-opacity:1"
     d="m 93.717384,68.409 c -0.0407,-2.05825 0.17377,-2.06777 0.95999,-0.0426 0.5754,1.48215 2.56084,2.49625 4.59958,2.34932 2.938026,-0.21175 3.034276,-0.0384 0.53193,0.95795 -3.73658,1.48777 -6.0217,0.26309 -6.0915,-3.26467 z"
     id="path3721" />
  <path
     style="fill:none;stroke:#000000;stroke-width:1.78024566;stroke-opacity:1"
     d="m 93.311374,108.78596 c 3.86844,-2.59562 3.87818,-2.70284 0.32584,-3.5882 -2.01397,-0.50194 -4.0917,-2.61673 -4.61719,-4.69953 -1.39275,-5.52021 -0.69611,-6.57013 2.10045,-3.16566 1.35484,1.64935 0.92656,0.46707 -0.95173,-2.62728 -6.14192,-10.11844 1.16104,-18.23001 15.317866,-17.01391 l 7.83135,0.67272 -3.14502,7.58404 c -3.72223,8.97592 -1.90603,12.3831 3.03834,5.6999 4.04455,-5.46692 7.53635,-23.93976 6.01624,-31.82792 -0.81048,-4.20569 -1.68883,-5.04918 -4.51524,-4.33608 -4.51685,1.13959 -6.05761,0.72794 -4.16934,-1.11395 0.82397,-0.80372 0.72079,-1.65506 -0.22929,-1.89185 -3.71009,-0.92467 -4.64282,2.84498 -2.57177,10.39361 1.74815,6.37157 1.63871,8.19573 -0.56896,9.48268 -2.18295,1.27254 -2.51225,1.09434 -1.635,-0.88481 0.60416,-1.36305 0.35842,-5.84211 -0.54611,-9.95346 l -1.64459,-7.47517 5.88561,-2.96094 c 3.23709,-1.62851 6.49561,-2.33558 7.24117,-1.57124 0.74556,0.76433 1.67989,0.0884 2.07628,-1.50203 0.67161,-2.69473 0.36659,-2.76814 -4.47739,-1.07757 -5.66785,1.97809 -7.54565,0.8624 -4.90311,-2.91318 0.92799,-1.32587 3.26631,-2.01711 5.19627,-1.53611 4.40183,1.09708 5.12717,-1.67448 2.57368,-9.8341 -2.73586,-8.74232 -13.04813,-17.65569 -19.123796,-16.52956 -2.4788,0.45944 -5.56378,0.0956 -6.85554,-0.80847 -3.0621,-2.14318 -4.28817,0.0149 -8.90076,15.66669 -3.83056,12.99818 -3.82973,13.01724 0.50432,11.50467 4.61077,-1.60917 13.13349,0.79481 13.0988,3.69473 -0.0114,0.95166 -3.62058,1.26731 -8.02045,0.70145 -4.39986,-0.56587 -9.00007,-0.70164 -10.22269,-0.3017 -3.6601,1.19725 -10.44695,14.76308 -11.32363,22.63412 -1.074854,9.6503 5.35185,21.26133 12.84829,23.2128 4.76855,1.24135 4.92137,1.51546 1.63115,2.92549 -4.68631,2.00833 -4.11413,6.74871 1.40013,11.5998 5.53289,4.86746 6.57229,5.03618 11.33578,1.84002 z"
     id="path3719" />
  <path
     style="fill:none;stroke:#000000;stroke-width:1.78024566;stroke-opacity:1"
     d="m 16.689284,113.40729 c 3.264876,-1.46686 5.87085,-4.15942 6.510796,-6.72709 0.798249,-3.20284 2.638216,-4.52119 7.304427,-5.23369 7.151033,-1.09192 12.438015,-4.32066 15.535583,-9.48749 3.388418,-5.65202 4.679378,-3.6777 2.724358,4.16648 -1.641995,6.58823 -1.357529,7.45149 3.480319,10.56169 5.896918,3.79105 10.107496,11.80287 8.893409,16.92225 -0.57032,2.40492 -0.134193,2.97721 1.514006,1.98667 1.273317,-0.76524 2.707122,-4.03367 3.186232,-7.26316 0.71805,-4.83993 -0.2969,-7.00673 -5.775466,-12.32999 -5.678978,-5.51799 -6.498616,-7.37736 -5.63014,-12.77213 0.725404,-4.50611 -0.263507,-8.23289 -3.453804,-13.01587 -2.458623,-3.68606 -4.690369,-9.65056 -4.959427,-13.25444 -0.529419,-7.09128 1.85388,-10.71008 12.372282,-18.78594 4.185719,-3.21372 5.907992,-6.70877 10.184125,-20.6669 4.06951,-13.28365 6.02448,-17.38733 9.34218,-19.6101401 4.82862,-3.23513 12.92825,-1.8663 15.05007,2.5434301 1.08884,2.26289 2.50732,2.81397 5.71357,2.2197 3.076026,-0.57016 6.132736,0.42252 10.964016,3.5606 6.04915,3.92912 6.54856,4.03647 5.14892,1.10677 -0.85247,-1.7844 -4.43923,-5.49411 -7.97056,-8.2438001 -5.49389,-4.27783 -7.691946,-5.02107 -15.228926,-5.14942 -4.8446,-0.0825 -10.96202,0.28427 -13.59428,0.81506 C 68.959854,6.5729899 56.505267,18.77616 44.227027,37.84206 37.787412,47.84161 27.85052,62.29016 22.144998,69.94995 9.9021635,86.38625 5.3070315,97.56527 7.8264125,104.78411 c 0.950366,2.72312 0.964109,6.04244 0.03055,7.37627 -2.447879,3.49744 2.3238325,4.1711 8.8323165,1.24692 z"
     id="path3711" />
  <path
     style="fill:none;stroke:#000000;stroke-width:1.78024566;stroke-opacity:1"
     d="m 88.008534,169.26734 c 2.61379,-1.68405 5.0789,-4.37213 5.47802,-5.97351 0.39912,-1.60139 1.30889,-2.76723 2.02171,-2.59072 0.7128,0.17662 2.47534,-4.29739 3.91669,-9.94197 3.349906,-13.11881 1.663656,-12.15187 -3.45321,1.98017 -2.90848,8.0328 -5.19012,11.6547 -8.49488,13.48493 -2.48509,1.3763 -4.70454,3.24939 -4.9321,4.16246 -0.60733,2.43678 0.19762,2.27158 5.46377,-1.12136 z"
     id="path3709" />
  <path
     style="fill:none;stroke:#000000;stroke-width:1.78024566;stroke-opacity:1"
     d="m 77.805104,169.16179 c 5.95884,-5.06277 9.91652,-12.45391 6.86452,-12.81979 -0.73486,-0.0881 -5.07031,2.42403 -9.63434,5.58255 -7.80871,5.40396 -8.16057,5.94722 -5.96463,9.20913 2.15671,3.2036 2.81887,3.05411 8.73445,-1.97189 z"
     id="path3707" />
  <path
     style="fill:none;stroke:#000000;stroke-width:1.78024566;stroke-opacity:1"
     d="m 50.397958,170.24585 c 5.322118,-1.27585 14.59688,-5.36281 20.610586,-9.08214 12.75907,-7.89117 35.116496,-27.80203 43.527806,-38.7646 3.22604,-4.20454 7.4516,-8.70882 9.39013,-10.00952 2.87036,-1.92592 3.24181,-2.95262 2.00115,-5.53107 -1.69638,-3.52555 0.89568,-3.64921 3.0028,-0.14323 1.97006,3.27806 7.44379,2.05219 7.23331,-1.61994 -0.0978,-1.70677 0.97231,-0.54611 2.3781,2.57924 2.607,5.79592 8.77302,9.08613 9.67766,5.16404 0.27512,-1.19279 -0.176,-5.84612 -1.00247,-10.34073 -1.95817,-10.64902 -0.77103,-10.13778 2.52828,1.08881 1.43996,4.89977 3.2757,9.07258 4.07942,9.27289 3.252,0.8105 4.21063,-2.85513 3.12467,-11.94817 -0.62891,-5.26598 -0.84257,-9.49951 -0.47482,-9.40785 0.36775,0.0917 1.67689,4.57658 2.90919,9.9665 1.23231,5.3899 3.15821,9.50658 4.27978,9.14815 2.62408,-0.8386 2.86831,-9.31747 0.63972,-22.20893 -1.30116,-7.5266 -2.65301,-10.29341 -5.35882,-10.96778 -9.75066,-2.43018 -34.56444,8.44124 -49.62828,21.74312 -5.26465,4.64887 -18.964176,13.95506 -30.443386,20.6804 -11.47921,6.72534 -23.084068,14.15326 -25.78857,16.50647 -4.762861,4.14419 -4.860483,4.14868 -3.108554,0.1426 1.033842,-2.36405 0.912792,-6.91383 -0.282538,-10.61997 -1.621533,-5.02761 -3.280211,-6.78032 -7.384635,-7.80327 -11.252883,-2.80458 -26.652272,5.52679 -26.63763,14.41145 0.0076,4.61143 20.220308,39.09197 23.276168,39.70646 0.975892,0.19623 6.128807,-0.68708 11.450933,-1.96293 z"
     id="path3705" />
  <path
     style="fill:none;stroke:#000000;stroke-width:1.78024566;stroke-opacity:1"
     d="M 27.597132,161.66796 C 23.14008,155.25941 16.870765,143.58309 13.665272,135.72057 10.459811,127.85805 6.1710105,118.78592 4.1346425,115.5603 c -3.92004901,-6.20937 -4.46422401,-12.35477 -0.632351,-7.14117 2.609787,3.55085 2.79186,2.67662 1.063655,-5.10712 C 2.6781365,94.80947 8.5864395,82.3078 24.313591,61.52692 30.812119,52.94019 39.227317,40.73461 43.01405,34.40343 50.69962,21.55365 65.870464,5.5324699 73.304714,2.4149499 c 4.64829,-1.94923001 9.0398,-2.00516001 24.17796,-0.30794 14.571926,1.63373 22.645736,13.7865301 28.412266,42.7665201 3.16851,15.92348 3.34687,20.49941 1.15091,29.52466 l -2.59877,10.68058 10.02076,-4.53084 c 5.51141,-2.49197 14.07551,-4.96972 19.03134,-5.5061 4.9558,-0.53639 15.65582,-3.72625 23.77781,-7.08859 14.35992,-5.94473 19.2653,-6.68993 20.41226,-3.10094 0.61622,1.92825 -10.09921,11.39734 -16.94017,14.96981 -3.37748,1.76379 -4.48082,3.66119 -4.87557,8.38455 -0.37669,4.50726 -1.2775,6.19906 -3.44222,6.4648 -2.37324,0.29135 -2.8358,1.41222 -2.4272,5.88143 0.86265,9.4354 -2.26972,12.52756 -15.29343,15.09711 -10.7821,2.12729 -12.42844,2.00856 -17.2762,-1.24593 -6.81613,-4.57595 -9.10111,-3.57526 -19.68235,8.6197 -5.38695,6.2085 -8.34286,11.27988 -9.21357,15.80747 -0.70509,3.66644 -2.93562,9.12944 -4.95673,12.14001 -2.89374,4.31038 -3.40661,6.29948 -2.41313,9.35891 1.63056,5.02124 1.23142,6.38191 -1.343456,4.57973 -1.22996,-0.86085 -3.98839,0.65818 -6.79359,3.74118 -5.53928,6.08783 -11.88548,8.36551 -13.06086,4.68759 -0.55125,-1.72491 -1.24326,-1.95134 -2.42892,-0.79479 -0.91195,0.88954 -1.36936,2.52074 -1.0165,3.62489 1.23368,3.86036 -5.42504,2.73987 -8.25437,-1.38902 -2.22897,-3.25276 -3.138908,-3.6794 -4.244517,-1.99013 -1.090887,1.66679 -1.584599,1.59545 -2.195855,-0.31726 -0.589334,-1.84411 -2.977537,-1.80087 -9.452765,0.17117 -12.341259,3.7585 -15.50936,2.35532 -24.780792,-10.97558 z"
     id="path3638" />
</svg>
