<?xml version="1.0" encoding="UTF-8" standalone="no"?>
<!-- Created with Inkscape (http://www.inkscape.org/) -->

<svg
   xmlns:dc="http://purl.org/dc/elements/1.1/"
   xmlns:cc="http://creativecommons.org/ns#"
   xmlns:rdf="http://www.w3.org/1999/02/22-rdf-syntax-ns#"
   xmlns:svg="http://www.w3.org/2000/svg"
   xmlns="http://www.w3.org/2000/svg"
   xmlns:sodipodi="http://sodipodi.sourceforge.net/DTD/sodipodi-0.dtd"
   xmlns:inkscape="http://www.inkscape.org/namespaces/inkscape"
   width="210mm"
   height="297mm"
   viewBox="0 0 210 297"
   version="1.1"
   id="svg8"
   inkscape:version="0.92.4 (5da689c313, 2019-01-14)"
   sodipodi:docname="drawing.svg">
  <defs
     id="defs2" />
  <sodipodi:namedview
     id="base"
     pagecolor="#ffffff"
     bordercolor="#666666"
     borderopacity="1.0"
     inkscape:pageopacity="0.0"
     inkscape:pageshadow="2"
     inkscape:zoom="0.35"
     inkscape:cx="-64.285714"
     inkscape:cy="560"
     inkscape:document-units="mm"
     inkscape:current-layer="layer1"
     showgrid="false"
     inkscape:window-width="1920"
     inkscape:window-height="1017"
     inkscape:window-x="-8"
     inkscape:window-y="-8"
     inkscape:window-maximized="1" />
  <metadata
     id="metadata5">
    <rdf:RDF>
      <cc:Work
         rdf:about="">
        <dc:format>image/svg+xml</dc:format>
        <dc:type
           rdf:resource="http://purl.org/dc/dcmitype/StillImage" />
        <dc:title></dc:title>
      </cc:Work>
    </rdf:RDF>
  </metadata>
  <g
     inkscape:label="Layer 1"
     inkscape:groupmode="layer"
     id="layer1">
    <path
       sodipodi:type="spiral"
       style="fill:none;fill-rule:evenodd;stroke:#000000;stroke-width:0.26458332"
       id="path4520"
       sodipodi:cx="111.125"
       sodipodi:cy="160.17262"
       sodipodi:expansion="1"
       sodipodi:revolution="3"
       sodipodi:radius="54.475796"
       sodipodi:argument="-20.461994"
       sodipodi:t0="0"
       d="m 111.125,160.17262 c -0.1137,-2.72896 3.62249,-1.49964 4.53571,-0.18898 2.47479,3.55181 -0.69018,7.9954 -4.15774,9.26041 -6.20265,2.26282 -12.463406,-2.56349 -13.985113,-8.50447 -2.233165,-8.71863 4.442743,-17.00995 12.851203,-18.70981 11.20716,-2.26566 21.58671,6.32154 23.43451,17.19793 2.32527,13.68682 -8.1995,26.17845 -21.54466,28.15921 -16.16277,2.39896 -30.778743,-10.07688 -32.88391,-25.89139 -2.480866,-18.63686 11.953855,-35.38439 30.23812,-37.60861 21.10991,-2.56795 39.9936,13.83057 42.33331,34.58485 2.65852,23.58232 -15.70712,44.60531 -38.93158,47.058 -26.054335,2.75155 -49.218853,-17.58353 -51.782706,-43.2783 -2.846364,-28.52607 19.45986,-53.83376 47.625036,-56.50741" />
  </g>
</svg>
