<?xml version="1.0" encoding="UTF-8" standalone="no"?>
<!-- Created with Inkscape (http://www.inkscape.org/) -->

<svg
   xmlns:dc="http://purl.org/dc/elements/1.1/"
   xmlns:cc="http://creativecommons.org/ns#"
   xmlns:rdf="http://www.w3.org/1999/02/22-rdf-syntax-ns#"
   xmlns:svg="http://www.w3.org/2000/svg"
   xmlns="http://www.w3.org/2000/svg"
   xmlns:sodipodi="http://sodipodi.sourceforge.net/DTD/sodipodi-0.dtd"
   xmlns:inkscape="http://www.inkscape.org/namespaces/inkscape"
   width="210mm"
   height="297mm"
   viewBox="0 0 210 297"
   version="1.1"
   id="svg8"
   inkscape:version="0.92.4 (5da689c313, 2019-01-14)"
   sodipodi:docname="Drawbot.svg">
  <defs
     id="defs2" />
  <sodipodi:namedview
     id="base"
     pagecolor="#ffffff"
     bordercolor="#666666"
     borderopacity="1.0"
     inkscape:pageopacity="0.0"
     inkscape:pageshadow="2"
     inkscape:zoom="1.979899"
     inkscape:cx="435.9006"
     inkscape:cy="533.2086"
     inkscape:document-units="mm"
     inkscape:current-layer="layer1"
     showgrid="false"
     inkscape:window-width="1920"
     inkscape:window-height="1017"
     inkscape:window-x="-8"
     inkscape:window-y="-8"
     inkscape:window-maximized="1" />
  <metadata
     id="metadata5">
    <rdf:RDF>
      <cc:Work
         rdf:about="">
        <dc:format>image/svg+xml</dc:format>
        <dc:type
           rdf:resource="http://purl.org/dc/dcmitype/StillImage" />
        <dc:title />
      </cc:Work>
    </rdf:RDF>
  </metadata>
  <g
     inkscape:label="Layer 1"
     inkscape:groupmode="layer"
     id="layer1">
    <path
       style="fill:none;fill-rule:evenodd;stroke:#000000;stroke-width:3.77952766;stroke-miterlimit:4;stroke-dasharray:none"
       d="M 420.81836 446.1543 C 378.2591 446.16948 337.86653 474.05518 327.25781 517.23242 C 316.19249 562.26805 342.9393 610.93487 388.89062 621.79883 L 401.25195 583.41992 C 376.16297 579.53269 361.13297 553.67074 365.63672 529.5918 C 371.30422 499.2909 402.82593 481.34982 432.15039 487.47266 C 467.66624 494.88824 488.53365 532.10528 480.77344 566.66992 C 471.6283 607.40316 428.69412 631.20785 388.89258 621.79883 C 388.89258 621.79883 388.89062 621.79883 388.89062 621.79883 L 376.53125 660.17773 C 437.26376 676.23931 503.17538 640.64634 519.1543 579.0293 C 533.54726 523.52792 500.9044 463.36987 444.50977 449.0918 C 436.65518 447.10316 428.6997 446.15148 420.81836 446.1543 z M 401.25195 583.41992 C 420.07562 586.33642 440.35088 574.18999 442.39453 554.31055 C 443.7871 540.76445 434.45147 525.90108 419.79102 525.85156 C 411.59516 525.82388 401.58759 532.65065 404.01562 541.95117 C 404.9116 545.38318 411.75228 550.81384 413.61133 545.04102 L 401.25195 583.41992 z M 490.4082 683.54688 C 488.40299 683.54688 486.54753 683.88542 484.8418 684.5625 C 483.14909 685.23958 481.72982 686.21615 480.58398 687.49219 C 479.38607 688.83333 478.47461 690.44792 477.84961 692.33594 C 477.22461 694.21094 476.91211 696.33333 476.91211 698.70312 C 476.91211 701.11198 477.22461 703.25391 477.84961 705.12891 C 478.48763 707.00391 479.39258 708.58594 480.56445 709.875 C 481.73633 711.16406 483.1556 712.14714 484.82227 712.82422 C 486.50195 713.5013 488.36393 713.83984 490.4082 713.83984 C 492.50456 713.83984 494.36654 713.50781 495.99414 712.84375 C 497.63477 712.17969 499.05404 711.1901 500.25195 709.875 C 501.41081 708.61198 502.30924 707.03646 502.94727 705.14844 C 503.59831 703.2474 503.92383 701.09896 503.92383 698.70312 C 503.92383 696.30729 503.60482 694.16536 502.9668 692.27734 C 502.3418 690.38932 501.43685 688.79427 500.25195 687.49219 C 499.0931 686.22917 497.68034 685.25911 496.01367 684.58203 C 494.36003 683.89193 492.49154 683.54688 490.4082 683.54688 z M 312.47852 684.15234 L 312.47852 713.23438 L 319.82227 713.23438 C 322.49154 713.23438 324.63997 713.05208 326.26758 712.6875 C 327.9082 712.32292 329.39258 711.73047 330.7207 710.91016 C 332.63477 709.72526 334.16471 708.05859 335.31055 705.91016 C 336.4694 703.76172 337.04883 701.36589 337.04883 698.72266 C 337.04883 695.89714 336.49544 693.45573 335.38867 691.39844 C 334.2819 689.34115 332.73893 687.69401 330.75977 686.45703 C 329.60091 685.74089 328.18164 685.18099 326.50195 684.77734 C 324.83529 684.36068 322.58268 684.15234 319.74414 684.15234 L 312.47852 684.15234 z M 343.33789 684.15234 L 343.33789 713.23438 L 347.20508 713.23438 L 347.20508 701.67188 L 352.6543 701.67188 L 362.38086 713.23438 L 367.40039 713.23438 L 356.46289 700.51953 C 358.31185 699.80339 359.76367 698.74219 360.81836 697.33594 C 361.87305 695.91667 362.40039 694.15885 362.40039 692.0625 C 362.40039 690.51302 362.10091 689.23698 361.50195 688.23438 C 360.91602 687.21875 360.0957 686.37891 359.04102 685.71484 C 358.10352 685.12891 357.04883 684.72526 355.87695 684.50391 C 354.70508 684.26953 353.24023 684.15234 351.48242 684.15234 L 343.33789 684.15234 z M 378.33789 684.15234 L 367.75195 713.23438 L 371.67773 713.23438 L 374.5293 705.12891 L 387.10742 705.12891 L 389.95898 713.23438 L 394.08008 713.23438 L 383.49414 684.15234 L 378.33789 684.15234 z M 395.44727 684.15234 L 403.14258 713.23438 L 407.40039 713.23438 L 413.37695 689.09375 L 419.49023 713.23438 L 423.8457 713.23438 L 431.4043 684.15234 L 427.61523 684.15234 L 421.54102 708.56641 L 415.4668 684.15234 L 411.54102 684.15234 L 405.52539 708.33203 L 399.41211 684.15234 L 395.44727 684.15234 z M 451.15039 684.15234 L 451.15039 713.23438 L 461.46289 713.23438 C 463.48112 713.23438 465.14128 713.05208 466.44336 712.6875 C 467.75846 712.32292 468.96289 711.71094 470.05664 710.85156 C 470.98112 710.13542 471.7168 709.22396 472.26367 708.11719 C 472.81055 707.01042 473.08398 705.73437 473.08398 704.28906 C 473.08398 702.27083 472.51758 700.60417 471.38477 699.28906 C 470.25195 697.96094 468.70247 697.09505 466.73633 696.69141 L 466.73633 696.53516 C 467.9082 695.94922 468.8457 695.17448 469.54883 694.21094 C 470.25195 693.23438 470.60352 692.05599 470.60352 690.67578 C 470.60352 689.45182 470.36263 688.40365 469.88086 687.53125 C 469.39909 686.64583 468.62435 685.92318 467.55664 685.36328 C 466.5931 684.86849 465.58398 684.54297 464.5293 684.38672 C 463.47461 684.23047 461.88607 684.15234 459.76367 684.15234 L 451.15039 684.15234 z M 505.21289 684.15234 L 505.21289 687.58984 L 515.60352 687.58984 L 515.60352 713.23438 L 519.4707 713.23438 L 519.4707 687.58984 L 529.86133 687.58984 L 529.86133 684.15234 L 505.21289 684.15234 z M 490.42773 686.88672 C 493.35742 686.88672 495.66862 687.91536 497.36133 689.97266 C 499.05404 692.01693 499.90039 694.92708 499.90039 698.70312 C 499.90039 702.51823 499.04102 705.44141 497.32227 707.47266 C 495.61654 709.49089 493.31836 710.5 490.42773 710.5 C 487.53711 710.5 485.23242 709.49089 483.51367 707.47266 C 481.79492 705.44141 480.93555 702.51823 480.93555 698.70312 C 480.93555 694.92708 481.77539 692.01693 483.45508 689.97266 C 485.14779 687.91536 487.47201 686.88672 490.42773 686.88672 z M 455.01758 687.45312 L 459.62695 687.45312 C 460.91602 687.45312 461.99674 687.4987 462.86914 687.58984 C 463.74154 687.66797 464.48372 687.88281 465.0957 688.23438 C 465.61654 688.53385 465.99414 688.92448 466.22852 689.40625 C 466.46289 689.88802 466.58008 690.48047 466.58008 691.18359 C 466.58008 692.02995 466.44987 692.76563 466.18945 693.39062 C 465.94206 694.0026 465.51237 694.50391 464.90039 694.89453 C 464.28841 695.28516 463.62435 695.54557 462.9082 695.67578 C 462.19206 695.79297 461.22852 695.85156 460.01758 695.85156 L 455.01758 695.85156 L 455.01758 687.45312 z M 316.3457 687.47266 L 319.97852 687.47266 C 321.77539 687.47266 323.31836 687.60286 324.60742 687.86328 C 325.89648 688.11068 327.11393 688.5599 328.25977 689.21094 C 329.83529 690.10937 331.02018 691.33984 331.81445 692.90234 C 332.60872 694.46484 333.00586 696.38542 333.00586 698.66406 C 333.00586 700.92969 332.64128 702.81771 331.91211 704.32812 C 331.19596 705.83854 330.11523 707.05599 328.66992 707.98047 C 327.51107 708.72266 326.23503 709.23047 324.8418 709.50391 C 323.46159 709.77734 321.84049 709.91406 319.97852 709.91406 L 316.3457 709.91406 L 316.3457 687.47266 z M 347.20508 687.47266 L 351.75586 687.47266 C 352.79753 687.47266 353.70247 687.55078 354.4707 687.70703 C 355.23893 687.85026 355.90299 688.11068 356.46289 688.48828 C 357.13997 688.93099 357.62174 689.47786 357.9082 690.12891 C 358.20768 690.76693 358.35742 691.5026 358.35742 692.33594 C 358.35742 693.42969 358.21419 694.33464 357.92773 695.05078 C 357.6543 695.75391 357.22461 696.37891 356.63867 696.92578 C 356.00065 697.51172 355.22591 697.91536 354.31445 698.13672 C 353.40299 698.34505 352.33529 698.44922 351.11133 698.44922 L 347.20508 698.44922 L 347.20508 687.47266 z M 380.81836 687.53125 L 385.91602 701.80859 L 375.70117 701.80859 L 380.81836 687.53125 z M 455.01758 699.11328 L 461.0918 699.11328 C 462.36784 699.11328 463.44857 699.16536 464.33398 699.26953 C 465.23242 699.36068 465.99414 699.56901 466.61914 699.89453 C 467.54362 700.3763 468.18164 700.96224 468.5332 701.65234 C 468.88477 702.34245 469.06055 703.27344 469.06055 704.44531 C 469.06055 705.47396 468.89128 706.3138 468.55273 706.96484 C 468.21419 707.61589 467.68034 708.19531 466.95117 708.70312 C 466.26107 709.17187 465.37565 709.4974 464.29492 709.67969 C 463.21419 709.84896 461.82747 709.93359 460.13477 709.93359 L 455.01758 709.93359 L 455.01758 699.11328 z "
       transform="scale(0.26458333)"
       id="path815" />
  </g>
</svg>
