<?xml version="1.0" encoding="UTF-8" standalone="no"?>
<svg
   xmlns:dc="http://purl.org/dc/elements/1.1/"
   xmlns:cc="http://creativecommons.org/ns#"
   xmlns:rdf="http://www.w3.org/1999/02/22-rdf-syntax-ns#"
   xmlns:svg="http://www.w3.org/2000/svg"
   xmlns="http://www.w3.org/2000/svg"
   xmlns:sodipodi="http://sodipodi.sourceforge.net/DTD/sodipodi-0.dtd"
   xmlns:inkscape="http://www.inkscape.org/namespaces/inkscape"
   viewBox="0 0 428.38 428.24"
   version="1.1"
   id="svg89"
   sodipodi:docname="gopro.svg"
   inkscape:version="0.92.4 (5da689c313, 2019-01-14)">
  <metadata
     id="metadata93">
    <rdf:RDF>
      <cc:Work
         rdf:about="">
        <dc:format>image/svg+xml</dc:format>
        <dc:type
           rdf:resource="http://purl.org/dc/dcmitype/StillImage" />
      </cc:Work>
    </rdf:RDF>
  </metadata>
  <sodipodi:namedview
     pagecolor="#ffffff"
     bordercolor="#666666"
     borderopacity="1"
     objecttolerance="10"
     gridtolerance="10"
     guidetolerance="10"
     inkscape:pageopacity="0"
     inkscape:pageshadow="2"
     inkscape:window-width="1920"
     inkscape:window-height="1017"
     id="namedview91"
     showgrid="false"
     inkscape:zoom="0.77936299"
     inkscape:cx="214.9387"
     inkscape:cy="74.809032"
     inkscape:window-x="1912"
     inkscape:window-y="-8"
     inkscape:window-maximized="1"
     inkscape:current-layer="svg89" />
  <defs
     id="defs4">
    <style
       id="style2">.cls-1,.cls-2{fill:none;stroke:#231f20;stroke-miterlimit:10;}.cls-2{opacity:0.5;}</style>
  </defs>
  <title
     id="title6">gopro</title>
  <g
     id="outline"
     transform="matrix(0.67600614,0,0,0.64868182,63.498043,80.751252)" />
  <g
     id="lens"
     transform="matrix(0.67600614,0,0,0.64868182,63.498043,80.751252)" />
  <g
     id="lens2"
     transform="matrix(0.67600614,0,0,0.64868182,63.498043,80.751252)" />
  <g
     id="lens3"
     transform="matrix(0.67600614,0,0,0.64868182,63.498043,80.751252)" />
  <g
     id="lens4" />
  <g
     id="lens5" />
  <g
     id="lens6"
     transform="matrix(0.67600614,0,0,0.64868182,63.498043,80.751252)" />
  <g
     id="lens_glass"
     data-name="lens glass"
     transform="matrix(0.67600614,0,0,0.64868182,63.498043,80.751252)" />
  <g
     id="top_button_and_small_screen"
     data-name="top button and small screen"
     transform="matrix(0.67600614,0,0,0.64868182,63.498043,80.751252)">
    <g
       id="lines_gradiant"
       data-name="lines gradiant" />
  </g>
  <g
     id="door"
     transform="matrix(0.67600614,0,0,0.64868182,63.498043,80.751252)" />
  <path
     style="fill:none;stroke:#231f20;stroke-width:0.99783367;stroke-miterlimit:10"
     d="m 249.1023,367.05331 c 0.29467,15.37109 -0.40871,32.39744 -9.81846,45.26474 M 51.199461,45.230707 c 44.94445,15.437828 90.191379,30.078313 134.943969,46.02196 40.69654,19.637363 63.00378,66.274013 60.865,110.294363 0.0341,1.46833 0.0682,2.93667 0.1023,4.405 m 157.93193,-12.68852 c 8.5544,-1.09322 2.38755,12.5348 4.25201,18.13152 2.57972,6.30419 -3.13101,19.49467 -4.25201,7.43987 0,-8.5238 0,-17.04759 0,-25.57139 z m -6.44275,-13.86838 c 8.14641,-0.86086 19.22627,-0.9288 16.01226,10.38224 0,14.1672 0,28.33441 0,42.50161 -3.77892,5.18734 -22.20209,5.95923 -19.12908,-4.83507 0,-14.97305 0,-29.9461 0,-44.91915 l 0.91089,-2.21499 z m -9.81848,-35.95583 c -2.28699,48.76434 -4.57398,97.52867 -6.86097,146.29301 m -133.02727,60.37297 c 6.89085,-3.19963 13.7817,-6.39925 20.67255,-9.59888 0,4.87943 0,9.75887 0,14.6383 m -22.5048,-126.13535 c 7.5016,-3.55625 15.0032,-7.11251 22.5048,-10.66876 -0.69373,-7.12917 -1.38747,-14.25834 -2.0812,-21.38751 M 249.1023,367.05331 c -0.68045,-53.69376 -1.36091,-107.38752 -2.04136,-161.08128 59.56802,-26.28695 119.13603,-52.57389 178.70405,-78.86084 -3.68109,47.84111 -7.36219,95.68222 -11.04328,143.52333 -55.20647,32.1396 -110.41294,64.27919 -165.61941,96.41879 z M 229.18655,6.5452015 c -9.74212,2.8463358 -19.48425,5.6926715 -29.22637,8.5390075 36.1305,9.192265 72.26099,18.384531 108.39149,27.576796 10.80098,-3.146301 21.60195,-6.292602 32.40293,-9.438903 -37.18935,-8.8923 -74.3787,-17.7846 -111.56805,-26.6769005 z m -2.37993,34.7359635 c -5.74089,9.141388 -20.05987,7.163507 -29.59405,7.135535 -5.74191,0.788402 -23.17853,-5.378565 -12.10277,-11.352924 12.83944,-4.360212 29.15663,-5.517329 40.86437,2.219405 0.47518,0.550127 0.83642,1.256058 0.83245,1.997984 z m 24.69553,1.37984 c -11.31531,19.156337 -40.91697,15.323361 -60.41366,15.140324 -12.14013,1.613354 -47.29345,-11.611951 -24.70673,-24.088868 25.18458,-9.534301 55.5739,-10.156967 80.04709,1.759881 2.42492,1.638826 5.04254,4.018147 5.0733,7.188663 z M 249.1023,367.05331 c 55.20647,-32.14293 110.41294,-64.28586 165.61941,-96.42879 -0.81283,11.77288 -0.22597,24.5131 -10.70202,32.78527 -23.51202,20.42821 -51.66658,34.90324 -77.23554,52.63858 -29.13857,18.80553 -58.31412,37.5537 -87.51027,56.26968 4.3474,-10.50647 9.48701,-20.8264 8.82262,-32.51304 0.33527,-4.25056 0.67053,-8.50113 1.0058,-12.7517 z M 52.245038,44.400803 C 97.502978,60.357625 143.0633,75.5736 188.13139,91.995547 c 37.87901,18.699613 61.31296,60.680143 58.76569,102.650493 -1.72117,10.24789 1.24843,13.18375 10.11695,6.92432 56.25032,-24.81972 112.50064,-49.63945 168.75096,-74.45917 2.91837,-35.60817 -7.117,-79.144139 -42.09859,-95.75338 C 334.47339,20.763877 285.28037,10.169944 236.08736,-0.4239887 174.80659,14.517609 113.52581,29.459206 52.245038,44.400803 Z M 161.17425,130.31082 c 12.88236,12.63726 28.0079,32.31898 26.95211,49.0843 -16.9078,4.70331 -13.01102,-19.74895 -22.95184,-27.90801 -4.92815,-6.62784 -16.71966,-14.1049 -4.00027,-21.17629 z M 12.941299,127.11119 c 4.959022,-8.8923 9.918045,-17.7846 14.877067,-26.6769 37.099728,13.99837 74.199454,27.99675 111.299184,41.99512 28.81539,11.76657 34.33759,44.41978 33.82193,71.96403 2.7429,55.29925 5.32725,110.62925 7.27876,165.95118 1.13569,28.99668 -28.43208,17.3547 -39.87125,3.17073 C 107.37528,359.36966 74.579355,334.62169 41.45632,310.92534 27.359443,285.66528 30.104045,255.2063 25.390354,227.3723 21.477786,193.92306 17.277305,160.50796 12.941299,127.11119 Z m 102.605961,108.4274 c 1.13001,5.2296 -6.57542,8.99118 -8.09794,2.8165 -3.28738,-5.31702 4.96798,-13.43805 7.6321,-5.633 0.31596,0.90287 0.4652,1.86104 0.46584,2.8165 z m 11.56614,-5.6828 c 4.85697,11.56917 3.6446,34.60746 -13.17553,33.93231 -20.007953,-5.65032 -29.750153,-34.32922 -18.858015,-51.62296 12.349685,-13.6413 28.873695,5.7906 32.033545,17.69065 z m 8.82499,-3.26266 c 7.36299,18.82122 10.92487,60.91205 -18.39957,60.10661 -28.112249,-10.122 -39.671885,-44.15699 -40.327313,-71.73125 -5.091333,-26.35805 27.632753,-41.97274 42.234643,-17.71054 7.49233,8.47078 12.82677,18.68552 16.49224,29.33518 z m 30.404,89.72608 c -1.19533,-12.04306 -2.26034,-23.96541 -1.0157,-36.27579 -3.41111,-19.64369 -3.07088,-39.39782 -2.76829,-59.22674 -0.84332,-17.01163 3.92594,-36.14787 -9.46111,-49.83599 C 136.91931,157.57904 115.16427,151.97063 95.833154,143.98673 81.36139,133.85121 60.004439,132.79044 50.7517,150.58317 c -15.145482,28.75949 -9.719842,63.48325 -2.043018,93.68489 10.999015,36.04032 33.954245,70.9077 68.289878,88.07929 16.12304,7.14292 43.88753,0.84227 49.34383,-16.02814 z M 74.739881,136.02016 C 62.667615,130.91742 50.59535,125.81468 38.523084,120.71194 c -3.805021,7.17999 -12.622261,13.11771 -9.345076,22.05301 5.5545,47.63312 10.900376,95.34609 16.582819,142.92903 8.031438,22.90359 34.416678,29.23755 51.465192,43.59032 20.663081,13.35675 39.749671,30.00976 60.548241,42.54502 19.61656,-9.45617 6.2504,-38.20332 8.57788,-56.0083 -2.41093,-41.67041 -2.84815,-83.53187 -6.15034,-125.0967 -8.81151,-37.76084 -60.18854,-37.78156 -85.461919,-54.70416 z m -61.798582,-8.90897 c 4.959022,-8.8923 9.918045,-17.7846 14.877067,-26.6769 39.137775,14.76162 78.275554,29.52324 117.413324,44.28486 25.85719,16.65789 27.98544,49.94674 28.68477,77.68708 2.4536,53.90512 5.30897,107.87008 6.097,161.8004 -4.17121,30.27008 -36.0921,3.80196 -47.8667,-6.77545 C 102.0409,354.37522 70.549955,332.97687 40.967354,309.35656 25.138526,289.20562 31.560285,262.07306 27.064991,238.51965 23.030378,201.30241 18.075567,164.19045 12.941299,127.11119 Z m 22.574506,-7.7391 c 36.170339,15.52094 72.608775,30.46806 108.609315,46.35242 21.62317,16.87212 16.35976,47.18065 18.37758,71.28434 1.35263,43.5725 4.83245,87.26411 5.29167,130.74327 -20.17826,10.85574 -40.08979,-19.8811 -58.72917,-27.40054 C 89.245082,326.53248 68.463203,313.85356 49.000948,299.67473 37.279818,279.48126 40.641616,254.81226 36.512915,232.50647 32.790116,199.5861 28.931702,166.68121 25.040119,133.78042 c 3.491895,-4.80278 6.983791,-9.60555 10.475686,-14.40833 z M 25.020203,63.738556 c 7.172991,2.453048 14.345981,4.906097 21.518972,7.359145 C 43.203855,60.494122 34.899679,54.062229 25.020203,63.738556 Z M 249.11226,349.58534 c 5.26948,-0.9884 16.14481,-10.8847 17.79473,-6.12147 0,4.41021 0,8.82043 0,13.23065 M 249.1023,224.73985 c 5.31692,-4.20758 16.04873,-5.09642 17.80469,-11.48649 0,-5.34677 0,-10.69354 0,-16.04031 M 249.1023,367.05331 c 55.20647,-32.13959 110.41295,-64.27919 165.61942,-96.41878 M 247.06094,205.97202 c 59.56802,-26.28694 119.13603,-52.57389 178.70405,-78.86083 M 25.020203,64.088515 c 42.284462,15.761502 84.568927,31.523003 126.853387,47.284505 34.2379,21.0841 54.62656,61.01107 53.17631,101.0295 2.17377,61.49834 3.92233,123.10098 3.84001,184.60419 -1.10588,7.92406 -1.97566,16.02633 -4.81713,23.56038 M 39.100641,58.329185 C 82.710144,74.04397 126.58399,89.12392 170.02874,105.23436 c 35.48802,18.26926 53.35557,59.33815 51.4665,98.04865 1.46752,63.26029 3.72537,126.56553 4.17431,189.81212 -1.5672,11.85596 -8.91762,23.09355 -20.19271,27.75193 m 32.34319,-7.58912 c 15.52198,-17.91207 10.44089,-43.64235 11.11345,-65.74809 -0.87561,-56.19484 -0.9863,-112.45221 -2.60919,-168.60541 C 240.82541,138.18912 214.94395,97.131635 173.33998,86.339055 132.34321,72.382266 91.289474,58.593054 50.203673,44.900745 m -4.590581,1.11987 C 109.10451,30.53908 172.59594,15.057546 236.08736,-0.4239887 285.67427,10.241439 335.26117,20.906866 384.84808,31.572294 418.13719,52.195045 432.395,94.329357 425.3942,131.89203 c -4.03879,52.5101 -8.07759,105.0202 -12.11638,157.5303 -13.59934,25.75824 -42.18284,36.85766 -64.88937,52.98346 -39.06909,24.81233 -77.92242,50.32818 -117.11858,74.71823 -8.11606,9.51214 -20.80453,2.07683 -29.73184,5.31223 -19.521,13.19623 -37.39068,-7.70314 -52.55222,-17.90729 -12.67657,0.87334 -13.88743,-16.28134 -25.62704,-20.09159 C 105.30695,371.16355 87.255124,357.88974 69.203302,344.61592 59.132706,342.51845 54.385033,330.53707 45.45744,324.99117 28.682348,311.40169 22.651951,288.49817 19.319806,267.99929 18.758631,256.90747 15.863812,247.11641 16.312428,236.01766 12.879741,206.98356 7.8244204,177.95791 5.4062761,148.91853 -1.8346666,140.05653 5.9368004,128.44027 3.0994061,117.38346 2.0991651,102.30344 0.00682348,86.991563 4.9809096,72.364741 15.619302,58.40998 42.359249,66.957225 45.613092,46.020615 Z"
     id="path86"
     inkscape:connector-curvature="0" />
</svg>
