<?xml version="1.0" encoding="UTF-8"?>
<svg width="210mm" height="297mm" version="1.1" viewBox="0 0 210 297" xmlns="http://www.w3.org/2000/svg" xmlns:cc="http://creativecommons.org/ns#" xmlns:dc="http://purl.org/dc/elements/1.1/" xmlns:rdf="http://www.w3.org/1999/02/22-rdf-syntax-ns#">
 <metadata>
  <rdf:RDF>
   <cc:Work rdf:about="">
    <dc:format>image/svg+xml</dc:format>
    <dc:type rdf:resource="http://purl.org/dc/dcmitype/StillImage"/>
    <dc:title/>
   </cc:Work>
  </rdf:RDF>
 </metadata>
 <path d="m123.32 202.94s0.97894 15.128-4.8262 22.25m-92.452-180.44 63.886 21.625s26.06 8.2029 32.114 44.519l0.29858 12.857m77.63-6.237h2.09v14.946h-2.09zm-3.1669-6.8169h6.3387c0.84874 0 1.532 0.68611 1.532 1.5384v24.456c0 0.85225-0.6833 1.5384-1.532 1.5384h-6.3387c-0.84875 0-1.532-0.68611-1.532-1.5384v-24.456c0-0.85224 0.6833-1.5384 1.532-1.5384zm-4.8262-17.674-3.3725 71.909m-65.389 29.676 10.161-4.7183v7.1954m-11.062-62.001 11.062-5.2442-1.023-10.513m-9.0357 83.612-1.0034-79.178 87.841-38.764-5.4283 70.548zm-9.7895-177.21-14.366 4.1973 53.279 13.555 15.927-4.6396zm-1.1698 17.074a11.229 3.6714 0 0 1-11.229 3.6714 11.229 3.6714 0 0 1-11.229-3.6714 11.229 3.6714 0 0 1 11.229-3.6714 11.229 3.6714 0 0 1 11.229 3.6714zm12.139 0.67825a22.922 7.7901 0 0 1-22.922 7.7901 22.922 7.7901 0 0 1-22.922-7.7901 22.922 7.7901 0 0 1 22.922-7.7901 22.922 7.7901 0 0 1 22.922 7.7901zm-1.1796 159.45 81.409-47.399-0.70973 9.2399a27.508 27.622 0 0 1-8.6833 10.611c-6.2016 4.5364-76.847 49.797-76.847 49.797l3.8228-9.466zm-96.764-158.6 65.521 22.795s29.608 12.361 30.108 47.492l0.13215 9.1269 87.841-38.759s3.9158-34.355-20.112-46.942l-73.122-15.747zm8.3308 147.58m45.213-105.36s12.271 11.014 13.842 24.127h-5.487s-4.4395-14.16-10.705-18.357c0 0-1.8649-3.347 2.3495-5.7701zm-72.863-1.5728 7.3127-13.113 54.708 20.642a27.411 27.523 0 0 1 15.913 23.405c1.2824 17.61 4.3318 92.852 4.3318 92.852s-0.44053 16.44-12.163 7.7704c-11.723-8.6698-54.332-40.071-54.332-40.071s-5.1248 0.52097-7.6456-24.083c-2.5208-24.604-8.1253-67.402-8.1253-67.402zm50.435 53.297a2.1047 3.0521 0 0 1-2.1047 3.0521 2.1047 3.0521 0 0 1-2.1047-3.0521 2.1047 3.0521 0 0 1 2.1047-3.0521 2.1047 3.0521 0 0 1 2.1047 3.0521zm5.6853-2.7934a14.311 8.8828 71.282 0 1-3.7875 16.432 14.311 8.8828 71.282 0 1-13.015-10.662 14.311 8.8828 71.282 0 1 3.7875-16.432 14.311 8.8828 71.282 0 1 13.015 10.662zm4.3379-1.6037a26.175 13.961 71.249 0 1-4.7652 29.312 26.175 13.961 71.249 0 1-21.643-20.243 26.175 13.961 71.249 0 1 4.7652-29.312 26.175 13.961 71.249 0 1 21.643 20.243zm14.945 44.104a23.059 23.154 0 0 1-0.14684-2.8015c-0.02449-0.83061-0.04404-1.6612-0.05387-2.4968a3.1473 3.1603 0 0 1-0.58247-1.9217c0-3.5387 0.14195-7.0774 0.28389-10.611-0.48947-6.6596-2.2271-13.531-1.3607-20.2v-24.083c-0.837-2.9243-1.9922-5.7504-3.4948-7.8638a18.6 18.676 0 0 0-4.0773-4.158c-1.8355-0.78637-3.6613-1.5875-5.4527-2.4083-4.6892-2.1527-9.3-4.3644-14.141-6.1436-3.764-1.327-7.5672-2.6049-11.067-4.3742a36.887 37.038 0 0 0-3.9549-1.1746 3.3676 3.3814 0 0 1-0.97895-0.38828s-19.672-1.2975-15.952 36.861c3.72 38.159 29.187 55.066 29.187 55.066s15.105 14.528 31.737-1.3958l0.20558-0.21134c-0.05387-0.56521-0.11258-1.1304-0.15174-1.6956zm-45.027-88.625-17.802-7.5247-5.0024 7.2986 8.1791 70.838s-0.93489 8.1292 11.899 15.472c12.834 7.3428 42.452 29.632 42.452 29.632s7.0631 2.6393 6.1527-11.28c-0.91043-13.919-3.3921-74.214-3.3921-74.214s0-13.639-15.663-19.168a255.78 256.84 0 0 1-26.823-11.054zm-30.377-4.3792 7.3127-13.113 57.714 21.768s11.747 6.237 13.319 25.798c1.5712 19.561 3.9158 89.323 3.9158 89.323s0.69505 17.831-15.061 5.77c-15.756-12.061-51.013-37.766-51.013-37.766s-7.577-4.4578-7.8316-19.404c-0.25453-14.946-8.3553-72.376-8.3553-72.376zm75.35 94.911m-64.253-98.715 51.909 22.028s9.3979 2.9489 9.9853 21.832c0.58736 18.883 3.3333 75.325 3.3333 75.325s1.9579 11.014-13.705 0c-15.663-11.014-44.302-29.892-44.302-29.892s-3.6857-3.1455-4.6647-14.356c-0.97894-11.211-7.7043-67.855-7.7043-67.855zm-5.159-27.346 10.578 3.6173-3.0935-5.7012s-5.7219-0.62419-7.484 2.0839zm110.15 140.51 8.7469-4.1973v7.6918m-8.7518-64.862 8.7518-4.4578v-9.0728m-8.7518 83.484 81.409-47.394m-82.413-31.784 87.841-38.764m-196.98-30.978 62.354 23.242s24.288 13.762 25.854 43.664c1.5663 29.902 2.3495 95.191 2.3495 95.191s-0.97895 9.5398-2.5453 13.128m-81.091-178.06 63.269 22.535s25.267 10.621 26.246 43.855c0.97896 33.234 2.3495 96.376 2.3495 96.376s0 10.99-10.083 15.428m15.898-3.7304c1.9579-0.42759 4.2388-8.4241 4.2388-8.4241s1.3705 0.8552 1.3069-14.288c-0.0636-15.143-1.1747-90.925-1.1747-90.925s-3.069-35.8-33.23-46.092c-30.161-10.292-63.362-21.335-63.362-21.335m-2.2565 0.55047 93.626-22.83 73.122 15.728c26.118 17.31 20.112 46.942 20.112 46.942l-6.138 79.803s-2.418 7.1462-14.885 15.148l-71.36 45.708-1.8992 1.214a2.1782 2.1871 0 0 1-1.86 0.70774s-3.5732 3.4896-7.5868 2.7032l-5.2422-1.037s-7.0974 6.6351-15.864 0.34403c-8.7665-6.291-11.214-8.2078-11.214-8.2078s-4.4053 1.9168-6.8526-5.6521l-32.364-23.798s-2.8928 0.98297-5.487-4.0842l-9.8923-8.8959s-8.0959-11.344-9.2706-26.049v-3.1799s-2.6774-4.0302-0.88105-7.6377l-5.9716-45.168 0.25942-2.1331s-4.0479-1.9315-0.84679-8.1587l-0.06853-1.0518-1.1649-18.583 1.4684-8.1292s0.91531-4.8215 10.117-4.8215c0 0 2.3201-3.2094 5.159-2.3591 2.8389 0.85026 4.9828-6.522 4.9828-6.522z" fill="none" stroke="#231f20" stroke-miterlimit="10" stroke-width=".49048"/>
</svg>
