<?xml version="1.0" encoding="UTF-8" standalone="no"?>
<!-- Created with Inkscape (http://www.inkscape.org/) -->

<svg
   xmlns:dc="http://purl.org/dc/elements/1.1/"
   xmlns:cc="http://creativecommons.org/ns#"
   xmlns:rdf="http://www.w3.org/1999/02/22-rdf-syntax-ns#"
   xmlns:svg="http://www.w3.org/2000/svg"
   xmlns="http://www.w3.org/2000/svg"
   xmlns:sodipodi="http://sodipodi.sourceforge.net/DTD/sodipodi-0.dtd"
   xmlns:inkscape="http://www.inkscape.org/namespaces/inkscape"
   width="124.17039mm"
   height="131.49112mm"
   viewBox="0 0 124.17039 131.49112"
   version="1.1"
   id="svg8"
   inkscape:version="0.92.4 (5da689c313, 2019-01-14)"
   sodipodi:docname="Plankton.svg">
  <defs
     id="defs2" />
  <sodipodi:namedview
     id="base"
     pagecolor="#ffffff"
     bordercolor="#666666"
     borderopacity="1.0"
     inkscape:pageopacity="0.0"
     inkscape:pageshadow="2"
     inkscape:zoom="4"
     inkscape:cx="160.57108"
     inkscape:cy="345.71853"
     inkscape:document-units="mm"
     inkscape:current-layer="layer1"
     showgrid="false"
     fit-margin-top="0"
     fit-margin-left="0"
     fit-margin-right="0"
     fit-margin-bottom="0"
     inkscape:window-width="1920"
     inkscape:window-height="1017"
     inkscape:window-x="1912"
     inkscape:window-y="-8"
     inkscape:window-maximized="1" />
  <metadata
     id="metadata5">
    <rdf:RDF>
      <cc:Work
         rdf:about="">
        <dc:format>image/svg+xml</dc:format>
        <dc:type
           rdf:resource="http://purl.org/dc/dcmitype/StillImage" />
        <dc:title />
      </cc:Work>
    </rdf:RDF>
  </metadata>
  <g
     inkscape:label="Layer 1"
     inkscape:groupmode="layer"
     id="layer1"
     transform="translate(-68.169732,-82.804664)">
    <path
       style="fill:none;stroke-width:0.21907502;stroke:#000000;stroke-opacity:1"
       d="m 134.17784,203.97201 c -0.68837,-0.73484 -0.92908,-1.56268 -0.92908,-3.19525 0,-2.5218 1.23289,-6.05048 3.55726,-10.18138 l 1.08595,-1.92996 -0.78645,-2.18957 c -1.40509,-3.91197 -1.71706,-5.46927 -1.78395,-8.90538 -0.0665,-3.41407 -0.12043,-3.98777 -0.79086,-8.40967 l -0.45342,-2.99058 -1.78349,-0.24984 c -5.91147,-0.82811 -12.606,-2.37563 -16.99864,-3.92944 -1.37985,-0.48809 -2.51356,-0.86627 -2.51936,-0.84038 -0.0868,0.38708 -0.61014,0.9828 -1.05576,1.20167 -1.35662,0.66633 -3.61586,-1.22706 -5.15388,-4.31931 -0.69541,-1.39814 -0.82173,-1.88325 -0.88421,-3.39566 -0.0645,-1.56189 -0.0134,-1.85254 0.44514,-2.53126 0.39667,-0.5871 0.69606,-0.78384 1.27781,-0.83964 1.14905,-0.11022 2.23129,0.30479 3.34018,1.28088 0.55032,0.48441 1.39518,1.01996 1.87748,1.19013 1.47901,0.52182 4.8334,1.16844 7.4817,1.44223 2.62886,0.27177 9.98128,0.38173 10.21032,0.15269 0.21717,-0.21717 -1.59719,-3.31807 -4.25911,-7.27918 -3.32612,-4.9495 -7.96542,-11.15123 -12.56911,-16.8022 -4.10652,-5.04071 -5.54307,-11.98501 -3.7026,-17.89846 l 0.41692,-1.33953 -0.57986,-0.40888 c -0.54714,-0.38581 -2.76774,-1.56044 -2.94996,-1.56044 -0.37971,0 -2.33926,5.55064 -2.05863,5.83127 0.0536,0.0536 0.60365,0.15732 1.22245,0.23061 1.64021,0.19426 1.5402,0.73137 -0.24235,1.30156 -1.3187,0.42182 -1.37279,0.46821 -1.51801,1.30186 -0.0828,0.47546 -0.22088,1.96596 -0.30678,3.31223 l -0.15619,2.44776 0.85267,0.22377 c 0.46897,0.12307 1.12871,0.29044 1.46609,0.37194 1.00331,0.24236 0.63918,0.78918 -0.81247,1.22012 -0.71137,0.21118 -1.36985,0.50767 -1.4633,0.65888 -0.16645,0.26932 -0.0391,6.77475 0.13607,6.9499 0.049,0.049 0.60958,0.20625 1.24581,0.34952 1.61396,0.36344 1.62154,0.8152 0.0207,1.23217 l -1.26037,0.32829 0.0677,1.96239 c 0.0372,1.07932 0.1328,2.5539 0.21239,3.27684 l 0.14471,1.31445 1.47876,0.18993 c 1.9081,0.24506 1.94473,0.64195 0.10954,1.18656 -1.55488,0.46143 -1.44997,0.14667 -1.16588,3.49793 0.23214,2.73843 -0.16061,2.73843 -1.22839,0 -0.4346,-1.11454 -0.85666,-2.24825 -0.93793,-2.51936 -0.12019,-0.40094 -0.31874,-0.49914 -1.06407,-0.52629 -1.479803,-0.0539 -1.533423,-0.0654 -1.628153,-0.34959 -0.0498,-0.14936 0.16395,-0.37076 0.474973,-0.49199 0.31102,-0.12123 0.80005,-0.31204 1.08674,-0.42402 l 0.52124,-0.2036 -0.38147,-1.60377 c -0.20981,-0.88207 -0.50913,-2.46364 -0.66515,-3.51458 l -0.28368,-1.91081 -0.879623,-0.17396 c -1.18694,-0.23473 -1.23319,-0.59856 -0.14658,-1.15291 0.793573,-0.40485 0.890983,-0.53484 0.788643,-1.05237 -0.0642,-0.32476 -0.14481,-2.04494 -0.17908,-3.82264 l -0.0623,-3.23217 -1.478763,-0.56602 c -1.76269,-0.67472 -1.90765,-1.10249 -0.43815,-1.29302 2.111083,-0.27372 1.914573,0.004 2.205683,-3.11719 0.38915,-4.17235 0.48259,-3.80927 -1.165073,-4.52707 -1.02691,-0.44737 -1.42399,-0.73509 -1.42399,-1.0318 0,-0.37774 0.13252,-0.40023 1.61821,-0.27464 l 1.618193,0.13678 0.26184,-1.61834 c 0.14402,-0.89008 0.34249,-1.96338 0.44105,-2.3851 0.50434,-2.15796 0.54277,-1.97167 -0.40684,-1.97167 -0.47157,0 -1.483933,0.19487 -2.249693,0.43304 -3.70157,1.15129 -7.09907,4.69567 -9.74276,10.16396 l -0.99952,2.06744 0.82111,0.75249 c 0.45161,0.41387 0.75788,0.8548 0.6806,0.97985 -0.0773,0.12504 -0.5921,0.34107 -1.14404,0.48005 -0.81804,0.20598 -1.05711,0.38306 -1.29339,0.95801 -0.27975,0.68074 -0.615,2.54946 -0.8792,4.90085 l -0.1268,1.12848 1.10005,0.67686 c 0.60502,0.37228 1.10004,0.77173 1.10004,0.88767 0,0.21889 -1.35627,0.66619 -2.02644,0.66833 -0.41742,0.001 -0.48799,0.45481 -0.40929,2.63012 0.0491,1.35779 0.42199,5.11864 0.57923,5.84224 0.0743,0.34174 0.47186,0.61784 1.418,0.98472 1.70066,0.65944 1.71845,1.27252 0.0372,1.28217 -1.11562,0.006 -1.21155,0.21505 -1.07164,2.33074 0.0705,1.06583 0.25822,2.3322 0.41717,2.81417 0.26149,0.79285 0.36725,0.88278 1.11054,0.94429 0.99566,0.0824 1.04267,0.40959 0.16335,1.13692 l -0.66214,0.54769 0.45044,1.64306 c 0.24775,0.90369 0.50217,1.81559 0.56539,2.02645 0.0801,0.26708 -0.006,0.38266 -0.2832,0.38102 -0.27278,-0.002 -0.67407,-0.53026 -1.27445,-1.67885 -1.07278,-2.05239 -1.27127,-2.26135 -2.15162,-2.26513 -1.82322,-0.008 -2.26878,-0.67359 -0.71299,-1.06535 l 0.9692,-0.24404 -0.53255,-1.69887 c -0.2929,-0.93437 -0.68674,-2.21643 -0.8752,-2.84901 -0.18847,-0.63258 -0.4589,-1.1577 -0.60096,-1.16694 -0.14207,-0.009 -0.70019,-0.0339 -1.24027,-0.0548 -1.3996,-0.0541 -1.42233,-0.57851 -0.0529,-1.21993 l 1.0626,-0.49769 -0.28346,-1.35093 c -0.15591,-0.74301 -0.40457,-2.91462 -0.55259,-4.8258 -0.1537,-1.98464 -0.36692,-3.50405 -0.49717,-3.5429 -0.12543,-0.0374 -0.59774,-0.12946 -1.04958,-0.20456 -1.11728,-0.18568 -1.04448,-0.65252 0.17433,-1.11799 0.91223,-0.34838 0.98485,-0.43049 0.86467,-0.97765 -0.12613,-0.57427 0.20819,-6.05323 0.46881,-7.6831 0.11609,-0.72599 0.0627,-0.82879 -0.6634,-1.27754 -1.22385,-0.75638 -1.05395,-1.12515 0.63434,-1.37686 0.32696,-0.0487 0.5378,-0.39839 0.83078,-1.37775 1.89811,-6.34472 4.80599,-10.54728 9.14605,-13.21818 3.00027,-1.84638 7.29434,-3.09737 10.640873,-3.1 l 1.12003,-8.8e-4 1.10755,-1.47875 c 3.17397,-4.237727 6.57198,-6.192777 10.75105,-6.185637 3.10837,0.005 5.67176,0.80879 8.54512,2.67837 l 1.39349,0.90669 2.98801,0.0496 c 1.64341,0.0273 3.53022,0.16137 4.19292,0.29802 0.66271,0.13665 3.15117,0.324897 5.52993,0.418337 2.37875,0.0934 4.39599,0.24087 4.48274,0.32762 0.0868,0.0867 0.0374,0.35042 -0.10967,0.58592 -0.23559,0.37724 -0.20854,0.42859 0.22737,0.43154 0.74248,0.005 1.10897,0.31828 0.95179,0.81351 -0.11704,0.36875 0.002,0.46298 0.79809,0.63171 0.7497,0.15889 0.93698,0.29282 0.94236,0.6739 0.005,0.33376 0.39673,0.73627 1.31445,1.34967 6.01159,4.01811 11.70282,11.61224 15.98418,21.32859 1.59474,3.61919 3.71229,9.72916 4.67371,13.48552 l 0.63154,2.46749 1.64103,-1.71765 c 2.37756,-2.48856 4.48846,-5.7544 5.86256,-9.0701 1.25996,-3.04033 2.86124,-3.80612 4.62559,-2.21214 1.39502,1.26032 2.05053,2.71627 2.05291,4.55971 0.001,1.03713 -0.12376,1.78172 -0.38648,2.30029 -0.21365,0.42172 -1.90981,2.68915 -3.76924,5.03873 -1.85942,2.34958 -3.49361,4.617 -3.63152,5.03872 -0.4646,1.42068 -1.93527,4.04355 -3.01465,5.37646 l -1.07181,1.32358 0.21435,2.29116 c 0.33674,3.59932 0.0747,12.50702 -0.46057,15.65474 -1.14156,6.7134 -3.11853,11.1278 -6.49183,14.49571 l -1.79223,1.78935 -0.13093,1.8554 c -0.31194,4.42016 -1.54558,6.9104 -3.61575,7.29876 -1.70107,0.31913 -2.69599,-0.96869 -2.72246,-3.52394 -0.009,-0.90796 -0.0454,-1.65084 -0.08,-1.65084 -0.0346,0 -0.88249,0.20453 -1.88418,0.45452 -1.23631,0.30854 -2.76073,0.48106 -4.7464,0.53717 -3.8292,0.1082 -3.78852,0.0807 -6.15768,4.15927 -2.12574,3.65949 -4.67318,6.84721 -6.23105,7.79718 -0.94302,0.57504 -2.12753,0.54114 -2.70703,-0.0775 z"
       id="path2923" />
    <path
       style="fill:none;stroke-width:0.21907502;stroke:#000000;stroke-opacity:1"
       d="m 147.35416,175.30966 c -0.96705,-0.28048 -2.35956,-1.62463 -3.25854,-3.14541 -0.71154,-1.20367 -1.00013,-2.31317 -0.60168,-2.31317 0.0923,0 1.33699,1.1723 2.76607,2.60512 2.87363,2.88114 3.08435,3.43069 1.09415,2.85346 z"
       id="path2915" />
    <path
       style="fill:none;stroke-width:0.21907502;stroke:#000000;stroke-opacity:1"
       d="m 149.62462,174.1649 c -0.33135,-0.27306 -0.5998,-0.64064 -0.59656,-0.81685 0.003,-0.17621 0.96444,-1.33313 2.13599,-2.57094 1.50651,-1.59173 2.2135,-2.19519 2.41505,-2.06141 0.21807,0.14475 -0.0727,0.8531 -1.23851,3.01732 -0.83792,1.5555 -1.65624,2.85071 -1.8185,2.87826 -0.16226,0.0275 -0.56612,-0.17332 -0.89747,-0.44638 z"
       id="path2911" />
    <path
       style="fill:none;stroke-width:0.21907502;stroke:#000000;stroke-opacity:1"
       d="m 146.66997,168.45383 c -6.71933,-7.18298 -7.982,-16.22368 -3.52528,-25.24075 l 0.8763,-1.77299 2.4204,-0.47755 c 4.9188,-0.97049 9.32269,-3.26052 12.3352,-6.41431 0.84651,-0.88621 1.69998,-1.85775 1.8966,-2.15898 0.33148,-0.50784 0.36941,-0.51778 0.52136,-0.13671 0.0901,0.22604 0.0451,0.7394 -0.10003,1.14079 -0.21336,0.59003 -0.19889,1.04451 0.0755,2.37299 0.18668,0.90375 0.33941,2.48069 0.33941,3.5043 v 1.86112 l -1.57871,1.35875 c -0.86829,0.74732 -1.91458,1.55693 -2.32509,1.79913 -0.71849,0.42392 -0.7413,0.47793 -0.61023,1.44471 0.0749,0.55238 0.4421,1.92485 0.81602,3.04994 0.61786,1.85905 0.72258,2.03308 1.14833,1.90838 1.89028,-0.55369 2.05974,-0.46164 2.89402,1.57207 0.38915,0.94863 0.61661,1.24873 0.90889,1.19916 1.89876,-0.32201 2.37413,-0.29563 2.95642,0.16406 0.3272,0.25832 0.69634,0.83487 0.82031,1.28123 0.25515,0.91871 0.26005,3.32924 0.009,4.31677 l -0.16723,0.65723 -0.0518,-0.65723 -0.0518,-0.65722 -0.16724,0.65722 c -0.1327,0.52152 -0.17259,0.37226 -0.19315,-0.72287 -0.0355,-1.88959 -0.80493,-3.30354 -1.80833,-3.32305 -1.20253,-0.0234 -6.76092,5.02051 -12.42557,11.2754 -1.63682,1.80736 -3.13578,3.31556 -3.33103,3.35153 -0.20679,0.0381 -0.90901,-0.52683 -1.68197,-1.35312 z"
       id="path2907" />
    <path
       style="fill:none;stroke-width:0.21907502;stroke:#000000;stroke-opacity:1"
       d="m 148.5349,166.18567 c -0.89203,-0.92034 -1.21035,-0.90338 -1.39375,0.0742 -0.13035,0.69483 -0.072,0.85271 0.48299,1.30647 l 0.63126,0.51613 0.48678,-0.59037 0.48679,-0.59038 z"
       id="path2903" />
    <path
       style="fill:none;stroke-width:0.21907502;stroke:#000000;stroke-opacity:1"
       d="m 151.36023,161.57562 c -1.54032,-1.56812 -1.42428,-1.59907 -2.59271,0.69172 l -0.65736,1.2888 1.04961,1.06563 1.0496,1.06563 1.25054,-1.36859 1.25054,-1.36859 z"
       id="path2897" />
    <path
       style="fill:none;stroke-width:0.21907502;stroke:#000000;stroke-opacity:1"
       d="m 155.30323,158.40641 c -0.44271,-0.63368 -0.99834,-1.3986 -1.23473,-1.69983 l -0.42981,-0.54769 -1.327,1.32122 -1.32701,1.32122 1.31845,1.53569 1.31845,1.53569 1.24329,-1.15707 1.24328,-1.15708 z"
       id="path2893" />
    <path
       style="fill:none;stroke-width:0.21907502;stroke:#000000;stroke-opacity:1"
       d="m 158.35075,157.44695 c 0.53237,-0.43623 0.96341,-0.90451 0.95788,-1.04061 -0.006,-0.1361 -0.53641,-0.82684 -1.17973,-1.53498 l -1.16967,-1.28753 -1.01102,0.6956 c -0.55606,0.38258 -1.01102,0.74204 -1.01102,0.7988 0,0.13573 2.26566,3.16187 2.36728,3.16187 0.0431,0 0.51392,-0.35692 1.04628,-0.79315 z"
       id="path2891" />
    <path
       style="fill:none;stroke-width:0.21907502;stroke:#000000;stroke-opacity:1"
       d="m 161.50944,154.74888 c 0,-0.10433 -0.27292,-0.82945 -0.60649,-1.61138 l -0.60649,-1.42168 -0.8175,0.4194 c -0.44962,0.23067 -0.81749,0.47805 -0.81749,0.54973 0,0.0717 0.46351,0.70294 1.03003,1.40281 0.85292,1.05368 1.09777,1.23622 1.42399,1.06164 0.21667,-0.11596 0.39395,-0.2962 0.39395,-0.40052 z"
       id="path2889" />
    <path
       style="fill:none;stroke-width:0.21907502;stroke:#000000;stroke-opacity:1"
       d="m 145.88024,146.24189 c 0.14167,-0.0901 0.28681,-0.86796 0.32861,-1.76099 0.0707,-1.50999 0.0503,-1.5929 -0.36327,-1.48124 -0.24099,0.0651 -0.56592,0.11963 -0.72207,0.12128 -0.30596,0.003 -1.35348,2.0654 -1.35701,2.67142 -0.003,0.47839 1.54956,0.80852 2.11374,0.44953 z"
       id="path2877" />
    <path
       style="fill:none;stroke-width:0.21907502;stroke:#000000;stroke-opacity:1"
       d="m 149.09516,145.94166 1.24145,-0.24932 -0.002,-1.1199 c -0.001,-0.61595 -0.0613,-1.47567 -0.13318,-1.91051 l -0.13077,-0.79061 -1.1265,0.32263 c -0.61957,0.17745 -1.21954,0.40938 -1.33327,0.51541 -0.11372,0.10603 -0.24597,0.93277 -0.29388,1.8372 -0.0986,1.86058 -0.1884,1.79012 1.77857,1.3951 z"
       id="path2875" />
    <path
       style="fill:none;stroke-width:0.21907502;stroke:#000000;stroke-opacity:1"
       d="m 153.73228,144.47481 c 1.94159,-0.85006 3.1765,-1.57398 3.17721,-1.86253 4.4e-4,-0.19084 -0.99428,-2.78215 -1.21294,-3.1597 -0.018,-0.0311 -0.66454,0.2718 -1.43668,0.67319 -0.77214,0.4014 -1.72429,0.84072 -2.11589,0.97628 l -0.71199,0.24648 v 1.99784 c 0,2.29317 -0.16979,2.20987 2.30029,1.12844 z"
       id="path2871" />
    <path
       style="fill:none;stroke-width:0.21907502;stroke:#000000;stroke-opacity:1"
       d="m 159.42823,141.18475 c 0.87395,-0.60853 0.87624,-0.61395 0.85351,-2.01916 -0.0125,-0.77495 -0.14064,-1.832 -0.28469,-2.34901 l -0.26191,-0.94001 -0.93897,0.96613 c -0.51644,0.53137 -1.19114,1.13136 -1.49935,1.3333 l -0.56037,0.36717 0.68866,1.62954 c 0.37877,0.89625 0.78725,1.6279 0.90774,1.62588 0.12049,-0.002 0.61341,-0.27824 1.09538,-0.61384 z"
       id="path2869" />
    <path
       style="fill:none;stroke-width:0.21907502;stroke:#000000;stroke-opacity:1"
       d="m 141.46689,139.55517 c -0.72913,-0.17815 -1.11705,-0.39417 -1.1662,-0.64939 -0.06,-0.31141 0.086,-0.38243 0.78631,-0.38243 2.49094,0 8.29061,-2.13913 10.86702,-4.00815 1.39141,-1.00938 3.73032,-3.29847 4.58199,-4.4844 0.45986,-0.64034 0.7428,-0.86443 0.8969,-0.71034 0.52737,0.52738 -2.48314,5.30296 -4.48055,7.1075 -1.24342,1.12336 -2.93498,2.16209 -4.47788,2.74971 -1.58168,0.6024 -5.27331,0.80127 -7.00759,0.3775 z"
       id="path2863" />
    <path
       style="fill:none;stroke-width:0.21907502;stroke:#000000;stroke-opacity:1"
       d="m 137.19211,137.03043 c -2.0574,-0.69177 -3.12103,-1.36201 -4.72086,-2.97483 -5.95301,-6.00135 -5.86915,-17.36048 0.17089,-23.14834 2.34428,-2.2464 4.75685,-3.17178 7.81457,-2.99741 3.36756,0.19204 6.23763,1.76649 9.8799,5.41987 3.6605,3.67166 5.33895,6.69219 5.91318,10.6413 0.56635,3.89494 -1.12314,7.4856 -4.6703,9.92574 -1.61915,1.11384 -4.48413,2.37809 -6.52401,2.87889 -2.6736,0.65639 -6.31779,0.77446 -7.86337,0.25478 z"
       id="path2859" />
    <path
       style="fill:none;stroke-width:0.21907502;stroke:#000000;stroke-opacity:1"
       d="m 142.4296,124.6498 c -1.35704,-0.7167 -2.23303,-2.17534 -2.23303,-3.71831 0,-1.55288 0.36243,-2.56236 1.21686,-3.38931 1.53696,-1.48752 3.51261,-1.76154 5.44021,-0.75455 0.9499,0.49623 1.28532,0.83327 1.7987,1.80737 0.54993,1.04347 0.61654,1.36367 0.51814,2.49094 -0.13603,1.55845 -0.93744,2.83841 -2.23864,3.57541 -1.21597,0.68872 -3.18587,0.68367 -4.50224,-0.0115 z"
       id="path2851" />
    <path
       style="fill:none;stroke-width:0.21907502;stroke:#000000;stroke-opacity:1"
       d="m 145.88608,124.04976 c 2.02814,-0.76844 2.93357,-3.33453 1.81511,-5.14423 -1.89981,-3.07395 -6.58029,-1.70419 -6.56212,1.92043 0.0111,2.22569 2.65052,4.01814 4.74701,3.2238 z"
       id="path2849" />
    <path
       style="fill:none;stroke-width:0.21907502;stroke:#000000;stroke-opacity:1"
       d="m 145.48889,120.28532 c -0.32462,-0.60941 -0.75005,-0.95635 -1.66976,-1.36168 -0.79716,-0.35133 -0.89735,-0.69483 -0.32861,-1.12657 0.8704,-0.66072 2.254,-0.24644 3.49639,1.0469 0.74199,0.77243 0.72347,0.96619 -0.14947,1.56358 -0.72388,0.49538 -1.03457,0.46722 -1.34855,-0.12223 z"
       id="path2847" />
    <path
       style="fill:none;stroke-width:0.21907502;stroke:#000000;stroke-opacity:1"
       d="m 109.21607,159.39021 c -1.19542,-1.22742 -2.28625,-3.42128 -2.42641,-4.87994 -0.0829,-0.86253 -0.0169,-1.12193 0.38841,-1.52724 0.38966,-0.38966 0.64914,-0.46309 1.28511,-0.36366 2.06205,0.32239 4.55653,5.56875 3.45042,7.25688 -0.59885,0.91396 -1.49051,0.7533 -2.69753,-0.48604 z"
       id="path2839" />
    <path
       style="fill:none;stroke-width:0.21907502;stroke:#000000;stroke-opacity:1"
       d="m 159.74709,194.11364 c 0.36745,-0.84734 0.62398,-2.14291 0.99768,-5.03873 0.0739,-0.57233 0.0883,-1.0406 0.0321,-1.0406 -0.0562,0 -0.52242,0.35105 -1.03599,0.78012 -0.51356,0.42907 -1.22278,0.92959 -1.57604,1.11227 -0.6422,0.3321 -0.64227,0.33236 -0.56573,2.13261 0.0841,1.97793 0.52242,2.9854 1.29884,2.9854 0.31464,0 0.56397,-0.27338 0.84918,-0.93107 z"
       id="path2821" />
    <path
       style="fill:none;stroke-width:0.21907502;stroke:#000000;stroke-opacity:1"
       d="m 117.81271,104.30993 2.28225,-1.79032 -0.70734,-0.46958 c -1.93832,-1.28678 -4.20446,-1.34055 -6.53472,-0.15507 -1.39756,0.71099 -3.25322,2.10602 -3.04516,2.28926 0.15738,0.13861 5.09236,1.85152 5.43549,1.88663 0.15798,0.0162 1.31424,-0.77624 2.56948,-1.76092 z"
       id="path2797" />
  </g>
</svg>
