<?xml version="1.0" encoding="UTF-8" standalone="no"?>
<!-- Created with Inkscape (http://www.inkscape.org/) -->

<svg
   xmlns:dc="http://purl.org/dc/elements/1.1/"
   xmlns:cc="http://creativecommons.org/ns#"
   xmlns:rdf="http://www.w3.org/1999/02/22-rdf-syntax-ns#"
   xmlns:svg="http://www.w3.org/2000/svg"
   xmlns="http://www.w3.org/2000/svg"
   xmlns:sodipodi="http://sodipodi.sourceforge.net/DTD/sodipodi-0.dtd"
   xmlns:inkscape="http://www.inkscape.org/namespaces/inkscape"
   id="svg8"
   version="1.1"
   viewBox="0 0 194.0273 304.81425"
   height="304.81424mm"
   width="194.0273mm"
   sodipodi:docname="ScaleTest.svg"
   inkscape:version="0.92.4 (5da689c313, 2019-01-14)">
  <defs
     id="defs2" />
  <sodipodi:namedview
     id="base"
     pagecolor="#ffffff"
     bordercolor="#666666"
     borderopacity="1.0"
     inkscape:pageopacity="0.0"
     inkscape:pageshadow="2"
     inkscape:zoom="0.5"
     inkscape:cx="272.22855"
     inkscape:cy="618.42933"
     inkscape:document-units="mm"
     inkscape:current-layer="layer1"
     showgrid="false"
     inkscape:window-width="1920"
     inkscape:window-height="1017"
     inkscape:window-x="-8"
     inkscape:window-y="-8"
     inkscape:window-maximized="1"
     units="px"
     fit-margin-top="0"
     fit-margin-left="0"
     fit-margin-right="0"
     fit-margin-bottom="0" />
  <metadata
     id="metadata5">
    <rdf:RDF>
      <cc:Work
         rdf:about="">
        <dc:format>image/svg+xml</dc:format>
        <dc:type
           rdf:resource="http://purl.org/dc/dcmitype/StillImage" />
        <dc:title></dc:title>
      </cc:Work>
    </rdf:RDF>
  </metadata>
  <g
     inkscape:label="Layer 1"
     inkscape:groupmode="layer"
     id="layer1"
     transform="translate(-287.3375,325.63111)">
    <path
       style="fill:none;stroke:#000000;stroke-width:1;stroke-linecap:butt;stroke-linejoin:miter;stroke-miterlimit:4;stroke-dasharray:none;stroke-opacity:1"
       d="M 440.03253,-325.63111 V -20.816876"
       id="path6256"
       inkscape:connector-curvature="0" />
    <path
       style="fill:none;stroke:#000000;stroke-width:1;stroke-linecap:butt;stroke-linejoin:miter;stroke-miterlimit:4;stroke-dasharray:none;stroke-opacity:1"
       d="M 439.73749,-196.05105 H 287.3375"
       id="path6258"
       inkscape:connector-curvature="0" />
    <g
       aria-label="6 in"
       style="font-style:normal;font-weight:normal;font-size:23.24792671px;line-height:1.25;font-family:sans-serif;letter-spacing:0px;word-spacing:0px;fill:#000000;fill-opacity:1;stroke:none;stroke-width:2.19665432;stroke-miterlimit:4;stroke-dasharray:none"
       id="text6262">
      <path
         style="stroke-width:2.19665432;stroke-miterlimit:4;stroke-dasharray:none"
         d="m 356.9156,-204.27243 c 0.17442,3.05881 -2.50672,5.82643 -5.55249,5.82834 -2.46341,0.22491 -4.9415,-1.28747 -5.74955,-3.64424 -0.96028,-2.72638 -0.83725,-5.7826 -0.0548,-8.53776 0.79706,-2.68466 3.12007,-4.86524 5.93001,-5.24476 1.12935,-0.0282 3.27536,-0.59702 3.78086,0.47544 0,0.60492 0,1.20985 0,1.81477 -2.2823,-0.9449 -5.33893,-0.52433 -6.77956,1.66401 -0.6247,0.84365 -1.45718,2.98571 -0.95136,3.37198 2.42151,-1.44446 5.94813,-1.55391 8.04664,0.52909 0.98184,0.97851 1.34489,2.3913 1.33025,3.74313 z m -2.30436,0.0908 c 0.15569,-1.67512 -1.07128,-3.3907 -2.81872,-3.47782 -1.54611,-0.21979 -3.14957,0.088 -4.50301,0.86697 -0.17007,2.18496 -0.0267,4.98482 2.16744,6.14189 1.8228,0.93351 4.51997,0.0925 4.97396,-2.04953 0.13187,-0.48178 0.18006,-0.98315 0.18033,-1.48151 z"
         id="path6333"
         inkscape:connector-curvature="0" />
      <path
         style="stroke-width:2.19665432;stroke-miterlimit:4;stroke-dasharray:none"
         d="m 370.76447,-213.59203 c -0.80218,0 -1.60435,0 -2.40653,0 0,-0.73785 0,-1.4757 0,-2.21355 0.80218,0 1.60435,0 2.40653,0 0,0.73785 0,1.4757 0,2.21355 z m -0.13622,14.80239 c -0.71136,0 -1.42273,0 -2.13409,0 0,-4.22655 0,-8.45311 0,-12.67966 0.71136,0 1.42273,0 2.13409,0 0,4.22655 0,8.45311 0,12.67966 z"
         id="path6335"
         inkscape:connector-curvature="0" />
      <path
         style="stroke-width:2.19665432;stroke-miterlimit:4;stroke-dasharray:none"
         d="m 385.47605,-198.78964 c -0.71136,0 -1.42273,0 -2.13409,0 -0.0369,-2.88697 0.0826,-5.77992 -0.0782,-8.66228 0.0976,-1.75959 -1.73706,-2.67657 -3.26747,-2.27669 -1.02034,0.38091 -2.94216,0.72943 -2.98846,2.00184 0,2.97904 0,5.95809 0,8.93713 -0.71136,0 -1.42273,0 -2.13409,0 0,-4.22655 0,-8.45311 0,-12.67966 0.71136,0 1.42273,0 2.13409,0 0.0228,0.75542 -0.23674,2.01864 0.75878,0.83718 1.91279,-1.42659 5.11808,-1.82473 6.76165,0.20716 1.35664,1.86073 0.84498,4.25909 0.94781,6.40907 0,1.74208 0,3.48417 0,5.22625 z"
         id="path6337"
         inkscape:connector-curvature="0" />
    </g>
    <path
       style="font-style:normal;font-weight:normal;font-size:24.10235596px;line-height:1.25;font-family:sans-serif;letter-spacing:0px;word-spacing:0px;fill:#000000;fill-opacity:1;stroke:none;stroke-width:0.60255891"
       d="m 452.82563,-233.91028 c -3.16186,0 -6.32373,0 -9.48559,0 0,-0.59628 0,-1.19256 0,-1.78885 1.2161,0 2.4322,0 3.6483,0 0,-3.91506 0,-7.83012 0,-11.74519 -1.2161,0 -2.4322,0 -3.6483,0 0,-0.53351 0,-1.06703 0,-1.60054 1.44734,-0.0336 3.43179,-0.11525 3.969,-1.75943 -0.16701,-1.02237 0.84461,-0.60759 1.47056,-0.68847 0.75061,-0.22729 0.38583,0.6608 0.46834,1.1016 0,4.89735 0,9.79469 0,14.69203 1.19256,0 2.38513,0 3.57769,0 0,0.59629 0,1.19257 0,1.78885 z m 20.31283,-16.17023 c -1.39638,-0.29004 -3.23016,-0.74688 -4.32685,0.47792 -0.2833,0.55864 -0.99221,2.42611 -0.14761,2.54664 1.21688,0 2.43376,0 3.65064,0 0,0.61982 0,1.23964 0,1.85946 -1.30632,0 -2.61265,0 -3.91898,0 0,3.76207 0,7.52414 0,11.28621 -0.73751,0 -1.47502,0 -2.21252,0 0,-3.76207 0,-7.52414 0,-11.28621 -0.46804,-0.0584 -1.16866,0.11575 -1.49463,-0.0847 0,-0.59157 0,-1.18314 0,-1.77472 0.46804,-0.0584 1.16866,0.11575 1.49463,-0.0847 -0.13599,-1.92534 0.59631,-4.20754 2.58912,-4.8846 1.37328,-0.46028 3.0988,-0.40989 4.3662,0.005 0,0.64649 0,1.29298 0,1.93948 z m 8.22633,16.05254 c -1.92541,0.46874 -4.3872,0.79184 -5.8582,-0.84656 -1.30071,-1.70712 -0.82764,-3.95864 -0.92058,-5.95823 0,-1.45457 0,-2.90915 0,-4.36373 -0.46804,-0.0584 -1.16866,0.11575 -1.49463,-0.0847 0,-0.59157 0,-1.18314 0,-1.77472 0.46804,-0.0584 1.16866,0.11575 1.49463,-0.0847 0,-1.231 0,-2.46201 0,-3.69302 0.7375,0 1.47501,0 2.21252,0 0,1.25925 0,2.51851 0,3.77776 1.52209,0 3.04418,0 4.56626,0 0,0.61982 0,1.23964 0,1.85946 -1.52208,0 -3.04417,0 -4.56626,0 0.034,2.63239 -0.0804,5.27156 0.0853,7.89829 0.22881,1.94922 2.61183,1.95813 4.02196,1.40195 0.79176,-0.4772 0.34275,0.73469 0.45898,1.15045 0,0.23928 0,0.47855 0,0.71783 z"
       id="text6266"
       inkscape:connector-curvature="0" />
  </g>
</svg>
