<?xml version="1.0" encoding="UTF-8" standalone="no"?>
<svg
   xmlns:dc="http://purl.org/dc/elements/1.1/"
   xmlns:cc="http://creativecommons.org/ns#"
   xmlns:rdf="http://www.w3.org/1999/02/22-rdf-syntax-ns#"
   xmlns:svg="http://www.w3.org/2000/svg"
   xmlns="http://www.w3.org/2000/svg"
   xmlns:sodipodi="http://sodipodi.sourceforge.net/DTD/sodipodi-0.dtd"
   xmlns:inkscape="http://www.inkscape.org/namespaces/inkscape"
   height="509.72937"
   id="svg2"
   sodipodi:version="0.32"
   inkscape:version="0.92.4 (5da689c313, 2019-01-14)"
   width="494.46054"
   sodipodi:docname="tiger.svg"
   inkscape:output_extension="org.inkscape.output.svg.inkscape"
   version="1.0">
  <metadata
     id="metadata969">
    <rdf:RDF>
      <cc:Work
         rdf:about="">
        <dc:format>image/svg+xml</dc:format>
        <dc:type
           rdf:resource="http://purl.org/dc/dcmitype/StillImage" />
        <dc:title />
      </cc:Work>
    </rdf:RDF>
  </metadata>
  <defs
     id="defs967" />
  <sodipodi:namedview
     inkscape:window-height="1017"
     inkscape:window-width="1920"
     inkscape:pageshadow="2"
     inkscape:pageopacity="0.0"
     guidetolerance="10.0"
     gridtolerance="10.0"
     objecttolerance="10.0"
     borderopacity="1.0"
     bordercolor="#666666"
     pagecolor="#ffffff"
     id="base"
     showgrid="false"
     inkscape:zoom="1.6475588"
     inkscape:cx="165.05954"
     inkscape:cy="304.77238"
     inkscape:window-x="1912"
     inkscape:window-y="-8"
     inkscape:current-layer="svg2"
     inkscape:window-maximized="1" />
  <g
     transform="matrix(0.90917805,0,0,0.89061206,187.9344,155.34015)"
     style="fill:none;fill-opacity:1"
     id="g4">
    <g
       style="fill:#ffffff;stroke:#000000;stroke-width:0.17200001"
       id="g6">
      <path
         d="m -122.304,84.285 c -5.52276,-13.042675 -30.6797,-47.986784 -31.86663,-43.231316 17.81136,7.240385 24.23637,27.336855 31.86663,43.231316 z"
         id="path8"
         inkscape:connector-curvature="0" />
    </g>
    <g
       style="fill:#ffffff;stroke:#000000;stroke-width:0.17200001"
       id="g10">
      <path
         d="m -118.774,81.262 c -0.75645,-14.143532 -12.52284,-55.56194 -15.25761,-51.493977 14.28517,12.868454 13.48991,33.95173 15.25761,51.493977 z"
         id="path12"
         inkscape:connector-curvature="0" />
    </g>
    <g
       style="fill:#ffffff;stroke:#000000;stroke-width:0.17200001"
       id="g14">
      <path
         d="m -91.284,123.59 c -13.9247,-2.59061 -56.94828,-0.88983 -53.637,2.72372 15.86598,-10.8593 36.17109,-5.1296 53.637,-2.72372 z"
         id="path16"
         inkscape:connector-curvature="0" />
    </g>
    <g
       style="fill:#ffffff;stroke:#000000;stroke-width:0.17200001"
       id="g18">
      <path
         d="m -94.093,133.801 c -14.03116,1.93016 -54.32765,17.09694 -50.04681,19.48383 11.63641,-15.30499 32.71247,-16.26469 50.04681,-19.48383 z"
         id="path20"
         inkscape:connector-curvature="0" />
    </g>
    <g
       style="fill:#ffffff;stroke:#000000;stroke-width:0.17200001"
       id="g22">
      <path
         d="m -98.304,128.276 c -14.16273,-0.1372 -56.2402,8.98968 -52.35334,11.97602 13.74435,-13.44392 34.73486,-11.31946 52.35334,-11.97602 z"
         id="path24"
         inkscape:connector-curvature="0" />
    </g>
    <g
       style="fill:#ffffff;stroke:#000000;stroke-width:0.17200001"
       id="g26">
      <path
         d="m -109.009,110.072 c -12.67219,-6.32613 -54.49901,-16.544449 -52.31163,-12.15847 18.24363,-6.068279 36.18458,5.0336 52.31163,12.15847 z"
         id="path28"
         inkscape:connector-curvature="0" />
    </g>
    <g
       style="fill:#ffffff;stroke:#000000;stroke-width:0.17200001"
       id="g30">
      <path
         d="m -116.554,114.263 c -13.30726,-4.84947 -56.0196,-10.27202 -53.35108,-6.16018 17.43953,-8.09388 36.52148,0.90617 53.35108,6.16018 z"
         id="path32"
         inkscape:connector-curvature="0" />
    </g>
    <g
       style="fill:#ffffff;stroke:#000000;stroke-width:0.17200001"
       id="g34">
      <path
         d="m -119.154,118.335 c -13.84393,-2.9911 -56.89713,-2.54099 -53.69275,1.16828 16.17367,-10.39519 36.30415,-4.07947 53.69275,-1.16828 z"
         id="path36"
         inkscape:connector-curvature="0" />
    </g>
    <g
       style="fill:#ffffff;stroke:#000000;stroke-width:0.17200001"
       id="g38">
      <path
         d="m -108.42,118.949 c -11.7584,-7.89588 -51.92856,-23.393708 -50.32232,-18.76227 18.87095,-3.679913 35.24112,9.62962 50.32232,18.76227 z"
         id="path40"
         inkscape:connector-curvature="0" />
    </g>
    <g
       style="fill:#ffffff;stroke:#000000;stroke-width:0.17200001"
       id="g42">
      <path
         d="M -128.2,90 C -136.98056,78.886427 -170.49371,51.853485 -170.37923,56.753522 -151.28633,59.017621 -139.76762,76.694199 -128.2,90 Z"
         id="path44"
         inkscape:connector-curvature="0" />
    </g>
    <g
       style="fill:#ffffff;stroke:#000000;stroke-width:0.17200001"
       id="g46">
      <path
         d="M -127.505,96.979 C -138.47589,88.020964 -177.02936,68.850777 -175.86102,73.611275 -156.72937,71.704985 -141.67,86.481366 -127.505,96.979 Z"
         id="path48"
         inkscape:connector-curvature="0" />
    </g>
    <g
       style="fill:#ffffff;stroke:#000000;stroke-width:0.17200001"
       id="g50">
      <path
         d="m -127.62,101.349 c -11.75793,-7.896757 -51.92867,-23.39358 -50.32232,-18.762266 18.87095,-3.679917 35.24112,9.629613 50.32232,18.762266 z"
         id="path52"
         inkscape:connector-curvature="0" />
    </g>
    <g
       style="fill:#ffffff;stroke:#000000"
       id="g54">
      <path
         d="m -129.83,103.065 c 3.06793,26.6039 3.46268,67.00718 40.111591,65.60511 20.511021,17.84051 16.343371,44.4126 8.718009,65.54591 -1.112078,6.38924 22.373845,-13.97561 8.580074,3.63783 -4.443689,10.99967 -13.786797,30.37117 3.020569,12.88826 -14.325174,22.28851 29.617825,-14.52602 15.569313,5.89545 -13.503265,9.54149 27.826237,0.63016 1.999465,12.35882 -10.204169,7.7868 -14.900315,18.83655 -8.604788,24.94932 -1.797437,14.87171 5.404641,-2.36721 3.409272,13.64252 -3.866954,18.39165 19.274203,-2.95995 8.79557,14.04976 -4.65663,8.57675 1.357348,22.31513 8.05905,9.07708 10.552805,3.76444 4.877934,23.69684 11.424278,5.86354 10.927548,-18.63306 7.974439,1.52857 9.779432,8.38116 6.254247,-7.39026 9.8134026,26.98311 12.62827,2.44526 -1.8948377,-14.66139 8.6282714,-21.2575 10.9906608,-2.49738 3.7743306,19.07586 5.047122,8.91492 8.9306292,-2.3035 10.534726,-9.54525 2.902336,24.19414 12.947658,0.85638 10.415941,-7.16072 -8.863819,35.07537 3.849853,10.24517 3.627876,-10.06178 17.087029,-35.90062 12.971094,-8.60431 5.87272,5.65231 12.21659,-20.91675 11.99375,1.68087 0.17358,7.51394 14.142859,-20.90452 13.85625,-1.38125 4.135045,22.70508 12.86665,10.82817 7.912118,-5.29824 -1.828302,-5.9049 -10.403958,-24.80166 0.626945,-11.96739 -0.640004,-8.12014 -0.687248,-20.22429 8.818031,-8.18437 -7.43171,-10.53324 -2.810805,-28.30774 8.225515,-17.34393 -12.430396,-16.20309 15.940961,4.39784 2.572353,-10.80686 -2.514429,-14.5511 29.848508,37.27812 17.210198,11.68956 -24.543435,-22.85569 12.41045,-59.20769 36.92464,-40.52563 12.18497,11.50484 25.63905,-13.52084 33.68266,11.80885 8.71852,16.28129 6.00115,-20.32629 22.51323,-6.11956 14.09304,1.08005 24.44726,12.65992 30.03228,17.91219 2.37709,-29.53326 29.7987,0.58528 31.08225,18.5032 4.7848,-14.73722 16.23806,-17.2165 10.61796,-36.45928 4.22321,-12.28841 26.98608,-7.42798 13.15558,-25.40636 1.08059,-11.35738 21.50498,12.1612 13.71343,-7.63804 -5.82843,-23.65749 3.2836,-46.91979 -7.2183,-70.37716 3.53452,-11.71973 8.13988,-19.66007 -2.01588,-33.66582 -8.61232,-14.21294 0.5922,-19.92129 11.44231,-12.99245 -0.36865,-14.51446 -3.84153,-44.054317 -24.31087,-37.6523 C 146.17963,88.273273 8.1748173,95.669137 -129.83,103.065 Z"
         id="path56"
         inkscape:connector-curvature="0" />
    </g>
    <g
       style="fill:#cc7226;stroke:#000000"
       id="g58">
      <path
         d="m 299.717,80.245 c 18.86941,17.964557 -9.57241,-32.752976 7.884,-20.345 -1.41154,-22.306486 -5.24281,-45.22603 -19.49385,-63.2497457 14.47119,0.5393907 -11.9091,-28.3337053 -21.82511,-36.5627703 -16.63209,-6.941248 -21.67981,-17.654023 -7.44454,-30.896385 11.80724,-14.728671 27.04839,-48.393849 4.07256,-58.375209 -21.05228,14.17385 -52.71694,12.86975 -73.76606,-2.51928 -28.68938,-22.22343 -66.81666,-4.91483 -97.293271,-10.05107 -29.448208,-6.51752 -58.675229,7.89429 -85.2164557,18.72098 -19.8734973,16.6512 -46.4642363,25.53047 -57.5149413,50.789324 -13.077637,22.769483 -24.479742,48.059928 -38.872406,68.4260415 -8.813561,18.6681725 -7.343974,41.2423745 -11.268326,57.9393035 -16.66535,10.727595 -43.11642,38.916914 -19.26427,55.607561 20.604599,6.11065 43.084363,-1.5167 64.569158,-0.9152 C 62.886081,100.90291 181.25421,89.941932 299.717,80.245 Z"
         id="path60"
         inkscape:connector-curvature="0" />
    </g>
    <g
       style="fill:#cc7226"
       id="g62">
      <path
         d="m -115.6,102.6 c -6.09705,-19.901362 -21.18283,-9.690784 -13.87238,6.29803 4.89127,32.02615 45.333073,26.46568 68.807383,22.97298 48.760419,-7.4824 96.152814,-21.993 145.105187,-28.54599 C 125.99747,96.330485 167.12231,85.721879 208.9059,80.759162 238.84451,80.592879 268.73142,82.631281 298.601,84.4 291.14074,53.432029 253.14571,42.819692 225.36473,38.254024 198.54827,37.021029 171.50608,52.691552 149.51281,31.013335 137.99995,25.407865 100.73319,5.2738406 116.40103,31.433506 119.94604,61.29684 83.498836,69.726429 60.670391,65.566434 47.155081,60.786479 25.762817,56.875649 44.603101,74.19071 c 18.902799,26.89655 -19.04399,1.855448 -31.385718,4.227137 -23.806035,-3.917816 -45.512576,31.795683 -59.608195,5.550968 -24.301146,-4.22438 -45.629712,34.196805 -66.804398,9.050514 -1.99484,2.806387 -1.87649,6.357296 -2.40479,9.580671 z"
         id="path64"
         inkscape:connector-curvature="0" />
    </g>
    <g
       style="fill:#e87f3a"
       id="g66">
      <path
         d="M 133.51,25.346 C 120.43772,13.687073 103.91101,20.124723 117.57701,36.360589 122.2745,66.941977 79.469433,70.250183 57.815937,67.289643 46.051813,60.8659 26.052156,58.153265 44.740581,74.632919 c 12.856948,9.127056 6.838993,22.416259 -6.486519,11.015356 -25.555771,-16.128256 -52.954606,6.219543 -74.455349,10.391356 -16.719092,-32.639453 -40.124436,14.209669 -64.399183,7.758049 -9.51003,-2.15094 -11.2028,-11.937218 -15.64219,-2.08742 -23.1401,-29.614416 -16.1531,31.42578 4.63807,32.21875 27.337313,8.67962 56.57643,-1.24442 84.034447,-5.52544 C 38.413302,111.35293 106.03915,102.37602 172.68476,88.385342 214.07735,77.542252 256.95654,84.603934 299.038,86.073 292.21483,54.856646 254.10703,44.075207 226.36702,39.714435 198.78063,39.517948 171.14155,54.273976 148.73581,31.314139 143.91634,28.754986 138.88036,26.467265 133.51,25.346 Z"
         id="path68"
         inkscape:connector-curvature="0" />
    </g>
    <g
       style="fill:#ea8c4d"
       id="g70">
      <path
         d="M 134.819,27.091 C 121.82924,15.185223 105.52461,21.934784 118.90814,38.125234 123.68912,68.891497 80.863087,72.524333 59.062417,69.119832 47.316929,62.611351 27.386703,59.892386 46.049609,76.378881 c 12.856388,9.126793 6.839885,22.416276 -6.485893,11.015352 -25.550367,-16.11389 -52.944535,6.190012 -74.442964,10.40218 -16.934675,-32.504176 -40.620006,14.189787 -64.941903,8.591677 -8.944019,-1.02425 -11.841839,-11.65814 -16.220909,-2.64599 -21.05793,-29.996971 -16.45642,28.54432 2.19361,31.79346 26.616434,11.41037 56.742952,-0.4087 84.137374,-4.25065 C 33.962542,114.0231 99.459342,105.57741 163.9507,92.057928 190.1525,85.894078 216.73764,82.36217 243.65637,84.772425 262.27756,85.453069 280.87401,86.652092 299.474,87.746 293.88745,56.223742 255.5839,46.024787 228.34682,41.238714 200.56863,41.001932 172.64701,56.266919 150.04484,33.059416 145.22538,30.500159 140.18939,28.212337 134.819,27.091 Z"
         id="path72"
         inkscape:connector-curvature="0" />
    </g>
    <g
       style="fill:#ec9961"
       id="g74">
      <path
         d="M 136.128,28.837 C 123.46436,17.025418 106.57701,23.579564 120.32291,39.565457 126.37131,69.681464 84.490965,74.565985 63.185463,71.472348 52.147435,65.73117 27.914633,60.546566 47.358609,78.123881 c 12.856343,9.126744 6.839939,22.416289 -6.485835,11.015373 -25.544495,-16.099482 -52.933503,6.160186 -74.428949,10.412853 -17.155736,-32.382753 -41.127243,14.205233 -65.48465,9.407833 -8.533005,-0.45426 -11.987795,-10.341756 -17.237085,-3.77645 -20.21497,-26.961707 -14.74976,30.99252 3.21549,33.38182 26.822795,11.08827 56.912243,-0.96472 84.358055,-5.07848 60.588962,-17.23369 123.16043,-25.01582 184.710045,-37.900124 28.26763,-5.787751 56.63177,-12.117315 85.65716,-9.201216 19.43355,0.642951 38.83927,1.895858 58.24816,3.03351 C 294.91826,57.695893 256.56873,47.258076 229.34324,42.688838 201.70088,42.948254 173.88994,57.927401 151.35381,34.805139 146.53434,32.245986 141.49836,29.958265 136.128,28.837 Z"
         id="path76"
         inkscape:connector-curvature="0" />
    </g>
    <g
       style="fill:#eea575"
       id="g78">
      <path
         d="M 137.438,30.583 C 124.83831,18.553304 108.09103,25.420187 121.6959,41.336995 128.30537,71.759685 86.230329,77.496367 64.671214,73.548563 53.722155,67.716156 29.16465,62.045308 48.667609,79.869881 c 12.856343,9.126745 6.839939,22.416289 -6.485835,11.015372 -25.538878,-16.084962 -52.923095,6.130242 -74.415847,10.423697 -17.381356,-32.281099 -41.641109,14.25696 -66.024514,10.2076 -12.160543,-2.3689 -20.525873,-9.5675 -28.756813,-10.68077 -9.47837,30.38768 22.29449,54.5656 50.300376,43.62025 50.289715,-5.02614 97.61403,-25.01047 147.826988,-30.76501 C 118.75038,105.74841 165.91837,94.067878 213.70935,87.707785 242.62599,87.46386 271.49601,89.407069 300.347,91.092 295.93633,59.179722 257.56036,48.484286 230.33619,44.137508 202.83591,44.899352 175.13338,59.586492 152.66381,36.551139 147.84434,33.991986 142.80836,31.704265 137.438,30.583 Z"
         id="path80"
         inkscape:connector-curvature="0" />
    </g>
    <g
       style="fill:#f1b288"
       id="g82">
      <path
         d="M 138.747,32.328 C 125.84579,20.82129 108.42897,27.23282 123.14506,43.119517 130.95391,73.650529 87.750969,79.035391 66.427322,75.302202 55.521858,69.631658 30.328816,63.602146 49.97661,81.614881 c 12.856342,9.126745 6.839939,22.416289 -6.485835,11.015372 -25.533288,-16.070547 -52.9126886,6.100528 -74.402802,10.434367 -17.733043,-32.195202 -42.431844,15.22046 -67.540934,10.66185 -13.405799,1.6104 -31.930349,-25.199385 -28.296519,1.63916 -2.61215,35.10994 38.979898,37.88547 63.684022,30.20256 46.235507,-7.94131 90.47288,-24.94744 137.229381,-30.44501 C 121.17362,107.21747 167.74719,95.778037 214.90993,89.444181 243.57097,89.18086 272.18671,91.100084 300.783,92.764 297.50771,60.74124 259.11745,50.392494 232.33003,45.618093 204.6409,46.347934 176.65363,61.607991 153.97281,38.296139 149.15334,35.736986 144.11736,33.449265 138.747,32.328 Z"
         id="path84"
         inkscape:connector-curvature="0" />
    </g>
    <g
       style="fill:#f3bf9c"
       id="g86">
      <path
         d="M 140.056,34.073 C 127.05205,22.620642 109.47255,29.100695 124.57154,44.913555 133.32967,75.762972 89.37723,81.465633 67.96084,77.214726 57.11742,71.532081 31.567867,65.183367 51.285609,83.360881 c 12.856342,9.126744 6.83994,22.416289 -6.485834,11.015373 -25.527716,-16.056192 -52.9023497,6.070946 -74.389809,10.444976 -17.995511,-32.179347 -42.99322,15.34693 -68.079337,11.49625 -13.027509,1.64948 -32.072439,-25.392688 -28.099229,2.4818 -3.02845,33.44918 36.648576,37.50469 60.449619,29.77884 44.955372,-7.29609 87.653947,-24.55747 132.956855,-30.28757 C 116.24619,109.67767 164.61642,99.2237 213.27097,91.217239 242.62334,90.772204 271.93444,92.739365 301.22,94.437 298.47907,62.267049 260.12774,51.601062 233.31534,47.056056 205.77748,48.30032 177.89766,63.269128 155.28184,40.041416 150.46238,37.482159 145.42639,35.194337 140.056,34.073 Z"
         id="path88"
         inkscape:connector-curvature="0" />
    </g>
    <g
       style="fill:#f5ccb0"
       id="g90">
      <path
         d="M 141.365,35.819 C 128.18026,24.716887 110.16033,30.941987 125.97658,46.677429 135.51,77.536242 90.818067,83.016643 69.567852,78.948884 58.747422,73.381263 32.787238,66.814329 52.59461,85.105881 c 12.856342,9.126745 6.839939,22.416289 -6.485835,11.015373 -25.522094,-16.04171 -52.8919102,6.041126 -74.376698,10.455646 -18.280324,-32.188417 -43.557661,15.52641 -68.626059,12.33137 -12.228278,-0.21894 -30.654858,-23.117391 -27.490848,2.9293 -4.62155,33.25868 33.538625,36.28357 57.071031,29.47805 47.344053,-6.57768 91.553358,-26.94315 139.254295,-31.82822 48.564184,-8.14432 96.681244,-19.818922 145.370704,-26.569288 26.0301,-3.323557 66.35285,7.788238 83.33517,-1.078228 C 295.43452,61.191883 256.33472,50.66127 229.37496,48.486288 202.05654,54.585712 175.63176,61.214746 152.91649,39.924575 149.22816,38.153977 145.38106,36.657762 141.365,35.819 Z"
         id="path92"
         inkscape:connector-curvature="0" />
    </g>
    <g
       style="fill:#f8d8c4"
       id="g94">
      <path
         d="M 142.674,37.565 C 129.48923,26.46237 111.46925,32.687709 127.28558,48.423299 136.81934,79.281892 92.127768,84.762847 70.877633,80.694856 60.057177,75.127169 34.097302,68.560429 53.90461,86.851881 c 12.85637,9.126797 6.83991,22.416259 -6.485893,11.01538 -25.516795,-16.027315 -52.8822636,6.011329 -74.364627,10.466209 -18.381621,-32.062255 -43.690816,14.88969 -68.169581,13.30566 -12.878479,-1.47506 -33.375679,-23.980389 -28.279029,4.62958 -4.19662,31.92784 33.043917,34.61534 55.591154,27.72653 47.078574,-6.11137 90.650475,-27.5371 138.060748,-32.21746 49.526998,-8.32227 98.615238,-20.11146 148.254508,-27.122248 25.85018,-3.034132 65.10214,7.095388 82.5028,-0.678496 C 297.69201,62.914272 257.69931,52.423792 231.24196,49.91392 203.80248,56.212827 177.10597,63.177204 154.22549,41.670575 150.53716,39.899977 146.69006,38.403762 142.674,37.565 Z"
         id="path96"
         inkscape:connector-curvature="0" />
    </g>
    <g
       style="fill:#fae5d7"
       id="g98">
      <path
         d="M 143.983,39.31 C 130.82691,28.030058 112.95954,34.476624 128.63153,50.195296 138.45224,81.293502 93.617944,87.175715 72.187797,82.580597 61.40253,76.93511 35.406313,70.242745 55.21361,88.596881 68.069952,97.723625 62.053549,111.01317 48.727775,99.612255 23.216559,83.599298 -4.1436118,105.59423 -25.62349,110.08941 c -18.404458,-31.788819 -43.866123,14.18568 -67.821874,14.08767 -13.862956,0.15984 -34.760526,-24.509585 -30.226186,3.62516 -3.50371,32.53777 34.826574,37.21256 57.953378,28.95212 45.576737,-7.50622 88.165362,-27.23756 134.187387,-32.66915 48.624565,-8.9212 97.152225,-18.35818 145.717215,-27.595489 27.43308,-3.451036 68.36674,6.936539 87.28118,-0.903673 C 298.66603,64.40659 258.69017,53.627681 232.26702,51.380026 205.01161,58.216027 178.34905,64.791619 155.53449,43.415575 151.84616,41.644977 147.99906,40.148762 143.983,39.31 Z"
         id="path100"
         inkscape:connector-curvature="0" />
    </g>
    <g
       style="fill:#fcf2eb"
       id="g102">
      <path
         d="M 145.292,41.055 C 132.27206,29.362382 114.81965,36.251785 129.94516,51.971374 139.80009,83.412138 95.130622,90.034895 73.35181,84.54295 62.610354,78.724707 36.758818,71.94963 56.522609,90.342881 c 12.856343,9.126743 6.839939,22.416289 -6.485835,11.015379 -25.505355,-15.998672 -52.8609251,5.95258 -74.3377,10.48714 -18.622902,-31.683172 -44.400474,14.34176 -68.388276,14.7712 -14.646588,1.0312 -35.410818,-25.56819 -30.549618,3.82749 -3.42396,32.84358 35.106625,37.55567 58.414551,28.90944 44.798817,-7.54951 86.465902,-27.62961 131.730279,-32.99811 49.56805,-9.07138 99.03543,-18.6796 148.53307,-28.124554 27.15602,-3.518975 67.90822,6.984374 86.48021,-1.035874 C 299.85134,66.50733 261.01381,55.730767 235.32093,52.689229 207.59772,59.079558 180.15358,67.185901 156.84358,45.160791 153.15522,43.390114 149.3081,41.893821 145.292,41.055 Z"
         id="path104"
         inkscape:connector-curvature="0" />
    </g>
    <g
       style="fill:#ffffff"
       id="g106">
      <path
         d="m -115.8,119.601 c -16.10736,0.60289 -5.38648,50.99361 17.264451,44.77229 45.58436,1.75032 88.203003,-17.99968 131.396544,-29.81796 C 94.123526,123.20156 155.504,111.96194 216.68987,99.970142 243.68371,96.725898 283.27455,106.2972 302.33955,99.299419 301.67638,68.392668 262.50369,57.344181 237.16949,54.142697 210.38134,59.704786 183.46879,69.719171 160.66801,48.556423 147.22786,41.526508 114.49929,26.07302 131.47833,53.335049 141.04582,85.624611 101.6376,93.864723 78.50183,86.205882 65.222191,82.23718 38.892342,74.393983 59.003174,93.390823 77.905886,120.28795 39.959282,95.245987 27.61731,97.617927 4.2406281,93.397326 -17.337575,128.99072 -31.497578,104.02118 c -28.504027,-6.196263 -46.033772,36.53386 -74.944952,22.10696 -3.40694,-1.73568 -6.50045,-4.0065 -9.35747,-6.52714 z"
         id="path108"
         inkscape:connector-curvature="0" />
    </g>
    <g
       style="fill:#000000"
       id="g110">
      <path
         d="m -74.2,149.601 c -7.07961,12.59968 25.317464,32.95494 -3.334955,20.96988 -9.512166,-7.46231 -25.245205,-32.01672 -1.422845,-21.98392 z"
         id="path112"
         inkscape:connector-curvature="0" />
    </g>
    <g
       style="fill:#cccccc"
       id="g114">
      <path
         d="m 65.8,102 c 20.168633,20.58422 14.564633,52.25046 26.20715,76.9994 7.831928,31.58514 24.26555,-34.20878 16.04647,-45.93075 C 98.976762,119.36342 81.430665,106.55084 65.8,102 Z"
         id="path116"
         inkscape:connector-curvature="0" />
    </g>
    <g
       style="fill:#000000"
       id="g118">
      <path
         d="m -54.2,176.401 c 11.979907,12.93681 -6.35412,33.74109 1.706607,43.42698 -4.562784,10.87059 8.913109,-1.95739 5.534794,11.9073 6.457685,9.63793 24.152106,26.96731 17.34008,3.93954 -6.361574,-17.42368 -22.108077,-14.8928 -14.423483,-32.46989 C -60.30443,212.76428 -23.919096,168.85425 -54.2,176.401 Z"
         id="path120"
         inkscape:connector-curvature="0" />
    </g>
    <g
       style="fill:#cccccc"
       id="g122">
      <path
         d="m -21.8,193.201 c -13.5525,-6.98636 -54.877753,34.39049 -24.750938,11.36101 7.540694,-5.06781 15.617843,-9.93814 24.750938,-11.36101 z"
         id="path124"
         inkscape:connector-curvature="0" />
    </g>
    <g
       style="fill:#cccccc"
       id="g126">
      <path
         d="m -11.4,201.201 c -13.5525,-6.98636 -54.877754,34.39049 -24.750938,11.36101 7.540694,-5.06781 15.617843,-9.93814 24.750938,-11.36101 z"
         id="path128"
         inkscape:connector-curvature="0" />
    </g>
    <g
       style="fill:#cccccc"
       id="g130">
      <path
         d="m 1.8,186.001 c -13.5525,-6.98636 -54.877754,34.39049 -24.750938,11.36101 C -15.410244,192.2942 -7.3330954,187.42387 1.8,186.001 Z"
         id="path132"
         inkscape:connector-curvature="0" />
    </g>
    <g
       style="fill:#cccccc"
       id="g134">
      <path
         d="M -21.4,229.601 C -34.808237,218.24373 -67.937924,252.31317 -64.418511,249.8239 -50.559035,242.22573 -37.41891,232.07888 -21.4,229.601 Z"
         id="path136"
         inkscape:connector-curvature="0" />
    </g>
    <g
       style="fill:#cccccc"
       id="g138">
      <path
         d="m -20.2,218.801 c -10.362772,-12.39958 -50.607365,29.99952 -20.145692,6.91331 6.010487,-3.74391 12.70628,-8.01735 20.145692,-6.91331 z"
         id="path140"
         inkscape:connector-curvature="0" />
    </g>
    <g
       style="fill:#cccccc"
       id="g142">
      <path
         d="m -34.6,266.401 c -19.803329,13.82336 13.108975,-7.32593 -0.08685,8.44173 -7.464858,17.67916 17.404955,-18.03011 21.751153,6.2268 9.3771188,-18.95885 4.1497519,13.20158 13.6435085,-1.27009 13.9251255,1.03672 2.9224538,33.67978 9.3921875,9.75156 -3.6425555,-11.885 13.991246,-18.67459 17.7,-5.95 -5.172221,-16.34137 24.41447,12.31717 11.425,-5.975 13.965041,-2.06789 22.314694,42.82402 15.770312,14.40937 C 51.37291,285.91641 55.048045,275.6686 57,288.001 48.535183,261.42635 93.135282,300.01662 84.976663,267.39687 89.830083,248.62642 97.434294,206.52123 65.538429,228.60712 32.158952,241.20508 -1.2205227,253.80304 -34.6,266.401 Z"
         id="path144"
         inkscape:connector-curvature="0" />
    </g>
    <g
       style="fill:#000000"
       id="g146">
      <path
         d="m -29.8,173.601 c 26.8645865,-8.12251 59.080081,9.29306 80.299737,-15.94395 17.792142,-12.88321 46.472413,-4.88024 50.294713,17.98476 -0.13701,26.85506 -13.455539,52.17232 -24.367334,76.152 -14.645849,31.98349 -51.941334,19.25047 -79.5071869,21.43433 -21.5397421,5.50917 -47.1066431,-9.57672 -26.0253541,-31.109 C -18.308413,221.97233 -25.263359,194.90192 -29.8,173.601 Z"
         id="path148"
         inkscape:connector-curvature="0" />
    </g>
    <g
       style="fill:#e5668c"
       id="g150">
      <path
         d="m -7.8,175.601 c 7.8226345,30.56431 -18.822519,58.14567 -17.008617,86.21598 22.9052568,3.6066 49.564079,4.06462 72.299631,0.99404 20.587137,-17.5939 37.855945,-46.62759 34.252472,-74.46018 -12.736148,-22.8888 -44.849325,-7.12719 -66.3759,-12.55673 C 7.6455055,175.68509 -0.07724733,175.63149 -7.8,175.601 Z"
         id="path152"
         inkscape:connector-curvature="0" />
    </g>
    <g
       style="fill:#b23259"
       id="g154">
      <path
         d="m -9.831,206.497 c 4.1195395,-16.13017 -0.43591,-40.46562 24.869552,-30.06893 19.827508,3.53577 42.259186,-8.65097 55.480284,-14.06938 19.637993,14.62728 13.142276,44.1618 -14.252666,36.51989 -19.023542,6.42599 -40.856866,-4.0673 -58.1964966,2.9562 -2.6335578,1.55407 -5.2671156,3.10815 -7.9006734,4.66222 z"
         id="path156"
         inkscape:connector-curvature="0" />
    </g>
    <g
       style="fill:#a5264c"
       id="g158">
      <path
         d="m -5.4,222.801 c -8.459993,30.15798 32.274103,27.87375 49.112322,20.3909 8.326802,-11.12423 29.483653,-36.73059 1.863914,-26.62564 C 28.564129,218.47836 11.596695,220.76074 -5.4,222.801 Z"
         id="path160"
         inkscape:connector-curvature="0" />
    </g>
    <g
       style="fill:#ff727f;stroke:#000000"
       id="g162">
      <path
         d="m -9.8,174.401 c 0.5125465,21.88958 -6.976714,65.55162 24.896648,65.78252 26.699487,7.90832 41.147018,-15.62007 53.525754,-34.41362 C 83.41604,183.96485 68.743414,141.27967 40.319494,166.2387 24.968632,182.10395 7.7521484,170.27881 -9.8,174.401 Z"
         id="path164"
         inkscape:connector-curvature="0" />
    </g>
    <g
       style="fill:#ffffcc;stroke:#000000;stroke-width:0.5"
       id="g166">
      <path
         d="m -8.2,249.201 c -14.210342,0.83209 -50.573168,-32.68346 -34.172157,-3.86546 6.670544,14.35794 26.741066,23.73604 34.172157,3.86546 z"
         id="path168"
         inkscape:connector-curvature="0" />
    </g>
    <g
       style="fill:#cc3f4c"
       id="g170">
      <path
         d="M 71.742,185.229 C 85.175851,153.00808 40.491891,155.40734 28.878515,172.83735 12.666948,170.44417 -23.474029,172.59411 -9.1004883,197.88957 16.844778,188.08503 45.57363,192.32677 71.742,185.229 Z"
         id="path172"
         inkscape:connector-curvature="0" />
    </g>
    <g
       style="stroke:#a51926;stroke-width:2"
       id="g174">
      <path
         d="m 28.6,175.201 c 9.884806,16.56349 -16.327313,27.73425 -11.2,44.4"
         id="path176"
         inkscape:connector-curvature="0" />
    </g>
    <g
       style="fill:#ffffcc;stroke:#000000;stroke-width:0.5"
       id="g178">
      <path
         d="m -19.4,260.001 c -6.75069,-18.73849 18.45343646,4.84117 0,0 z"
         id="path180"
         inkscape:connector-curvature="0" />
    </g>
    <g
       style="fill:#ffffcc;stroke:#000000;stroke-width:0.5"
       id="g182">
      <path
         d="m -14.36,261.201 c -5.700013,-15.19253 15.9936359,3.00393 0,0 z"
         id="path184"
         inkscape:connector-curvature="0" />
    </g>
    <g
       style="fill:#ffffcc;stroke:#000000;stroke-width:0.5"
       id="g186">
      <path
         d="m -9.56,261.201 c -4.798051,-15.30159 14.3243149,3.61095 0,0 z"
         id="path188"
         inkscape:connector-curvature="0" />
    </g>
    <g
       style="fill:#ffffcc;stroke:#000000;stroke-width:0.5"
       id="g190">
      <path
         d="m -2.96,261.401 c -4.8470132,-15.32631 14.392884,3.65074 0,0 z"
         id="path192"
         inkscape:connector-curvature="0" />
    </g>
    <g
       style="fill:#ffffcc;stroke:#000000;stroke-width:0.5"
       id="g194">
      <path
         d="m 3.52,261.321 c -5.1954176,-15.61576 14.972467,4.5131 0,0 z"
         id="path196"
         inkscape:connector-curvature="0" />
    </g>
    <g
       style="fill:#ffffcc;stroke:#000000;stroke-width:0.5"
       id="g198">
      <path
         d="m 10.2,262.001 c -7.1694299,-18.89658 19.133009,5.72372 0,0 z"
         id="path200"
         inkscape:connector-curvature="0" />
    </g>
    <g
       style="stroke:#a5264c;stroke-width:2"
       id="g202">
      <path
         d="m -18.2,244.801 c 10.1308466,-4.10929 20.5340341,2.92358 30.8,0.4"
         id="path204"
         inkscape:connector-curvature="0" />
    </g>
    <g
       style="stroke:#a5264c;stroke-width:2"
       id="g206">
      <path
         d="m 15.8,253.601 c 8.574871,-15.26686 34.622795,-1.54499 36.8,-22.8"
         id="path208"
         inkscape:connector-curvature="0" />
    </g>
    <g
       style="fill:#ffffcc;stroke:#000000;stroke-width:0.5"
       id="g210">
      <path
         d="M 33,237.601 C 13.958518,231.93635 20.411452,284.45942 37.955685,257.22583 38.259861,250.34867 35.379972,243.88212 33,237.601 Z"
         id="path212"
         inkscape:connector-curvature="0" />
    </g>
    <g
       style="stroke:#a5264c;stroke-width:2"
       id="g214">
      <path
         d="m 47,244.801 c 0.96123,-0.43763 4.96123,-1.23763 6,-1.2"
         id="path216"
         inkscape:connector-curvature="0" />
    </g>
    <g
       style="stroke:#a5264c;stroke-width:2"
       id="g218">
      <path
         d="m 53.5,228.401 c 1.091786,-1.21514 6.22512,-5.01514 7.7,-5.7"
         id="path220"
         inkscape:connector-curvature="0" />
    </g>
    <g
       style="fill:#b2b2b2"
       id="g222">
      <path
         d="m -25.8,265.201 c 11.104454,1.41279 34.581036,2.99377 10.396513,3.71549 -1.302566,0.83245 -21.377236,-5.80115 -10.396513,-3.71549 z"
         id="path224"
         inkscape:connector-curvature="0" />
    </g>
    <g
       style="fill:#ffffcc;stroke:#000000;stroke-width:0.5"
       id="g226">
      <path
         d="M -11.8,172.001 C 16.023224,154.37694 17.798213,228.05584 3.7017818,201.01685 -1.2368472,191.55933 -11.837456,183.10601 -11.8,172.001 Z"
         id="path228"
         inkscape:connector-curvature="0" />
    </g>
    <g
       style="fill:#ffffcc;stroke:#000000;stroke-width:0.5"
       id="g230">
      <path
         d="m -88.9,169.301 c 19.891032,-9.18238 35.774917,34.58757 25.043539,32.50893 C -75.501556,194.22013 -84.805135,182.6563 -88.9,169.301 Z"
         id="path232"
         inkscape:connector-curvature="0" />
    </g>
    <g
       style="fill:#ffffcc;stroke:#000000;stroke-width:0.5"
       id="g234">
      <path
         d="m -67.039,173.818 c 16.346636,4.00574 -1.942364,19.93802 0,0 z"
         id="path236"
         inkscape:connector-curvature="0" />
    </g>
    <g
       style="fill:#000000"
       id="g238">
      <path
         d="m -67,173.601 c 8.248762,11.69947 50.719502,5.37796 38.521734,-0.1233 -12.717007,2.06797 -25.813669,2.5089 -38.521734,0.1233 z"
         id="path240"
         inkscape:connector-curvature="0" />
    </g>
    <g
       style="fill:#ffffcc;stroke:#000000;stroke-width:0.5"
       id="g242">
      <path
         d="m -22.4,173.801 c -16.84822,6.02051 11.49941,21.94615 0.695313,2.05 l -0.453702,-1.33766 z"
         id="path244"
         inkscape:connector-curvature="0" />
    </g>
    <g
       style="fill:#ffffcc;stroke:#000000;stroke-width:0.5"
       id="g246">
      <path
         d="m -59.885,179.265 c 10.037435,17.19062 9.086223,-12.3434 0,0 z"
         id="path248"
         inkscape:connector-curvature="0" />
    </g>
    <g
       style="fill:#ffffcc;stroke:#000000;stroke-width:0.5"
       id="g250">
      <path
         d="m -52.707,179.514 c 9.354294,15.06904 7.895288,-8.08124 0,0 z"
         id="path252"
         inkscape:connector-curvature="0" />
    </g>
    <g
       style="fill:#ffffcc;stroke:#000000;stroke-width:0.5"
       id="g254">
      <path
         d="m -45.494,179.522 c 10.189622,16.02491 9.206216,-8.62847 0,0 z"
         id="path256"
         inkscape:connector-curvature="0" />
    </g>
    <g
       style="fill:#ffffcc;stroke:#000000;stroke-width:0.5"
       id="g258">
      <path
         d="m -38.618,179.602 c 8.169033,16.28037 12.175791,-8.46338 0,0 z"
         id="path260"
         inkscape:connector-curvature="0" />
    </g>
    <g
       style="fill:#e5e5b2"
       id="g262">
      <path
         d="m -74.792,183.132 c -27.42539,-7.31438 9.296403,-20.95391 7.971299,-0.93138 -1.763211,2.58225 -5.594908,1.77814 -7.971299,0.93138 z"
         id="path264"
         inkscape:connector-curvature="0" />
    </g>
    <g
       style="fill:#e5e5b2"
       id="g266">
      <path
         d="m -9.724,178.47 c -13.92012,-15.50183 35.758091,0.28205 9.38995313,-0.72457 l -4.71780243,0.079 z"
         id="path268"
         inkscape:connector-curvature="0" />
    </g>
    <g
       style="fill:#cc7226"
       id="g270">
      <path
         d="M 43.88,40.321 C 72.79102,40.922148 108.19927,11.242603 94.011528,-19.55067 89.883099,-48.751456 62.149349,-68.059854 34.033074,-55.993521 1.4751722,-48.4108 8.0637508,-14.966525 12.50574,9.3062235 13.437631,26.348274 8.9524823,51.802663 32.761164,38.232044 36.565817,38.071323 40.365778,38.898491 43.88,40.321 Z"
         id="path272"
         inkscape:connector-curvature="0" />
    </g>
    <g
       style="fill:#ea8e51"
       id="g274">
      <path
         d="m 8.088,-33.392 c 4.903459,22.939692 3.341484,63.079323 9.761373,74.955608 C 46.437017,38.150228 83.626606,38.48559 94.92469,5.6898227 98.158947,-17.706282 86.537291,-55.084672 59.216041,-56.677948 38.291583,-61.144822 19.794884,-50.189934 8.088,-33.392 Z"
         id="path276"
         inkscape:connector-curvature="0" />
    </g>
    <g
       style="fill:#efaa7c"
       id="g278">
      <path
         d="m 8.816,-32.744 c 4.587458,22.448488 3.658948,61.716225 9.276347,73.393103 C 46.848005,37.588801 82.475787,38.037187 94.514057,5.5693199 96.172745,-18.159168 86.055448,-54.759222 57.435022,-56.15669 37.454705,-59.49462 20.058729,-48.475621 8.816,-32.744 Z"
         id="path280"
         inkscape:connector-curvature="0" />
    </g>
    <g
       style="fill:#f4c6a8"
       id="g282">
      <path
         d="m 9.544,-32.096 c 4.688617,22.05844 3.254192,60.781943 9.363652,72.124073 C 46.414551,36.586004 82.36498,37.304952 93.164581,5.5387044 96.318362,-17.317436 84.763515,-53.773953 57.834294,-54.751464 38.30357,-58.26661 20.19049,-48.183216 9.544,-32.096 Z"
         id="path284"
         inkscape:connector-curvature="0" />
    </g>
    <g
       style="fill:#f9e2d3"
       id="g286">
      <path
         d="m 10.272,-31.448 c 4.590972,21.6276748 3.2054,59.617082 9.172797,70.724888 C 47.604464,36.353215 85.620713,35.631435 93.275249,1.2393937 94.277322,-24.334843 77.974957,-60.732644 47.013925,-53.847734 32.054386,-52.797919 18.00502,-44.334984 10.272,-31.448 Z"
         id="path288"
         inkscape:connector-curvature="0" />
    </g>
    <g
       style="fill:#ffffff"
       id="g290">
      <path
         d="M 44.2,36.8 C 75.055297,37.918797 105.94059,3.5579739 86.992581,-25.864995 81.128036,-55.497764 44.568839,-61.383123 23.4082,-44.342362 -1.2911646,-27.316918 21.249209,-0.328842 15.935401,22.518419 11.669976,49.217852 29.863122,28.609546 44.2,36.8 Z"
         id="path292"
         inkscape:connector-curvature="0" />
    </g>
    <g
       style="fill:#cccccc"
       id="g294">
      <path
         d="M 90.601,2.8 C 68.707127,13.717321 31.576754,-2.5352013 23.309813,29.824451 42.489852,29.236999 63.357308,12.115293 83.36756,6.0647304 l 3.617158,-1.6313955 z"
         id="path296"
         inkscape:connector-curvature="0" />
    </g>
    <g
       style="fill:#000000"
       id="g298">
      <path
         d="M 94.401,0.6 C 71.484138,15.305545 37.508627,4.7658108 21.194508,31.555428 37.116699,42.193071 60.863596,39.289002 66.174431,17.248952 71.069355,7.1389327 90.601094,13.707844 94.401,0.6 Z"
         id="path300"
         inkscape:connector-curvature="0" />
    </g>
    <g
       style="fill:#99cc32"
       id="g302">
      <path
         d="M 47,36.514 C 12.545291,37.646713 54.180697,-5.8332941 59.446,25.2 59.559907,31.695518 53.173928,36.716525 47,36.514 Z"
         id="path304"
         inkscape:connector-curvature="0" />
    </g>
    <g
       style="fill:#659900"
       id="g306">
      <path
         d="M 43.377,19.83 C 18.869954,21.885467 65.435907,8.0362541 53.821668,18.865191 50.323146,18.955205 46.838015,19.326853 43.377,19.83 Z"
         id="path308"
         inkscape:connector-curvature="0" />
    </g>
    <g
       style="fill:#ffffff"
       id="g310">
      <path
         d="m 55.4,19.6 c -6.604144,-6.916587 -3.934265,4.59377 0,0 z"
         id="path312"
         inkscape:connector-curvature="0" />
    </g>
    <g
       style="fill:#000000"
       id="g314">
      <path
         d="m 45.4,27.726 c -17.275439,-10.037476 16.625344,-10.180731 0,0 z"
         id="path316"
         inkscape:connector-curvature="0" />
    </g>
    <g
       style="fill:#cc7226"
       id="g318">
      <path
         d="M -58.6,14.4 C -72.188508,-4.3077318 -27.997546,-42.078848 -62.640129,-45.262511 -73.41631,-34.479686 -74.058006,-15.708279 -87.576815,-8.2879841 -87.93064,1.7111225 -66.033433,43.849825 -58.6,14.4 Z"
         id="path320"
         inkscape:connector-curvature="0" />
    </g>
    <g
       style="fill:#ffffff"
       id="g322">
      <path
         d="m -59.6,12.56 c -9.902965,-15.7821713 25.943036,-56.387132 -5.574947,-51.511431 -11.190806,20.133303 -31.539417,40.2314362 -6.087892,58.847897 C -65.601784,25.135387 -60.389484,17.946765 -59.6,12.56 Z"
         id="path324"
         inkscape:connector-curvature="0" />
    </g>
    <g
       style="fill:#eb955c"
       id="g326">
      <path
         d="m -51.05,-42.61 c -22.852077,-10.318333 -19.652286,28.761459 -35.72417,34.6793649 -1.393081,27.8666171 36.157248,42.2570031 27.182854,4.7128479 C -61.271411,-19.929056 -42.396656,-25.053564 -51.05,-42.61 Z"
         id="path328"
         inkscape:connector-curvature="0" />
    </g>
    <g
       style="fill:#f2b892"
       id="g330">
      <path
         d="M -51.5,-41.62 C -73.751099,-51.702618 -70.647236,-13.594444 -86.298039,-7.8371326 -89.139198,11.927892 -55.528643,37.371935 -59.603309,3.6336202 -64.859548,-15.330541 -43.359341,-23.290008 -51.5,-41.62 Z"
         id="path332"
         inkscape:connector-curvature="0" />
    </g>
    <g
       style="fill:#f8dcc8"
       id="g334">
      <path
         d="M -51.95,-40.63 C -73.244285,-50.291517 -70.812221,-13.45956 -85.738925,-7.7598354 -89.047322,12.801853 -54.555482,35.586181 -59.92442,2.460411 -64.344085,-15.439949 -43.923666,-23.055907 -51.95,-40.63 Z"
         id="path336"
         inkscape:connector-curvature="0" />
    </g>
    <g
       style="fill:#ffffff"
       id="g338">
      <path
         d="M -59.6,12.46 C -69.436793,-3.28725 -33.671867,-43.959545 -65.164774,-38.965447 -76.371901,-18.827799 -96.718659,1.3031325 -71.239119,19.91039 -65.532267,25.148482 -60.376532,17.828821 -59.6,12.46 Z"
         id="path340"
         inkscape:connector-curvature="0" />
    </g>
    <g
       style="fill:#cccccc"
       id="g342">
      <path
         d="M -62.7,6.2 C -72.881717,-0.73545813 -93.54492,-6.4586908 -72.13389,4.0230776 -68.976636,4.6936965 -65.846891,5.4839998 -62.7,6.2 Z"
         id="path344"
         inkscape:connector-curvature="0" />
    </g>
    <g
       style="fill:#000000"
       id="g346">
      <path
         d="m -79.8,0 c 19.75725,-9.7365433 22.891233,34.658957 7.212826,16.236187 C -74.555982,10.698401 -74.596415,3.7951997 -79.8,0 Z"
         id="path348"
         inkscape:connector-curvature="0" />
    </g>
    <g
       style="fill:#99cc32"
       id="g350">
      <path
         d="m -71.4,3.8 c 24.135331,-0.2334751 -2.940356,32.334201 0,0 z"
         id="path352"
         inkscape:connector-curvature="0" />
    </g>
    <g
       style="fill:#000000"
       id="g354">
      <path
         d="M 14.595,46.349 C 34.500849,27.241327 61.613251,45.364367 81.998363,53.196912 105.76728,57.39401 114.65022,30.370017 112.24887,14.235281 119.7888,18.83173 131.62775,39.318916 124.29043,17.945018 117.71581,9.7812924 127.24395,-25.76051 110.401,-4.8 92.385469,0.67551995 85.316545,9.0833337 103.80767,15.017963 98.375961,28.556445 80.79809,50.293772 70.933593,37.949472 91.817607,41.667253 64.059472,19.003027 86.479443,17.448939 94.321467,3.7774522 70.120838,25.541795 66.816486,30.959366 50.701529,52.081677 19.765636,16.346036 12.028452,46.225997 Z"
         id="path356"
         inkscape:connector-curvature="0" />
    </g>
    <g
       style="fill:#000000"
       id="g358">
      <path
         d="m 209.401,-120 c -35.37089,6.35378 -33.42364,50.982284 -10.77372,70.707029 14.16549,14.275895 40.71883,-3.612411 56.26379,-12.166993 11.65917,-18.18629 34.64404,-53.044936 9.40993,-68.390036 -16.07173,11.73713 -36.27932,8.68045 -54.9,9.85 z"
         id="path360"
         inkscape:connector-curvature="0" />
    </g>
    <g
       style="fill:#000000"
       id="g362">
      <path
         d="m 264.022,-120.99 c -23.06651,-11.85942 -55.98705,31.081906 -28.04624,50.920346 18.72513,-0.06457 26.88858,-35.730076 28.04624,-50.920346 z"
         id="path364"
         inkscape:connector-curvature="0" />
    </g>
    <g
       style="fill:#323232"
       id="g366">
      <path
         d="m 263.648,-120.632 c -20.4301,-8.99426 -50.71868,22.383612 -32.9197,45.2086 17.66946,22.202845 34.12822,-35.55639 32.9197,-45.2086 z"
         id="path368"
         inkscape:connector-curvature="0" />
    </g>
    <g
       style="fill:#666666"
       id="g370">
      <path
         d="m 263.274,-120.274 c -20.50235,-9.21588 -52.3403,25.301157 -29.86294,46.189103 18.98175,13.584219 29.3937,-35.240233 29.86294,-46.189103 z"
         id="path372"
         inkscape:connector-curvature="0" />
    </g>
    <g
       style="fill:#999999"
       id="g374">
      <path
         d="m 262.9,-119.916 c -24.1014,-8.22568 -46.63616,23.811531 -32.26754,45.218866 23.37143,11.601993 30.92403,-29.733646 32.26754,-45.218866 z"
         id="path376"
         inkscape:connector-curvature="0" />
    </g>
    <g
       style="fill:#cccccc"
       id="g378">
      <path
         d="m 262.526,-119.558 c -23.64779,-7.98035 -45.69901,23.37708 -31.61627,44.375305 22.93686,11.376202 30.29978,-29.189115 31.61627,-44.375305 z"
         id="path380"
         inkscape:connector-curvature="0" />
    </g>
    <g
       style="fill:#ffffff"
       id="g382">
      <path
         d="m 262.151,-119.2 c -23.19378,-7.73435 -44.76064,22.942951 -30.96405,43.531718 22.50282,11.15078 29.6751,-28.644418 30.96405,-43.531718 z"
         id="path384"
         inkscape:connector-curvature="0" />
    </g>
    <g
       style="fill:#992600"
       id="g386">
      <path
         d="M 50.6,84 C 33.626251,60.883942 -2.7699757,56.635216 -24.521072,75.314051 -16.992987,66.963548 9.8191259,58.525623 11.04359,62.016519 -7.5450392,56.072889 -38.693016,66.107694 -42.339153,75.942344 -36.037484,55.674404 -0.20807155,58.761532 2.8282189,57.086895 -19.619983,50.893643 -50.126528,55.483818 -62.94375,76.8375 -54.338628,43.643814 -0.43127987,53.17147 8.588235,54.366973 -11.140835,34.079709 -43.853399,44.532124 -65.727206,55.593986 -42.658808,36.107485 -11.329593,37.757703 16.9,34.63125 3.4631182,55.337058 43.225676,67.693506 50.6,84 Z"
         id="path388"
         inkscape:connector-curvature="0" />
    </g>
    <g
       style="fill:#cccccc"
       id="g390">
      <path
         d="M 189,278 C 186.37251,266.50106 161.53829,231.0034 167.60838,236.69766 179.93213,246.21607 195.66691,260.64216 189,278 Z"
         id="path392"
         inkscape:connector-curvature="0" />
    </g>
    <g
       style="fill:#cccccc"
       id="g394">
      <path
         d="m 236,285.5 c -13.59121,-27.08453 -27.11548,-54.42094 -45,-79 18.88821,17.41365 54.3486,51.18824 45.35154,70.27234 l 0.26219,4.9512 z"
         id="path396"
         inkscape:connector-curvature="0" />
    </g>
    <g
       style="fill:#cccccc"
       id="g398">
      <path
         d="M 292.5,237 C 273.17701,218.68354 242.24548,188.87907 230.51582,177.26726 251.38947,200.67085 273.43777,223.14685 292,248.5 c -0.42967,-3.77522 -1.80345,-8.00703 0.5,-11.5 z"
         id="path400"
         inkscape:connector-curvature="0" />
    </g>
    <g
       style="fill:#cccccc"
       id="g402">
      <path
         d="m 104,280.5 c 2.03049,-25.30168 37.11757,-48.26824 51.25182,-18.61813 C 134.36267,252.79296 113.11263,257.92177 104,280.5 Z"
         id="path404"
         inkscape:connector-curvature="0" />
    </g>
    <g
       style="fill:#cccccc"
       id="g406">
      <path
         d="m 294.5,153 c -14.05326,-8.17854 -46.08774,-30.51062 -50.3389,-26.88845 16.41302,7.45886 45.37711,33.48279 52.38624,31.47008 z"
         id="path408"
         inkscape:connector-curvature="0" />
    </g>
    <g
       style="fill:#000000"
       id="g410">
      <path
         d="m 143.801,259.601 c 23.63837,-1.16619 40.75968,-11.78814 45.83623,-36.26085 3.5629,-8.24708 17.04776,-5.45557 19.59759,-20.49672 7.67041,-14.87567 15.39582,7.29894 21.38922,-9.42389 3.65808,-6.17305 4.21918,-26.02946 15.78793,-6.98772 3.11764,-4.34673 -22.60717,-37.11878 -1.05867,-36.66663 1.47236,-25.57602 -7.61946,-51.117686 -6.24788,-69.151984 -1.98957,-9.3974 11.82853,8.08739 4.05772,-4.455563 C 240.41857,69.793341 230.74991,48.507874 245.8635,54.4125 234.19575,38.705477 230.08266,10.871992 243.58192,12.043749 239.00206,7.5391127 228.57244,-7.3459294 242.87239,-1.8822188 c -6.35022,-12.6055062 -24.227,-33.8511962 -12.73381,-33.9953632 -12.15176,-4.577075 -22.953,-17.182145 -2.28261,-14.303619 9.62344,0.929203 39.59959,26.383437 28.6295,26.332748 -14.28115,-1.916791 8.71937,17.1952997 -1.86259,24.9531383 2.63901,12.0583067 -15.00102,-7.1084446 -5.11278,9.5526157 4.36955,8.870307 14.63604,27.531483 -1.81102,12.897215 -7.74637,9.649954 25.98955,31.317581 22.82723,44.419987 -12.97534,-10.84834 11.26044,28.904384 -8.55031,9.012997 2.90154,10.743179 2.06887,16.420568 -5.07045,19.751975 0.38352,24.145605 2.6358,49.058915 -3.83541,72.037805 -0.68623,12.04877 18.84023,42.35275 1.51659,33.66364 2.73823,8.73874 17.11455,49.80404 -0.55508,26.19987 -15.30114,-15.1494 -7.80315,37.76542 -18.46774,11.05175 -1.93981,-7.60176 -13.26514,26.56736 -18.95063,5.27024 -15.87284,-20.37685 -25.10907,28.39895 -37.39996,13.81831 -11.64635,1.87405 -23.7852,4.03814 -35.41232,0.81991 z"
         id="path412"
         inkscape:connector-curvature="0" />
    </g>
    <g
       style="fill:#000000"
       id="g414">
      <path
         d="m 109.401,-97.2 c -14.139736,-5.2051 -15.127542,-11.89634 1.90061,-8.55431 19.92209,2.55773 50.34135,14.198145 58.76874,26.475614 -9.10303,16.186402 11.5785,27.774617 22.2545,23.500224 20.35621,11.892954 -17.68849,-15.404209 -14.40501,-26.406516 -11.60184,-19.505232 27.27762,-30.512892 22.73155,-37.794702 -15.00891,-2.24654 -34.84979,-8.13057 -45.85039,-17.22031 13.69753,-1.32541 58.20929,17.07393 49.86319,13.40768 -28.41786,-21.79442 -67.50071,-24.90464 -101.12374,-15.13932 -28.036289,-11.98515 -56.912088,0.91915 -83.409586,8.56378 -11.0292877,4.15347 -36.51735,21.78756 -34.907953,24.51003 25.177004,-13.55323 51.253705,-9.91712 77.252975,-2.06869 15.879811,2.33499 31.516008,7.80139 46.925114,10.72652 z"
         id="path416"
         inkscape:connector-curvature="0" />
    </g>
    <g
       style="fill:#cc7226"
       id="g418">
      <path
         d="m 180.801,-106.4 c -17.83928,-17.92595 -59.34505,-24.74559 -71.73231,-20.65701 22.08214,-15.25617 44.33347,3.44889 65.55987,7.66257 7.24828,1.20617 18.54306,8.22556 6.17244,12.99444 z"
         id="path420"
         inkscape:connector-curvature="0" />
    </g>
    <g
       style="fill:#cc7226"
       id="g422">
      <path
         d="m 168.33,-108.509 c -20.06158,6.75378 -41.44094,-11.32283 -62.55692,-10.87732 20.10757,-6.32269 44.01588,2.88509 62.55692,10.87732 z"
         id="path424"
         inkscape:connector-curvature="0" />
    </g>
    <g
       style="fill:#cc7226"
       id="g426">
      <path
         d="m 91.696,-122.739 c -9.277949,-3.20976 -26.597255,-15.68927 -6.078,-10.719 8.200258,-0.54536 16.42279,4.51008 6.078,10.719 z"
         id="path428"
         inkscape:connector-curvature="0" />
    </g>
    <g
       style="fill:#cc7226"
       id="g430">
      <path
         d="m 59.198,-115.391 c -13.37099,2.45805 -24.235116,-14.77802 -4.15235,-7.12404 10.002421,3.20956 28.876856,14.61898 4.15235,7.12404 z"
         id="path432"
         inkscape:connector-curvature="0" />
    </g>
    <g
       style="fill:#cc7226"
       id="g434">
      <path
         d="m 45.338,-71.179 c -9.162442,-16.688045 21.961323,13.283683 0,0 z"
         id="path436"
         inkscape:connector-curvature="0" />
    </g>
    <g
       style="fill:#cc7226"
       id="g438">
      <path
         d="m 17.8,-123.756 c 19.884422,-0.34141 -21.3145052,5.22621 0,0 z"
         id="path440"
         inkscape:connector-curvature="0" />
    </g>
    <g
       style="fill:#000000"
       id="g442">
      <path
         d="m 33.2,-114 c -26.6309741,-0.92428 -66.965563,24.495047 -72.505119,37.037942 23.782123,-18.285082 53.922453,-37.363362 85.117614,-28.667882 14.697332,15.507399 -24.310936,-0.55709 -34.321017,3.27636 -22.98029,6.663102 -45.730633,20.998286 -59.441478,41.00358 20.912471,-16.272085 44.4643023,-27.286335 69.914354,-32.581596 12.620641,-4.188685 21.919506,6.288138 3.533917,6.163609 -32.0388647,5.74125 -62.201815,19.637613 -86.057152,41.952175 -20.666475,12.383875 24.261361,-10.384805 7.996381,10.306437 -2.670521,13.755058 -16.318836,37.737937 2.2375,44.834375 -12.06539,-24.075079 9.556423,-41.483458 17.16979,-61.62184 -23.698797,0.483839 15.561667,-15.046445 25.0962863,-10.283315 15.6483097,-5.428162 17.517706,-1.944757 7.31965432,9.529807 C 13.36976,-62.672957 21.726348,-75.097307 37.850996,-63.026301 c -0.227853,-24.945167 28.587775,-29.958659 48.7591,-31.028578 12.704803,0.01304 33.135384,-1.181664 10.241035,-7.492261 C 75.908011,-106.75481 54.364571,-109.67959 33.2,-114 Z"
         id="path444"
         inkscape:connector-curvature="0" />
    </g>
    <g
       style="stroke:#4c0000;stroke-width:2"
       id="g446">
      <path
         d="M 51.4,85 C 38.396692,65.203608 11.766554,57.229444 -10,66.6"
         id="path448"
         inkscape:connector-curvature="0" />
    </g>
    <g
       style="stroke:#4c0000;stroke-width:2"
       id="g450">
      <path
         d="M 24.8,64.2 C 2.6471523,57.39965 -27.359111,54.723373 -42.6,76.2"
         id="path452"
         inkscape:connector-curvature="0" />
    </g>
    <g
       style="stroke:#4c0000;stroke-width:2"
       id="g454">
      <path
         d="M 21.2,63 C -4.6248708,50.71125 -44.192075,45.90761 -61.4,74.4"
         id="path456"
         inkscape:connector-curvature="0" />
    </g>
    <g
       style="stroke:#4c0000;stroke-width:2"
       id="g458">
      <path
         d="M 22.2,63.4 C 4.2367998,43.130358 -24.708462,31.761358 -49.559949,46.99433 L -52.8,48.4"
         id="path460"
         inkscape:connector-curvature="0" />
    </g>
    <g
       style="fill:#000000"
       id="g462">
      <path
         d="M 20.895,54.407 C 36.484011,69.981335 50.097174,87.560184 67.146875,101.6438 61.96871,89.633657 37.320047,72.426569 44.510848,64.919873 c 22.447736,8.112879 22.59204,35.190767 43.151665,44.815607 8.520741,6.59555 21.047787,9.66549 24.049577,17.32926 14.70872,-13.12691 2.38745,-27.907406 -14.384583,-18.67254 -7.297027,0.66139 -33.675195,-15.612115 -14.708335,-15.08595 -18.471149,-23.946669 13.490551,11.82754 25.441628,0.3726 27.78192,-7.34107 12.90568,30.93099 23.08183,46.64541 1.41073,10.05543 10.43187,19.58058 -2.2264,21.55846 23.98924,10.05093 12.55626,27.91828 5.28514,44.53982 -4.47045,21.65039 -32.69118,29.50377 -36.50467,54.29402 -5.460419,11.38095 5.31069,22.77714 5.01825,3.68061 4.03116,-20.7434 31.68468,-36.38731 51.48092,-35.64996 22.77272,19.39988 7.74035,-31.72935 0.034,-43.7035 -9.23155,-31.42086 24.976,10.04319 26.37115,-12.64271 15.65725,-0.88742 14.5086,-24.79821 30.44289,-16.39756 8.49688,-8.6791 -1.17115,-34.59174 16.11308,-23.80827 -0.25685,-6.64614 -5.22595,-24.05907 6.64403,-12.99417 -14.06688,-19.504998 -27.45875,-46.919764 -13.77675,-69.845958 7.6384,1.397359 -3.16403,-10.384405 1.85562,-17.251933 -11.77356,2.324473 -20.66714,-23.478213 -18.19485,-29.4174365 16.78132,-8.5277274 1.23634,-10.2323412 -5.8811,-15.4963545 18.58726,-12.755155 -17.14458,-10.08027 -4.84688,-20.964354 -26.32542,-9.629392 -36.62982,-38.482905 -55.64105,-56.596212 -25.66712,-13.871872 -56.902664,-3.875915 -84.213127,-1.194706 -28.202824,6.221157 -15.05603,52.269092 9.922137,32.440954 8.912232,3.535462 34.981274,1.130451 13.9505,-7.275 -13.379511,0.719728 -36.951266,-29.051516 -9.52218,-15.093427 14.779918,0.9436 37.36793,23.554596 43.09004,18.291716 -2.319,-9.165045 -13.746349,-38.941189 0.68286,-17.796039 7.05935,15.926902 22.01027,27.089155 5.81669,43.501175 -14.99134,26.353487 37.01412,31.3816066 35.06601,7.730796 -2.43213,-14.485303 -26.15788,-42.528711 -16.35834,-48.85085 14.58686,20.409463 25.9567,43.416556 41.23189,63.404781 10.53566,24.6937163 4.72037,52.804554 10.82038,77.034095 9.1476,12.129662 6.21354,25.347352 -4.21759,22.173015 18.51639,8.227908 -11.6922,6.865262 4.95324,13.623488 30.37988,5.78606 3.71152,38.21431 -5.25643,52.31926 -8.36777,14.97373 -44.53277,14.06421 -25.04176,-5.6129 -9.01625,-18.78286 24.55213,-36.13743 -1.04717,-53.527035 -2.06476,-22.151658 2.88912,-50.029958 -3.42149,-74.345636 1.40346,-10.5607665 28.77215,-39.551481 4.12254,-31.270418 -10.22989,11.7253008 -18.68255,27.970856 -18.62415,38.23143 -18.47176,7.118676 8.33403,21.704523 3.61421,35.962708 9.27071,27.664424 -35.10759,9.388031 -49.708203,10.447575 C 86.340606,71.289829 60.34474,77.204704 75.746875,64.725 61.036481,73.635784 26.116289,39.46268 35.021036,64.422321 29.861656,61.859962 24.90684,58.571491 20.895,54.407 Z"
         id="path464"
         inkscape:connector-curvature="0" />
    </g>
    <g
       style="fill:#4c0000"
       id="g466">
      <path
         d="M -3,42.8 C 9.5341207,46.291368 38.243435,75.187529 11.218813,55.632958 6.3317632,51.517486 2.4880954,46.201184 -3,42.8 Z"
         id="path468"
         inkscape:connector-curvature="0" />
    </g>
    <g
       style="fill:#99cc32"
       id="g470">
      <path
         d="m -61.009,11.603 c -4.764939,-19.2322029 -21.43219,3.887307 0,0 z"
         id="path472"
         inkscape:connector-curvature="0" />
    </g>
    <g
       style="fill:#659900"
       id="g474">
      <path
         d="m -61.009,11.403 c -4.527722,-18.899641 -21.680551,3.806996 0,0 z"
         id="path476"
         inkscape:connector-curvature="0" />
    </g>
    <g
       style="fill:#000000"
       id="g478">
      <path
         d="m -65.4,11.546 c -5.155761,-5.1033206 5.296107,-7.1631285 0,0 z"
         id="path480"
         inkscape:connector-curvature="0" />
    </g>
    <g
       style="fill:#000000"
       id="g482">
      <path
         d=""
         id="path484"
         inkscape:connector-curvature="0" />
    </g>
    <g
       style="fill:#000000"
       id="g486">
      <path
         d="m -111,109.601 c 14.627726,13.22572 38.416997,-4.20659 54.934235,3.31286 11.169493,-7.37163 18.504801,-24.728824 9.383755,-2.79305 -0.630914,17.00601 -34.875186,20.77689 -32.834974,25.416 28.350966,0.11716 -8.053242,34.55612 -19.731899,10.65725 C -108.17092,138.01531 -119.99301,121.45392 -111,109.601 Z"
         id="path488"
         inkscape:connector-curvature="0" />
    </g>
    <g
       style="fill:#e59999"
       id="g490">
      <path
         d="m -112.2,113.601 c 15.43717,12.25444 48.269755,-11.76008 55.095881,6.91936 -8.524746,8.07874 -42.046673,10.98197 -18.545881,25.08064 -9.148801,22.03538 -39.29399,-12.83531 -37.15073,-27.79492 0.20025,-1.40169 0.40049,-2.80339 0.60073,-4.20508 z"
         id="path492"
         inkscape:connector-curvature="0" />
    </g>
    <g
       style="fill:#b26565"
       id="g494">
      <path
         d="m -109,131.051 c 1.26202,13.98618 40.832618,35.1152 29.449359,10.34873 -9.797764,-1.0776 -32.110069,-19.37763 -18.681007,-3.16265 -4.344142,1.54235 -8.789562,-4.01171 -10.768352,-7.18608 z"
         id="path496"
         inkscape:connector-curvature="0" />
    </g>
    <g
       style="fill:#992600"
       id="g498">
      <path
         d="m -111.6,110.001 c 1.21098,-28.416339 13.224278,-57.420452 38.919847,-71.891071 11.69808,-8.146529 12.301412,-3.919101 11.209054,-14.908068 12.350755,-22.4708714 -10.661029,16.774264 -21.406567,19.078111 -20.710054,15.096554 -34.501284,41.294692 -30.537484,67.182078 l 0.7799,0.74546 z"
         id="path500"
         inkscape:connector-curvature="0" />
    </g>
    <g
       style="fill:#ffffff"
       id="g502">
      <path
         d="m -120.2,114.601 c -15.59223,4.94141 8.93319,57.4184 -0.21459,23.14228 -1.01649,-7.65207 -1.79545,-15.57044 0.21459,-23.14228 z"
         id="path504"
         inkscape:connector-curvature="0" />
    </g>
    <g
       style="fill:#992600"
       id="g506">
      <path
         d="m -98.6,54 c -22.51297,7.616219 -15.46675,38.889413 -18.56608,53.41747 1.20586,-12.101749 -1.63989,-46.04108 -9.94632,-16.074763 -0.79341,12.542543 1.48568,27.811053 -2.76979,6.428114 C -126.66107,80.513325 -114.95431,61.337359 -98.6,54 Z"
         id="path508"
         inkscape:connector-curvature="0" />
    </g>
    <g
       style="fill:#000000"
       id="g510">
      <path
         d="M 40.8,-12.2 C 55.979307,-22.196777 27.730125,-50.065557 37.605335,-21.646927 35.794918,-10.020361 9.6640799,20.459648 32.857944,-1.8098792 36.650695,-4.0934228 40.511413,-7.4103502 40.8,-12.2 Z"
         id="path512"
         inkscape:connector-curvature="0" />
    </g>
    <g
       style="fill:#000000"
       id="g514">
      <path
         d="M 31.959,-16.666 C 43.9501,-26.818971 22.348912,-44.305728 30.4,-23.8 c -0.224909,2.224237 -4.481987,11.736494 1.559,7.134 z"
         id="path516"
         inkscape:connector-curvature="0" />
    </g>
    <g
       style="fill:#000000"
       id="g518">
      <path
         d="m 94.771,-26.977 c 7.0381,20.088194 18.49235,-17.057341 3.478884,-20.610446 C 87.460794,-68.000464 86.568771,-31.108468 94.771,-26.977 Z"
         id="path520"
         inkscape:connector-curvature="0" />
    </g>
    <g
       style="fill:#000000"
       id="g522">
      <path
         d="m 57.611,-8.591 c 1.475905,17.8458467 53.9648,-19.894625 19.202775,-13.070534 -19.429294,14.3745663 -3.615898,-4.019318 -5.410659,-15.437198 -11.063637,1.436096 -18.450022,-23.414549 -31.652254,-6.178489 -2.439194,5.774858 17.992491,4.879451 15.498462,19.585345 0.173026,5.35479 -11.952263,24.51973025 4.339801,12.078626 9.915202,-6.627788 0.378768,2.0507054 -1.978125,3.02225 z"
         id="path524"
         inkscape:connector-curvature="0" />
    </g>
    <g
       style="fill:#000000"
       id="g526">
      <path
         d="m 2.2,-58 c -19.437678,14.519283 -32.451777,36.956026 -49.425759,53.3968707 7.354358,-8.5314147 30.824587,-29.6603397 11.501375,-6.6545197 -4.811539,7.3942819 -11.422985,32.602441 -2.966827,12.14153572 C -37.193768,-10.811678 -17.938901,-28.01707 -26.2,-5.2 c -6.708258,23.696129 9.851995,-32.129285 9.468562,-4.5141542 -2.418547,15.2278038 7.4020401,25.9919472 2.173504,4.1414908 C -19.061615,-25.457108 -4.5259709,-17.522408 0.8352272,-7.8219044 -2.6235067,-23.72083 -32.160105,-24.763678 -10.029789,-35.788434 c 7.3640611,5.90099 19.4546415,5.089579 20.364461,19.86762 C 19.476694,-38.213465 -20.901013,-36.684118 2.2,-58 Z"
         id="path528"
         inkscape:connector-curvature="0" />
    </g>
    <g
       style="fill:#000000"
       id="g530">
      <path
         d="m -17.8,-41.6 c -12.450667,-6.293735 -31.688394,25.224449 -10.465625,7.671094 C -25.822067,-37.244568 -16.408197,-35.850748 -17.8,-41.6 Z"
         id="path532"
         inkscape:connector-curvature="0" />
    </g>
    <g
       style="fill:#000000"
       id="g534">
      <path
         d="m -57.8,-35.2 c -11.195011,14.308851 3.078668,17.884201 0,0 z"
         id="path536"
         inkscape:connector-curvature="0" />
    </g>
    <g
       style="fill:#000000"
       id="g538">
      <path
         d="m -66.6,26 c -7.555076,-8.820717 -30.32328,-5.277942 -24,-22.8 -16.45329,11.869239 19.1825,36.166175 24,22.8 z"
         id="path540"
         inkscape:connector-curvature="0" />
    </g>
    <g
       style="fill:#000000"
       id="g542">
      <path
         d="m -79.2,40.4 c -12.230247,1.977522 -26.59553,-8.018739 -16.312515,7.733646 C -91.894068,52.649317 -84.11545,40.622325 -79.2,40.4 Z"
         id="path544"
         inkscape:connector-curvature="0" />
    </g>
    <g
       style="fill:#ffffff"
       id="g546">
      <path
         d="m 149.201,118.601 c -22.54626,12.59457 -8.71638,-32.692737 4.15738,-12.20161 1.27449,4.07888 1.33424,11.15392 -4.15738,12.20161 z"
         id="path548"
         inkscape:connector-curvature="0" />
    </g>
    <g
       style="fill:#ffffff"
       id="g550">
      <path
         d="m 139.6,138.201 c 4.03808,-15.29598 4.86069,22.07389 -0.0691,1.29949 z"
         id="path552"
         inkscape:connector-curvature="0" />
    </g>
    <g
       style="fill:#cccccc"
       id="g554">
      <path
         d="m -26.6,129.201 c -16.443953,2.27077 13.617527,-22.12281 21.65,-22.7505 C 11.747105,94.493414 53.770643,92.630623 56.136164,102.28325 32.715844,92.152623 8.4929627,108.48121 -9.5453788,121.76657 -5.9881848,106.99377 -23.954331,127.30474 -26.6,129.201 Z"
         id="path556"
         inkscape:connector-curvature="0" />
    </g>
    <g
       style="fill:#000000"
       id="g558">
      <path
         d="M -19.195,123.234 C -5.1808077,99.803659 28.023868,96.1786 52.581826,99.979485 68.29351,106.29205 66.352268,107.8301 50.99822,101.46957 25.812546,96.383186 -0.13549037,107.14638 -19.195,123.234 Z"
         id="path560"
         inkscape:connector-curvature="0" />
    </g>
    <g
       style="fill:#cccccc"
       id="g562">
      <path
         d="m -23,148.801 c -3.967046,-8.45122 28.3826027,-5.31864 33.717852,-17.05964 12.039725,-5.23447 43.954699,-16.75765 43.718131,-11.83539 C 29.168407,129.87004 4.5262077,147.72204 -23,148.801 Z"
         id="path564"
         inkscape:connector-curvature="0" />
    </g>
    <g
       style="fill:#000000"
       id="g566">
      <path
         d="M -3.48,141.403 C 16.714218,126.5043 43.092074,116.60838 68.059332,113.46537 45.206462,120.16779 20.046443,132.33189 -3.48,141.403 Z"
         id="path568"
         inkscape:connector-curvature="0" />
    </g>
    <g
       style="fill:#000000"
       id="g570">
      <path
         d="m -11.4,143.601 c 8.4180991,-2.74012 0.908751,5.92533 0,0 z"
         id="path572"
         inkscape:connector-curvature="0" />
    </g>
    <g
       style="fill:#000000"
       id="g574">
      <path
         d="m -18.6,145.201 c 8.418099,-2.74012 0.908751,5.92533 0,0 z"
         id="path576"
         inkscape:connector-curvature="0" />
    </g>
    <g
       style="fill:#000000"
       id="g578">
      <path
         d="m -29,146.801 c 8.418099,-2.74012 0.908751,5.92533 0,0 z"
         id="path580"
         inkscape:connector-curvature="0" />
    </g>
    <g
       style="fill:#000000"
       id="g582">
      <path
         d="m -36.6,147.601 c 8.418099,-2.74012 0.908751,5.92533 0,0 z"
         id="path584"
         inkscape:connector-curvature="0" />
    </g>
    <g
       style="fill:#000000"
       id="g586">
      <path
         d="m 1.8,108.001 c 9.207887,-0.71531 -4.9672109,6.94015 0,0 z"
         id="path588"
         inkscape:connector-curvature="0" />
    </g>
    <g
       style="fill:#000000"
       id="g590">
      <path
         d="m -8.2,113.601 c 9.4504692,-5.00009 1.3650083,6.67638 0,0 z"
         id="path592"
         inkscape:connector-curvature="0" />
    </g>
    <g
       style="fill:#000000"
       id="g594">
      <path
         d="m -19.4,118.401 c 8.418099,-2.74012 0.908751,5.92533 0,0 z"
         id="path596"
         inkscape:connector-curvature="0" />
    </g>
    <g
       style="fill:#000000"
       id="g598">
      <path
         d="m -27,124.401 c 8.418099,-2.74012 0.908751,5.92533 0,0 z"
         id="path600"
         inkscape:connector-curvature="0" />
    </g>
    <g
       style="fill:#000000"
       id="g602">
      <path
         d="m -33.8,129.201 c 8.418099,-2.74012 0.908751,5.92533 0,0 z"
         id="path604"
         inkscape:connector-curvature="0" />
    </g>
    <g
       style="fill:#000000"
       id="g606">
      <path
         d="m 5.282,135.598 c 11.214992,-3.16852 1.4502888,7.55913 0,0 z"
         id="path608"
         inkscape:connector-curvature="0" />
    </g>
    <g
       style="fill:#000000"
       id="g610">
      <path
         d="m 15.682,130.798 c 11.214992,-3.16852 1.450289,7.55913 0,0 z"
         id="path612"
         inkscape:connector-curvature="0" />
    </g>
    <g
       style="fill:#000000"
       id="g614">
      <path
         d="m 26.482,126.398 c 11.214992,-3.16852 1.450289,7.55913 0,0 z"
         id="path616"
         inkscape:connector-curvature="0" />
    </g>
    <g
       style="fill:#000000"
       id="g618">
      <path
         d="m 36.882,121.598 c 11.214992,-3.16852 1.450289,7.55913 0,0 z"
         id="path620"
         inkscape:connector-curvature="0" />
    </g>
    <g
       style="fill:#000000"
       id="g622">
      <path
         d="m 9.282,103.598 c 12.006863,-3.09422 -1.7753236,9.00106 0,0 z"
         id="path624"
         inkscape:connector-curvature="0" />
    </g>
    <g
       style="fill:#000000"
       id="g626">
      <path
         d="m 19.282,100.398 c 11.742692,-3.110098 -2.365976,8.46469 0,0 z"
         id="path628"
         inkscape:connector-curvature="0" />
    </g>
    <g
       style="fill:#000000"
       id="g630">
      <path
         d="m -3.4,140.401 c 8.4180991,-2.74012 0.908751,5.92533 0,0 z"
         id="path632"
         inkscape:connector-curvature="0" />
    </g>
    <g
       style="fill:#992600"
       id="g634">
      <path
         d="m -76.6,41.2 c -0.406809,6.864618 -9.433693,16.679464 -2.996441,3.876876 z"
         id="path636"
         inkscape:connector-curvature="0" />
    </g>
    <g
       style="fill:#992600"
       id="g638">
      <path
         d="m -95,55.2 c -0.639763,12.581722 -5.50933,19.243201 -2.762836,3.262316 C -97.000939,57.240691 -95.98276,56.237316 -95,55.2 Z"
         id="path640"
         inkscape:connector-curvature="0" />
    </g>
    <g
       style="fill:#cccccc"
       id="g642">
      <path
         d="m -74.2,-19.4 c -3.637558,9.6719771 21.895449,31.10149 7.657773,10.4393563 C -68.761979,-12.671155 -71.397285,-16.115092 -74.2,-19.4 Z"
         id="path644"
         inkscape:connector-curvature="0" />
    </g>
    <g
       style="fill:#000000"
       id="g646">
      <path
         d="m -70.216,-18.135 c -3.965443,-10.319321 14.672078,-27.132258 5.34759,-6.483882 -1.836073,10.367814 8.944866,37.092012 -2.507189,14.6550563 -1.821807,-2.3659153 -2.02046,-5.4191163 -2.840401,-8.1711743 z"
         id="path648"
         inkscape:connector-curvature="0" />
    </g>
    <g
       style="fill:#000000"
       id="g650">
      <path
         d="m -73.8,-16.4 c 1.998213,8.0847476 -1.529955,10.4607022 -0.437837,10.9436302 C -80.079845,-9.3917798 -88.190413,-21.706276 -73.8,-16.4 Z"
         id="path652"
         inkscape:connector-curvature="0" />
    </g>
    <g
       style="fill:#ffffff;stroke:#000000;stroke-width:0.1"
       id="g654">
      <path
         d="M -74.6,2.2 C -84.320513,-0.59850912 -111.32461,3.8153832 -86.061922,2.0077188 -84.865506,1.4756209 -60.284955,4.9751297 -74.6,2.2 Z"
         id="path656"
         inkscape:connector-curvature="0" />
    </g>
    <g
       style="fill:#ffffff;stroke:#000000;stroke-width:0.1"
       id="g658">
      <path
         d="M -72.502,2.129 C -81.944605,-1.500559 -109.22898,0.56313243 -83.903953,0.94634375 -82.665893,0.51975775 -58.479675,6.1312165 -72.502,2.129 Z"
         id="path660"
         inkscape:connector-curvature="0" />
    </g>
    <g
       style="fill:#ffffff;stroke:#000000;stroke-width:0.1"
       id="g662">
      <path
         d="M -70.714,2.222 C -79.860606,-2.0988428 -107.2225,-2.0706021 -81.996328,0.19459375 -80.729992,-0.13877799 -57.028488,7.2562608 -70.714,2.222 Z"
         id="path664"
         inkscape:connector-curvature="0" />
    </g>
    <g
       style="fill:#ffffff;stroke:#000000;stroke-width:0.1"
       id="g666">
      <path
         d="M -69.444,2.445 C -82.576625,-3.1670343 -98.406807,-3.5432516 -76.030082,0.77898419 -74.71967,1.0923586 -59.642993,6.9455102 -69.444,2.445 Z"
         id="path668"
         inkscape:connector-curvature="0" />
    </g>
    <g
       style="fill:#ffffff;stroke:#000000;stroke-width:0.1"
       id="g670">
      <path
         d="M 45.84,12.961 C 54.820367,3.9422276 90.118138,-6.0795275 59.984297,5.9941769 55.184538,8.1331188 50.34613,10.233903 45.84,12.961 Z"
         id="path672"
         inkscape:connector-curvature="0" />
    </g>
    <g
       style="fill:#ffffff;stroke:#000000;stroke-width:0.1"
       id="g674">
      <path
         d="M 42.446,13.6 C 50.691039,3.9046365 85.092044,-8.8587248 55.999889,5.5444659 51.382927,8.0537775 46.724518,10.528123 42.446,13.6 Z"
         id="path676"
         inkscape:connector-curvature="0" />
    </g>
    <g
       style="fill:#ffffff;stroke:#000000;stroke-width:0.1"
       id="g678">
      <path
         d="M 39.16,14.975 C 43.868301,4.5939281 78.681351,-9.0663371 53.069658,4.1866191 48.118597,7.3449771 43.332937,10.822714 39.16,14.975 Z"
         id="path680"
         inkscape:connector-curvature="0" />
    </g>
    <g
       style="fill:#ffffff;stroke:#000000;stroke-width:0.1"
       id="g682">
      <path
         d="M 36.284,16.838 C 40.600467,7.4642204 71.47027,-4.4786823 48.802754,7.1284766 44.346583,9.9707604 40.040566,13.101991 36.284,16.838 Z"
         id="path684"
         inkscape:connector-curvature="0" />
    </g>
    <g
       style="fill:#cccccc"
       id="g686">
      <path
         d="m 4.6,164.801 c -3.1628387,-8.12525 29.130559,-6.40617 35.427112,-17.60076 9.815637,-6.2639 46.798011,-19.56813 23.895674,-0.42734 C 44.953858,154.22496 24.339693,161.76042 4.6,164.801 Z"
         id="path688"
         inkscape:connector-curvature="0" />
    </g>
    <g
       style="fill:#000000"
       id="g690">
      <path
         d="M 77.6,127.401 C 58.930687,150.19986 27.50521,153.8484 1.0374751,161.65385 23.50135,163.168 41.866064,149.98261 62.098661,142.83364 68.869266,139.7387 74.990478,134.55972 77.6,127.401 Z"
         id="path692"
         inkscape:connector-curvature="0" />
    </g>
    <g
       style="fill:#000000"
       id="g694">
      <path
         d="m 18.882,158.911 c 8.375654,-2.48099 1.142892,5.89991 0,0 z"
         id="path696"
         inkscape:connector-curvature="0" />
    </g>
    <g
       style="fill:#000000"
       id="g698">
      <path
         d="m 11.68,160.263 c 8.376497,-2.48006 1.140798,5.9005 0,0 z"
         id="path700"
         inkscape:connector-curvature="0" />
    </g>
    <g
       style="fill:#000000"
       id="g702">
      <path
         d="m 1.251,161.511 c 8.3755928,-2.48184 1.1432786,5.89972 0,0 z"
         id="path704"
         inkscape:connector-curvature="0" />
    </g>
    <g
       style="fill:#000000"
       id="g706">
      <path
         d="m -6.383,162.055 c 8.3756543,-2.48099 1.1428879,5.89991 0,0 z"
         id="path708"
         inkscape:connector-curvature="0" />
    </g>
    <g
       style="fill:#000000"
       id="g710">
      <path
         d="m 35.415,151.513 c 11.049347,-2.71299 1.847042,7.48986 0,0 z"
         id="path712"
         inkscape:connector-curvature="0" />
    </g>
    <g
       style="fill:#000000"
       id="g714">
      <path
         d="m 45.73,147.088 c 11.570933,-5.35404 2.201939,10.22735 0,0 z"
         id="path716"
         inkscape:connector-curvature="0" />
    </g>
    <g
       style="fill:#000000"
       id="g718">
      <path
         d="m 54.862,144.274 c 10.508999,-6.39845 2.349076,9.7628 0,0 z"
         id="path720"
         inkscape:connector-curvature="0" />
    </g>
    <g
       style="fill:#000000"
       id="g722">
      <path
         d="m 64.376,139.449 c 10.31434,-7.27543 3.431351,11.5752 0,0 z"
         id="path724"
         inkscape:connector-curvature="0" />
    </g>
    <g
       style="fill:#000000"
       id="g726">
      <path
         d="m 26.834,155.997 c 8.376007,-2.48199 1.141559,5.90054 0,0 z"
         id="path728"
         inkscape:connector-curvature="0" />
    </g>
    <g
       style="fill:#ffffff;stroke:#000000;stroke-width:0.1"
       id="g730">
      <path
         d="M 62.434,34.603 C 69.965367,23.351269 97.184407,14.73415 71.461232,27.433607 68.255904,29.558928 65.182632,31.905159 62.434,34.603 Z"
         id="path732"
         inkscape:connector-curvature="0" />
    </g>
    <g
       style="fill:#000000"
       id="g734">
      <path
         d="m 65.4,98.4 c 17.117612,16.94301 49.09836,33.95903 34.96192,63.10961 -5.22708,-7.2064 -1.996496,-32.46366 -14.848612,-24.20605 -3.020281,-9.67693 7.704631,-9.9816 -4.550066,-20.47782 C 79.154499,113.5027 44.952628,84.107126 65.4,98.4 Z"
         id="path736"
         inkscape:connector-curvature="0" />
    </g>
    <g
       style="fill:#ffffff;stroke:#000000;stroke-width:0.1"
       id="g738">
      <path
         d="m 7,137.201 c 39.136243,1.8554 79.00982,7.59644 115.55443,22.26939 26.3583,13.86543 -26.770986,-9.40647 -38.830306,-10.10758 C 58.55834,143.10932 32.812277,139.44866 7,137.201 Z"
         id="path740"
         inkscape:connector-curvature="0" />
    </g>
    <g
       style="fill:#ffffff;stroke:#000000;stroke-width:0.1"
       id="g742">
      <path
         d="m 17.4,132.801 c 39.910137,-1.36085 80.108728,2.94823 119.37202,10.05142 13.25581,2.39157 34.98449,11.79484 39.92359,17.61575 C 133.85464,139.99309 85.462901,137.77531 38.888641,133.92413 31.728926,133.49197 24.565341,133.12591 17.4,132.801 Z"
         id="path744"
         inkscape:connector-curvature="0" />
    </g>
    <g
       style="fill:#ffffff;stroke:#000000;stroke-width:0.1"
       id="g746">
      <path
         d="m 29,128.801 c 44.36757,-4.07897 89.22688,-3.27376 133.70348,-0.98422 17.16004,-0.74158 62.61457,12.26426 59.84518,15.80341 C 196.15401,130.03018 165.46637,131.99751 136.65207,128.85288 100.7941,126.98988 64.871677,127.8885 29,128.801 Z"
         id="path748"
         inkscape:connector-curvature="0" />
    </g>
    <g
       style="fill:#ffffff;stroke:#000000;stroke-width:0.1"
       id="g750">
      <path
         d="m 39,124.001 c 39.899472,-10.85485 81.38265,-22.02679 123.01696,-18.33538 9.22338,-1.1747 37.91481,16.40572 13.03986,5.89451 -21.41695,-7.07264 -44.79996,-1.72385 -66.93288,-0.38088 C 84.855821,114.11219 61.891044,118.98315 39,124.001 Z"
         id="path752"
         inkscape:connector-curvature="0" />
    </g>
    <g
       style="fill:#ffffff;stroke:#000000;stroke-width:0.1"
       id="g754">
      <path
         d="M -19,146.801 C 0.24590555,142.49659 5.7996093,188.35345 2.4007772,180.38542 -0.97944697,167.76724 -3.6765475,150.00003 -19,146.801 Z"
         id="path756"
         inkscape:connector-curvature="0" />
    </g>
    <g
       style="fill:#ffffff;stroke:#000000;stroke-width:0.1"
       id="g758">
      <path
         d="m -27.8,148.401 c 21.0265016,-8.7742 14.544695,52.37258 13.401617,16.71309 C -15.726109,158.08892 -18.81849,147.94077 -27.8,148.401 Z"
         id="path760"
         inkscape:connector-curvature="0" />
    </g>
    <g
       style="fill:#ffffff;stroke:#000000;stroke-width:0.1"
       id="g762">
      <path
         d="m -35.8,148.801 c 19.151311,-5.41908 3.792949,38.72243 9.137247,6.70576 -0.599004,-4.18971 -4.83819,-7.92516 -9.137247,-6.70576 z"
         id="path764"
         inkscape:connector-curvature="0" />
    </g>
    <g
       style="fill:#ffffff;stroke:#000000;stroke-width:0.1"
       id="g766">
      <path
         d="M 11.526,104.465 C 36.300431,84.520052 51.526127,53.47166 81.525884,39.655324 91.981326,32.323414 130.94409,24.148595 99.519377,29.715927 61.603019,41.040788 35.530785,75.112739 11.526,104.465 Z"
         id="path768"
         inkscape:connector-curvature="0" />
    </g>
    <g
       style="fill:#ffffff;stroke:#000000;stroke-width:0.1"
       id="g770">
      <path
         d="M 22.726,102.665 C 52.106003,80.823556 85.804604,65.353107 118.59587,49.294233 135.7728,41.728663 154.047,35.869848 172.93431,35.170284 124.36296,44.005591 81.516664,70.308643 38.653919,93.47114 33.329788,96.509987 28.022617,99.578473 22.726,102.665 Z"
         id="path772"
         inkscape:connector-curvature="0" />
    </g>
    <g
       style="fill:#ffffff;stroke:#000000;stroke-width:0.1"
       id="g774">
      <path
         d="M 1.885,108.767 C 17.521176,91.326263 16.475146,61.184481 40.664879,50.845784 51.134814,46.802151 61.505742,43.486632 43.981217,46.323943 19.533336,57.576787 10.24608,85.324929 1.885,108.767 Z"
         id="path776"
         inkscape:connector-curvature="0" />
    </g>
    <g
       style="fill:#ffffff;stroke:#000000;stroke-width:0.1"
       id="g778">
      <path
         d="M -18.038,119.793 C 4.4788963,108.42024 19.61039,81.502043 48.031128,83.15093 67.421203,80.945258 24.614136,80.754751 18.918068,89.195715 4.6199696,96.677931 -7.2950279,107.91492 -18.038,119.793 Z"
         id="path780"
         inkscape:connector-curvature="0" />
    </g>
    <g
       style="fill:#ffffff;stroke:#000000;stroke-width:0.1"
       id="g782">
      <path
         d="M -6.8,113.667 C 13.114025,98.182164 22.797437,68.860796 51.005884,65.02272 69.612115,59.135449 27.564318,67.166227 23.594628,76.543828 10.998844,86.631826 1.4627508,99.947334 -6.8,113.667 Z"
         id="path784"
         inkscape:connector-curvature="0" />
    </g>
    <g
       style="fill:#ffffff;stroke:#000000;stroke-width:0.1"
       id="g786">
      <path
         d="M -25.078,124.912 C -9.6373888,112.48368 20.373638,91.659256 30.707858,93.904901 8.140961,94.12309 -11.354779,107.951 -25.078,124.912 Z"
         id="path788"
         inkscape:connector-curvature="0" />
    </g>
    <g
       style="fill:#ffffff;stroke:#000000;stroke-width:0.1"
       id="g790">
      <path
         d="M -32.677,130.821 C -19.312904,119.8181 13.279082,104.43438 17.87148,111.60211 -0.90725798,102.67517 -18.685843,120.75443 -32.677,130.821 Z"
         id="path792"
         inkscape:connector-curvature="0" />
    </g>
    <g
       style="fill:#ffffff;stroke:#000000;stroke-width:0.1"
       id="g794">
      <path
         d="M 36.855,98.898 C 68.759412,80.943483 104.14323,69.855432 138.70106,58.068465 156.69631,52.733952 175.56436,49.231141 194.38872,50.923683 145.09008,53.55174 99.263345,74.229603 53.817068,91.790481 48.151596,94.132216 42.499204,96.505493 36.855,98.898 Z"
         id="path796"
         inkscape:connector-curvature="0" />
    </g>
    <g
       style="fill:#ffffff;stroke:#000000;stroke-width:0.1"
       id="g798">
      <path
         d="m 3.4,163.201 c 19.151311,-5.41908 3.7929496,38.72243 9.137247,6.70576 C 11.938243,165.71705 7.6990568,161.9816 3.4,163.201 Z"
         id="path800"
         inkscape:connector-curvature="0" />
    </g>
    <g
       style="fill:#ffffff;stroke:#000000;stroke-width:0.1"
       id="g802">
      <path
         d="m 13.8,161.601 c 19.245906,-4.30441 24.79961,41.55245 21.400777,33.58442 C 31.820553,182.56724 29.123452,164.80003 13.8,161.601 Z"
         id="path804"
         inkscape:connector-curvature="0" />
    </g>
    <g
       style="fill:#ffffff;stroke:#000000;stroke-width:0.1"
       id="g806">
      <path
         d="m 20.6,160.001 c 20.076842,-1.73451 47.599786,28.47608 48.746639,32.97827 C 55.016624,179.70594 40.860165,163.48135 20.6,160.001 Z"
         id="path808"
         inkscape:connector-curvature="0" />
    </g>
    <g
       style="fill:#ffffff;stroke:#000000;stroke-width:0.1"
       id="g810">
      <path
         d="m 28.225,157.972 c 21.018564,-3.21278 48.637426,20.12523 56.028169,27.41861 C 66.947263,174.5481 49.505334,158.78778 28.225,157.972 Z"
         id="path812"
         inkscape:connector-curvature="0" />
    </g>
    <g
       style="fill:#ffffff;stroke:#000000;stroke-width:0.1"
       id="g814">
      <path
         d="m 38.625,153.572 c 30.155325,2.11672 56.993828,19.01876 82.49848,33.96203 9.06067,6.6785 -19.2019,-9.86491 -25.427121,-12.47024 C 77.72186,165.57502 59.188138,155.66783 38.625,153.572 Z"
         id="path816"
         inkscape:connector-curvature="0" />
    </g>
    <g
       style="fill:#ffffff;stroke:#000000;stroke-width:0.1"
       id="g818">
      <path
         d="m -1.8,142.001 c 29.65784,0.74239 60.866284,8.76805 84.467497,27.3698 C 57.066253,153.98434 27.989341,144.52229 -1.8,142.001 Z"
         id="path820"
         inkscape:connector-curvature="0" />
    </g>
    <g
       style="fill:#ffffff;stroke:#000000;stroke-width:0.1"
       id="g822">
      <path
         d="M -11.8,146.001 C 8.276842,144.26649 35.799786,174.47708 36.946639,178.97927 22.616624,165.70594 8.4601647,149.48135 -11.8,146.001 Z"
         id="path824"
         inkscape:connector-curvature="0" />
    </g>
    <g
       style="fill:#ffffff;stroke:#000000;stroke-width:0.1"
       id="g826">
      <path
         d="m 49.503,148.962 c 30.22508,-0.10532 58.21714,14.79632 84.75389,27.80509 9.50911,6.35073 -19.98347,-7.9569 -26.46437,-9.86738 C 89.021122,159.09654 69.916537,151.08045 49.503,148.962 Z"
         id="path828"
         inkscape:connector-curvature="0" />
    </g>
    <g
       style="fill:#ffffff;stroke:#000000;stroke-width:0.1"
       id="g830">
      <path
         d="m 57.903,146.562 c 30.217517,-0.10485 58.20529,14.78761 84.73402,27.79742 9.65321,6.31974 -19.89712,-8.06228 -26.33231,-10.02097 C 97.55014,156.44247 78.399877,148.32826 57.903,146.562 Z"
         id="path832"
         inkscape:connector-curvature="0" />
    </g>
    <g
       style="fill:#ffffff;stroke:#000000;stroke-width:0.1"
       id="g834">
      <path
         d="m 67.503,141.562 c 31.156044,0.69569 60.69289,13.15543 90.4115,21.40523 11.05756,3.62745 40.29768,13.88584 41.57845,15.03985 C 155.94919,164.70563 112.77223,147.5643 67.503,141.562 Z"
         id="path836"
         inkscape:connector-curvature="0" />
    </g>
    <g
       style="fill:#000000"
       id="g838">
      <path
         d="m -43.8,148.401 c 8.418099,-2.74012 0.908751,5.92533 0,0 z"
         id="path840"
         inkscape:connector-curvature="0" />
    </g>
    <g
       style="fill:#000000"
       id="g842">
      <path
         d="m -13,162.401 c 8.4180991,-2.74012 0.908751,5.92533 0,0 z"
         id="path844"
         inkscape:connector-curvature="0" />
    </g>
    <g
       style="fill:#000000"
       id="g846">
      <path
         d="m -21.8,162.001 c 8.418099,-2.74012 0.908751,5.92533 0,0 z"
         id="path848"
         inkscape:connector-curvature="0" />
    </g>
    <g
       style="fill:#000000"
       id="g850">
      <path
         d="m -117.169,150.182 c 8.85193,0.16425 -1.08084,5.89594 0,0 z"
         id="path852"
         inkscape:connector-curvature="0" />
    </g>
    <g
       style="fill:#000000"
       id="g854">
      <path
         d="m -115.169,140.582 c 8.85193,0.16425 -1.08084,5.89594 0,0 z"
         id="path856"
         inkscape:connector-curvature="0" />
    </g>
    <g
       style="fill:#000000"
       id="g858">
      <path
         d="m -122.369,136.182 c 8.85193,0.16425 -1.08084,5.89594 0,0 z"
         id="path860"
         inkscape:connector-curvature="0" />
    </g>
    <g
       style="fill:#cccccc"
       id="g862">
      <path
         d="m -42.6,211.201 c -13.268251,-0.33496 -32.306137,23.27761 -9.820757,5.55246 3.194027,-1.98654 6.457993,-3.86496 9.820757,-5.55246 z"
         id="path864"
         inkscape:connector-curvature="0" />
    </g>
    <g
       style="fill:#cccccc"
       id="g866">
      <path
         d="m 45.116,303.847 c 6.965829,-11.4549 -15.299418,-11.63849 0,0 z"
         id="path868"
         inkscape:connector-curvature="0" />
    </g>
    <g
       style="fill:#cccccc"
       id="g870">
      <path
         d="m 34.038,308.581 c 6.473163,6.81792 3.758052,-0.33016 -1.435307,-5.05495 z"
         id="path872"
         inkscape:connector-curvature="0" />
    </g>
    <g
       style="fill:#cccccc"
       id="g874">
      <path
         d="m -5.564,303.391 c -2.3684482,-15.67922 -7.583631,30.0103 0,0 z"
         id="path876"
         inkscape:connector-curvature="0" />
    </g>
    <g
       style="fill:#cccccc"
       id="g878">
      <path
         d="m -31.202,296.599 c 14.598533,-23.81503 -17.219897,19.72317 -0.495574,0.58087 z"
         id="path880"
         inkscape:connector-curvature="0" />
    </g>
    <g
       style="fill:#cccccc"
       id="g882">
      <path
         d="m -44.776,290.635 c 7.643796,-17.94756 -13.439046,19.76222 0,0 z"
         id="path884"
         inkscape:connector-curvature="0" />
    </g>
    <g
       style="fill:#cccccc"
       id="g886">
      <path
         d="m -28.043,310.179 c 7.455351,-13.14749 -10.429988,10.18523 0,0 z"
         id="path888"
         inkscape:connector-curvature="0" />
    </g>
    <g
       style="fill:#cccccc"
       id="g890">
      <path
         d="m -13.6,293.001 c 16.6920311,-16.96582 -17.995825,1.81615 -9.94025,6.93263 1.316228,-5.33046 7.577961,-2.76954 9.94025,-6.93263 z"
         id="path892"
         inkscape:connector-curvature="0" />
    </g>
    <g
       style="fill:#cccccc"
       id="g894">
      <path
         d="m 46.2,347.401 c 6.309597,-9.5752 1.097375,-43.6661 9.493707,-15.71442 3.238475,13.75088 -0.88543,18.89313 -2.897422,2.66943 C 48.443018,332.6297 49.851687,345.38041 46.2,347.401 Z"
         id="path896"
         inkscape:connector-curvature="0" />
    </g>
    <g
       style="fill:#cccccc"
       id="g898">
      <path
         d="m 31.4,344.801 c 6.569546,-12.28248 -5.689134,-37.29231 -4.912291,-10.12561 -6.860801,15.04272 -1.027144,8.74586 5.492465,5.35797 0.27225,1.51291 -0.523819,3.21515 -0.580174,4.76764 z"
         id="path900"
         inkscape:connector-curvature="0" />
    </g>
    <g
       style="fill:#cccccc"
       id="g902">
      <path
         d="m 21.4,342.801 c 0.857737,-9.99415 0.353079,-29.72984 -4.887891,-9.30859 C 0.4065654,359.46926 15.635736,330.84161 21.4,342.801 Z"
         id="path904"
         inkscape:connector-curvature="0" />
    </g>
    <g
       style="fill:#cccccc"
       id="g906">
      <path
         d="M 11.8,310.801 C 17.62915,322.77116 6.1377218,355.07998 9.9930408,324.80953 9.9676931,320.02765 12.502095,315.64504 11.8,310.801 Z"
         id="path908"
         inkscape:connector-curvature="0" />
    </g>
    <g
       style="fill:#cccccc"
       id="g910">
      <path
         d="m -7.4,342.401 c -3.184321,-13.14991 4.1788355,-39.37719 9.1313512,-11.53172 7.2799962,23.22148 -2.9415946,-10.58704 -7.6983686,1.99923 l -1.0012669,5.50399 z"
         id="path912"
         inkscape:connector-curvature="0" />
    </g>
    <g
       style="fill:#cccccc"
       id="g914">
      <path
         d="m -11,314.801 c -5.820038,11.69932 -11.144451,38.35052 -6.152291,10.40735 C -15.938432,322.80425 -15.53591,310.6794 -11,314.801 Z"
         id="path916"
         inkscape:connector-curvature="0" />
    </g>
    <g
       style="fill:#cccccc"
       id="g918">
      <path
         d="m -32.8,334.601 c 11.877313,-7.26905 4.517488,-29.57579 0.309375,-7.72812 -4.631439,2.99787 -3.590686,4.98619 -0.309375,7.72812 z"
         id="path920"
         inkscape:connector-curvature="0" />
    </g>
    <g
       style="fill:#cccccc"
       id="g922">
      <path
         d="m -38.6,329.601 c 3.196998,-9.75753 5.425216,-26.67279 -1.7,-7.975 -3.700337,7.18582 -11.16361,19.88526 1.7,7.975 z"
         id="path924"
         inkscape:connector-curvature="0" />
    </g>
    <g
       style="fill:#cccccc"
       id="g926">
      <path
         d="m -44.4,313.001 c 11.219051,-20.13305 -22.057023,12.10953 -0.208594,-1.69141 l 0.172888,1.40188 z"
         id="path928"
         inkscape:connector-curvature="0" />
    </g>
    <g
       style="fill:#cccccc"
       id="g930">
      <path
         d="m -59.8,298.401 c -1.022402,-12.28234 17.917677,-29.75771 4.843137,-8.92236 -1.966346,2.76283 1.960642,16.10014 -4.843137,8.92236 z"
         id="path932"
         inkscape:connector-curvature="0" />
    </g>
    <g
       style="fill:#cccccc"
       id="g934">
      <path
         d="m 270.5,287 c -10.63151,-9.90106 -16.5863,-15.39927 -5.84942,0.47375 2.40886,9.02972 8.99462,12.24276 5.84942,-0.47375 z"
         id="path936"
         inkscape:connector-curvature="0" />
    </g>
    <g
       style="fill:#cccccc"
       id="g938">
      <path
         d="m 276,265 c -10.81618,-5.93243 -25.56381,-24.313 -9.44712,-5.14753 C 270.27909,266.2864 282.81121,282.08755 276,265 Z"
         id="path940"
         inkscape:connector-curvature="0" />
    </g>
    <g
       style="fill:#cccccc"
       id="g942">
      <path
         d="m 293,111 c -16.31934,-10.7894 -9.02059,-1.14897 -0.88684,7.80052 C 292.26815,116.16534 291.39999,113.49257 293,111 Z"
         id="path944"
         inkscape:connector-curvature="0" />
    </g>
    <g
       style="fill:#cccccc"
       id="g946">
      <path
         d="m 301.5,191.5 c -11.39077,-8.92052 -21.94175,-14.02615 -5.30321,-0.83543 4.03065,5.0721 10.08193,14.42767 5.30321,0.83543 z"
         id="path948"
         inkscape:connector-curvature="0" />
    </g>
    <g
       style="stroke:#000000"
       id="g950">
      <path
         d="m -89.25,169 c 7.333334,1.58333 14.666666,3.16667 22,4.75"
         id="path952"
         inkscape:connector-curvature="0" />
    </g>
    <g
       style="stroke:#000000"
       id="g954">
      <path
         d="m -39,331 c -4.472848,-1.57841 -6.351207,5.16962 -9.5,7"
         id="path956"
         inkscape:connector-curvature="0" />
    </g>
    <g
       style="stroke:#000000"
       id="g958">
      <path
         d="m -33.5,336 c 2.577567,-3.11284 -3.614204,-5.55192 -4.5,-2"
         id="path960"
         inkscape:connector-curvature="0" />
    </g>
    <g
       style="stroke:#000000"
       id="g962">
      <path
         d="m 20.5,344.5 c 1.086147,-9.14762 -8.166527,-0.97388 -10,2"
         id="path964"
         inkscape:connector-curvature="0" />
    </g>
  </g>
</svg>
