<?xml version="1.0" encoding="UTF-8" standalone="no"?>
<!-- Created with Inkscape (http://www.inkscape.org/) -->

<svg
   xmlns:dc="http://purl.org/dc/elements/1.1/"
   xmlns:cc="http://creativecommons.org/ns#"
   xmlns:rdf="http://www.w3.org/1999/02/22-rdf-syntax-ns#"
   xmlns:svg="http://www.w3.org/2000/svg"
   xmlns="http://www.w3.org/2000/svg"
   xmlns:sodipodi="http://sodipodi.sourceforge.net/DTD/sodipodi-0.dtd"
   xmlns:inkscape="http://www.inkscape.org/namespaces/inkscape"
   width="321.16635mm"
   height="163.9973mm"
   viewBox="0 0 321.16635 163.9973"
   version="1.1"
   id="svg5953"
   inkscape:version="0.92.4 (5da689c313, 2019-01-14)"
   sodipodi:docname="Patrick.svg">
  <defs
     id="defs5947">
    <inkscape:path-effect
       effect="bspline"
       id="path-effect5945"
       is_visible="true"
       weight="33.333333"
       steps="2"
       helper_size="0"
       apply_no_weight="true"
       apply_with_weight="true"
       only_selected="false" />
  </defs>
  <sodipodi:namedview
     id="base"
     pagecolor="#ffffff"
     bordercolor="#666666"
     borderopacity="1.0"
     inkscape:pageopacity="0.0"
     inkscape:pageshadow="2"
     inkscape:zoom="0.49497475"
     inkscape:cx="143.07032"
     inkscape:cy="213.20062"
     inkscape:document-units="mm"
     inkscape:current-layer="layer1"
     showgrid="false"
     inkscape:window-width="1920"
     inkscape:window-height="1017"
     inkscape:window-x="-8"
     inkscape:window-y="-8"
     inkscape:window-maximized="1"
     fit-margin-top="0"
     fit-margin-left="0"
     fit-margin-right="0"
     fit-margin-bottom="0" />
  <metadata
     id="metadata5950">
    <rdf:RDF>
      <cc:Work
         rdf:about="">
        <dc:format>image/svg+xml</dc:format>
        <dc:type
           rdf:resource="http://purl.org/dc/dcmitype/StillImage" />
        <dc:title></dc:title>
      </cc:Work>
    </rdf:RDF>
  </metadata>
  <g
     inkscape:label="Layer 1"
     inkscape:groupmode="layer"
     id="layer1"
     transform="translate(51.344924,-27.24249)">
    <path
       id="path6830"
       style="fill:none;stroke:#000000;stroke-width:0.26458332;stroke-opacity:1"
       d="m 87.842985,180.35657 c -0.322495,-0.5218 0.15594,-1.32054 0.790993,-1.32054 0.668449,0 0.915985,0.38443 0.724048,1.12447 -0.130249,0.50221 -1.237297,0.64547 -1.515041,0.19607 z m 25.431125,5.40461 c 1.43891,-0.53136 3.47194,-1.28211 4.51786,-1.66833 1.04593,-0.38621 1.98208,-0.7826 2.08034,-0.88086 0.36266,-0.36266 -0.49398,-2.90072 -1.50919,-4.47144 -1.33336,-2.06297 -3.50463,-4.1839 -4.48365,-4.37971 -0.41729,-0.0835 -0.68676,-0.26819 -0.5988,-0.41051 0.088,-0.14232 -0.0926,-0.12364 -0.40117,0.0415 -0.73181,0.39165 -1.16021,1.08192 -2.02926,3.26974 -0.50056,1.26014 -0.98917,2.00734 -1.63456,2.4996 -0.8513,0.64932 -0.97142,0.67334 -1.59609,0.31922 -0.37869,-0.21467 -0.82998,-0.8314 -1.02705,-1.40356 -0.54249,-1.575 -1.3901,-2.78788 -2.26418,-3.23988 -0.74957,-0.38762 -0.83039,-0.37816 -1.40839,0.16484 -0.33725,0.31683 -0.75458,0.91742 -0.9274,1.33463 -0.28794,0.69517 -0.23877,0.84671 0.58822,1.81287 1.31562,1.537 3.30467,5.5111 4.27518,8.54178 0.1345,0.42 0.26548,0.41622 1.97302,-0.057 1.00593,-0.27876 3.00624,-0.94158 4.44512,-1.47295 z m -25.087307,-18.2106 c -3.246676,-0.93881 -7.784716,-3.71655 -9.881074,-6.0482 -0.908777,-1.01078 -1.167873,-1.49839 -1.137264,-2.14028 0.03942,-0.82662 0.171894,-0.98375 0.803085,-0.57158 0.54275,0.30303 0.901751,0.33671 2.130603,0.85685 3.313537,1.54178 5.530762,2.88125 8.746537,3.63704 1.793354,0.42148 7.084944,0.4621 9.751422,-0.11744 3.779858,-0.82152 8.606378,-2.37971 9.101278,-2.38321 1.45349,-0.0104 1.55412,1.44669 0.1852,2.68184 -2.01658,1.81954 -4.82641,3.08545 -8.503008,3.83084 -2.799399,0.56755 -9.580773,0.72152 -11.196819,0.25422 z m 0.661887,-4.26617 c -1.548201,-0.41707 0.757354,0.20403 0,0 z m 9.751422,-0.11744 c -1.69551,0.28622 3.107718,-0.52463 0,0 z m -0.829598,-2.28066 c 0.865778,-0.25711 1.765388,-0.76486 2.296986,-1.29646 0.74623,-0.74623 0.87453,-1.0612 0.87868,-2.15705 0.003,-0.70578 -0.31763,-2.61494 -0.71177,-4.24258 -0.881168,-3.63882 -0.731868,-4.31669 0.95074,-4.31669 0.90472,0 1.26537,0.20038 2.62333,1.45762 1.73534,1.60662 3.41675,2.47557 5.05974,2.61486 0.93733,0.0795 1.17207,-0.019 1.82946,-0.76777 0.8181,-0.93177 1.72724,-3.99932 1.57524,-5.31505 -0.0822,-0.7118 -0.25417,-0.80493 -3.26181,-1.7667 -8.76979,-2.80439 -17.51347,-4.54075 -24.606245,-4.88641 -6.618828,-0.32257 -6.00778,-0.43953 -6.557262,1.25511 -0.801219,2.47104 0.06102,3.89578 0.353529,4.16719 0.226134,0.20982 1.165619,0.33073 2.569876,0.33073 2.5223,0 3.029638,0.19123 3.613756,1.36212 0.632931,1.26874 0.51612,1.83519 -0.674933,3.27294 -0.600549,0.72494 -1.335633,1.81787 -1.633517,2.42874 -0.473956,0.97195 -0.50225,1.24203 -0.226525,2.16232 0.405595,1.35376 2.519444,3.2888 4.728572,4.32859 3.319037,1.56219 8.433909,2.1876 11.192153,1.36849 z m 47.498176,-5.38715 c -0.66856,-0.73876 -0.35765,-1.86275 0.51525,-1.86275 0.72508,0 1.19489,0.66935 1.19489,1.70239 0,0.53576 -0.13078,0.67886 -0.62045,0.67886 -0.34125,0 -0.83161,-0.23333 -1.08969,-0.51851 z M 113.30108,137.3326 c -0.39828,-0.39828 -0.18133,-1.39041 0.34025,-1.55595 0.9398,-0.29828 1.62763,0.0968 1.53674,0.88261 -0.0658,0.5693 -0.23604,0.72003 -0.88479,0.78358 -0.44179,0.0433 -0.88828,-0.006 -0.9922,-0.11024 z m 1.39858,-0.7622 c 0,-0.42048 -0.9293,-0.55512 -1.16781,-0.16919 -0.1954,0.31614 0.10605,0.56607 0.68275,0.56607 0.26678,0 0.48506,-0.1786 0.48506,-0.39688 z m -27.06355,-5.32362 c -0.103696,-0.10369 -0.188537,-0.47389 -0.188537,-0.82266 0,-0.55604 0.105884,-0.62391 0.859896,-0.55121 0.718725,0.0693 0.859896,0.1915 0.859896,0.74437 0,0.5112 -0.152509,0.67924 -0.671359,0.73975 -0.36925,0.0431 -0.756203,-0.007 -0.859896,-0.11025 z m 1.083667,-0.64935 c -0.05214,-0.15643 -0.207917,-0.28442 -0.346162,-0.28442 -0.138245,0 -0.294018,0.12799 -0.346163,0.28442 -0.05215,0.15644 0.103627,0.28443 0.346163,0.28443 0.242535,0 0.398309,-0.12799 0.346162,-0.28443 z m 11.956963,-0.78221 c 0,-0.74053 0.78203,-0.9921 1.22041,-0.39258 0.4452,0.60885 0.24676,0.93005 -0.57457,0.93005 -0.47278,0 -0.64584,-0.14402 -0.64584,-0.53747 z m 0.79375,0.008 c 0,-0.14552 -0.12609,-0.26459 -0.2802,-0.26459 -0.15411,0 -0.20661,0.11907 -0.11668,0.26459 0.0899,0.14552 0.21603,0.26458 0.2802,0.26458 0.0642,0 0.11668,-0.11906 0.11668,-0.26458 z m 40.75793,-0.6469 c -0.44405,-0.53505 -0.23913,-1.57859 0.33135,-1.68735 0.69871,-0.13321 1.24406,0.4403 1.24406,1.30831 0,0.62527 -0.11244,0.76135 -0.62906,0.76135 -0.34598,0 -0.77184,-0.17204 -0.94635,-0.38231 z m 1.04625,-0.52811 c 0,-0.42139 -0.48005,-0.81439 -0.71175,-0.58269 -0.21766,0.21766 0.12211,0.96395 0.43886,0.96395 0.15009,0 0.27289,-0.17157 0.27289,-0.38126 z m -40.11402,-1.1501 c -2.92616,-0.24794 -3.277658,-0.31199 -3.277658,-0.59733 0,-0.26361 0.037,-0.26961 1.256768,-0.20414 0.69122,0.0371 2.56254,0.11411 4.15847,0.17113 2.914,0.1041 4.04179,0.27672 3.41918,0.52334 -0.36984,0.1465 -4.21645,0.22056 -5.55676,0.107 z m -1.9333,-2.93449 c -2.125518,-0.27761 -3.325735,-0.54948 -3.398823,-0.76991 -0.29577,-0.89202 0.806885,-2.20982 3.192413,-3.81532 4.6515,-3.13053 8.78744,-4.07566 12.5103,-2.85883 1.00643,0.32896 1.94299,0.70243 2.08124,0.82994 0.38496,0.35508 0.0576,0.28741 -2.07837,-0.42962 -2.16429,-0.72652 -3.38233,-0.8091 -5.50216,-0.37303 -2.89795,0.59613 -8.569588,3.97 -9.450228,5.62163 -0.206373,0.38705 -0.325435,0.75342 -0.264581,0.81415 0.06085,0.0607 1.837049,0.32547 3.947099,0.58831 6.80738,0.84798 27.14159,0.44226 28.73952,-0.57342 0.30876,-0.19626 0.62007,-0.66384 0.6918,-1.03907 0.21294,-1.11391 -2.27924,-3.19943 -5.35458,-4.48086 -4.10775,-1.71161 -5.01561,-1.62045 -9.57712,0.96171 -2.34037,1.32482 -3.17771,1.4892 -3.33829,0.65537 -0.0622,-0.32316 0.19652,-0.5845 0.84836,-0.85686 1.0902,-0.45552 1.58333,-0.50196 1.35178,-0.1273 -0.0899,0.14552 -0.38005,0.26458 -0.64468,0.26458 -0.50051,0 -1.25385,0.70321 -1.01221,0.94485 0.15673,0.15673 3.5619,-1.66072 3.78359,-2.01942 0.26028,-0.42114 2.51551,-1.29005 3.7856,-1.45853 0.68468,-0.0908 1.7541,-0.028 2.37649,0.13958 1.95211,0.52565 5.60733,2.44992 6.95456,3.6612 1.10721,0.99547 1.29311,1.30396 1.29311,2.14586 0,1.0202 -0.37535,1.715 -1.05834,1.9591 -0.34228,0.12233 -0.34014,0.14471 0.0156,0.16272 0.22684,0.0115 0.62957,-0.13788 0.89495,-0.33192 0.63346,-0.4632 0.59752,-2.83441 -0.10893,-7.18781 -1.1433,-7.04544 -2.12197,-10.21617 -4.89509,-15.85921 -2.64665,-5.385705 -5.59339,-8.728205 -9.92504,-11.258015 -8.1948,-4.78602 -17.03431,-2.94407 -21.437154,4.46702 -3.403907,5.729625 -7.168793,17.678885 -7.837672,24.875755 -0.171353,1.84369 -0.165997,1.86454 0.681897,2.6566 1.417569,1.32421 6.320753,2.52342 12.316659,3.01238 3.03768,0.24772 3.29032,0.0535 0.41832,-0.32163 z m 4.47112,-73.066745 c -0.55269,-1.03273 0.40221,-2.23628 1.22951,-1.54968 0.68362,0.56735 0.35627,2.08884 -0.44941,2.08884 -0.27035,0 -0.62139,-0.24263 -0.7801,-0.53916 z m 17.36589,-4.03616 c -0.72476,-0.52996 -0.47649,-1.64239 0.36656,-1.64239 0.57649,0 0.66145,0.11612 0.66145,0.90399 0,1.01844 -0.32539,1.25216 -1.02801,0.7384 z m 0.72357,-0.85712 c -0.082,-0.21362 -0.25537,-0.3884 -0.38532,-0.3884 -0.27149,0 -0.31923,0.6226 -0.0671,0.87475 0.28224,0.28225 0.61151,-0.0717 0.4524,-0.48635 z M 145.1838,159.25842 c 0,0 -1.43427,-2.57307 -2.56617,-4.82864 -3.59166,-7.15714 -7.00072,-12.57953 -9.6781,-15.39381 l -1.33878,-1.40723 1.59635,2.05869 c 0.87799,1.13228 2.23872,3.15635 3.02385,4.49792 2.53322,4.32856 5.79463,10.06844 6.67513,11.7478 0.91213,1.73969 4.66772,8.02852 4.89665,8.02852 0.0757,0 -2.60893,-4.70325 -2.60893,-4.70325 z M 114.488,69.181025 c -0.43396,-0.43395 -0.39962,-1.40163 0.0634,-1.78588 0.20949,-0.17386 0.7155,-0.27773 1.12448,-0.23084 0.60267,0.0691 0.76044,0.23324 0.83245,0.86597 0.13443,1.18126 -1.21893,1.95213 -2.0203,1.15075 z m -15.081258,-0.52916 c -0.74216,-0.74216 -0.18302,-2.06375 0.873118,-2.06375 0.70921,0 1.19063,0.48142 1.19063,1.19062 0,0.70921 -0.48142,1.19063 -1.19063,1.19063 -0.305588,0 -0.698498,-0.14288 -0.873118,-0.3175 z m 0.21446,-0.34059 c -0.6843,-0.82453 0.476628,-1.88629 1.234168,-1.12875 0.31782,0.31782 0.33932,0.51967 0.10247,0.96222 -0.35073,0.65535 -0.87658,0.72086 -1.336638,0.16653 z m 3.925958,7.94824 c 1.21356,-0.42817 2.29409,-1.12126 4.06788,-2.60928 l 1.20118,-1.00766 -0.49787,-1.31028 c -0.54939,-1.44588 -0.6304,-3.4514 -0.21266,-5.26427 0.35816,-1.55424 -0.20644,-3.0769 -1.61166,-4.34642 -1.72433,-1.55783 -3.05812,-2.10765 -5.15583,-2.12535 -5.891519,-0.0497 -9.848905,5.87098 -7.807099,11.68028 1.343665,3.82297 6.306281,6.29187 10.016059,4.98298 z m 10.98231,-7.6904 c -0.17535,-0.45695 0.33621,-1.18725 0.83165,-1.18725 0.50668,0 0.95532,0.67417 0.77001,1.15709 -0.20817,0.54249 -1.39647,0.56487 -1.60166,0.0302 z m 6.01915,8.0226 c 3.76007,-1.72142 5.48448,-5.43584 4.34433,-9.35781 -0.92271,-3.17403 -2.65406,-5.18659 -5.33002,-6.19573 -2.13514,-0.80519 -5.19028,-0.66868 -7.11223,0.31777 -2.78306,1.42843 -3.8641,3.14632 -4.04436,6.4269 -0.0996,1.81203 -0.0235,2.34133 0.52236,3.63581 1.22171,2.89711 3.00582,4.84692 5.17512,5.65576 1.53697,0.57307 4.64756,0.3401 6.4448,-0.4827 z m 2.45367,-29.70239 c -0.0811,-0.21131 -0.0735,-0.50377 0.0168,-0.6499 0.25566,-0.41366 0.94102,-0.0253 0.94102,0.53325 0,0.58682 -0.74266,0.67727 -0.95779,0.11665 z m -17.03389,3.95608 c 0,-0.52449 0.11622,-0.67788 0.46303,-0.61109 0.25466,0.049 0.46302,0.32403 0.46302,0.61109 0,0.28706 -0.20836,0.56205 -0.46302,0.61109 -0.34681,0.0668 -0.46303,-0.0866 -0.46303,-0.61109 z m -2.91041,74.561435 c -5.629423,-0.33062 -11.706392,-1.41566 -13.740421,-2.45334 -1.682621,-0.85841 -1.975342,-1.51219 -1.784594,-3.98577 0.536679,-6.9595 4.320895,-18.94007 7.878525,-24.942875 2.198672,-3.70983 5.51841,-6.07442 9.76002,-6.95189 3.77757,-0.78146 8.67402,0.33652 12.87674,2.94009 2.65613,1.64546 5.94251,4.99035 7.57093,7.70573 2.14654,3.579335 4.40912,8.868655 5.23111,12.228955 1.3162,5.38063 2.29361,12.06754 1.97556,13.51562 -0.28259,1.2866 -1.06473,1.50779 -6.48453,1.83383 -4.36056,0.26232 -19.4721,0.33349 -23.28334,0.10965 z m 39.57931,3.47694 c -0.49091,-0.49091 -0.43716,-1.04463 0.10141,-1.04463 0.53491,0 0.98246,0.84996 0.63206,1.20035 -0.20877,0.20878 -0.41215,0.1656 -0.73347,-0.15572 z m -41.69598,0.93975 c 0,-0.14552 0.1786,-0.26459 0.39688,-0.26459 0.21828,0 0.39687,0.11907 0.39687,0.26459 0,0.14552 -0.17859,0.26458 -0.39687,0.26458 -0.21828,0 -0.39688,-0.11906 -0.39688,-0.26458 z m -13.102066,1.04993 c -0.102753,-0.16626 -0.06232,-0.42679 0.08984,-0.57895 0.355574,-0.35557 1.184577,-0.0454 1.039913,0.38905 -0.147267,0.4423 -0.895977,0.56815 -1.12975,0.1899 z m 8.481076,5.0504 c -0.30938,-0.50059 0.133491,-0.80738 1.069986,-0.7412 0.650827,0.046 0.895705,0.18012 0.842931,0.4617 -0.08741,0.46639 -1.655784,0.69554 -1.912917,0.2795 z m 17.23281,1.13161 c -0.43909,-0.43907 -0.12907,-0.88194 0.61736,-0.88194 0.50207,0 0.79375,0.13543 0.79375,0.36856 0,0.52405 -1.02687,0.89763 -1.41111,0.51338 z m -18.035775,-0.23865 c -0.933453,-0.48424 -1.339609,-0.84709 -1.154938,-1.03176 0.07299,-0.073 0.600829,0.11113 1.172985,0.40915 1.023072,0.53289 1.627193,0.54725 3.61997,0.086 1.013618,-0.2346 0.928088,0.3008 -0.10562,0.66115 -1.172327,0.40868 -2.601664,0.35827 -3.532397,-0.12457 z m -29.119651,26.79327 c 0.355098,-1.01379 -0.06788,-1.60083 -1.297638,-1.80095 -1.504865,-0.24491 -1.732158,-1.09743 -0.553408,-2.07571 0.417275,-0.3463 0.576562,-1.34029 0.212884,-1.32843 -1.639724,0.0534 -3.975015,1.27413 -4.572175,2.38993 -0.247732,0.4629 -0.143031,0.58144 0.913506,1.03433 0.656317,0.28133 1.810819,0.99962 2.565556,1.59621 1.572681,1.24313 2.342288,1.29515 2.731275,0.18462 z m 80.581116,3.03278 c 0,-1.02307 -1.34055,-3.60459 -2.67552,-5.15228 -1.22254,-1.41735 -4.7555,-4.16319 -8.96614,-6.96855 -10.59829,-7.06114 -21.85554,-11.86 -34.26356,-14.60618 -4.760093,-1.05353 -12.643173,-2.34513 -16.508461,-2.70483 -4.815618,-0.44814 -10.731177,0.40627 -11.505499,1.66179 -0.152754,0.24768 -0.220705,0.50736 -0.151,0.57706 0.06971,0.0697 1.434714,0.006 3.03335,-0.14073 1.598639,-0.14711 4.571032,-0.19184 6.605318,-0.0994 18.390862,0.83568 36.624612,6.84071 52.222892,17.1989 4.73909,3.14703 9.91937,7.82391 11.36225,10.25811 0.55284,0.93265 0.84637,0.92437 0.84637,-0.0239 z M 68.055525,177.1024 c 1.194318,-0.18524 2.258081,-0.42338 2.363914,-0.52921 0.280583,-0.28059 -0.379161,-2.70276 -1.265653,-4.64668 -1.6183,-3.54866 -6.182323,-9.11223 -7.66985,-9.34959 -0.886375,-0.14144 -4.592611,0.89548 -6.293657,1.76082 -1.67745,0.85334 -3.926856,2.90077 -5.050264,4.5968 -0.608406,0.91853 -0.792443,1.49612 -0.792443,2.48707 0,3.31277 2.296655,4.79177 9.525001,6.1339 1.062908,0.19735 6.820781,-0.0867 9.182952,-0.45311 z m 43.370525,9.50562 c 1.87324,-0.63759 3.96921,-1.4063 4.65768,-1.70825 0.68849,-0.30195 1.70419,-0.67082 2.25714,-0.81971 0.55294,-0.14889 1.2203,-0.42788 1.483,-0.61998 0.45277,-0.33107 0.45514,-0.42671 0.0455,-1.83573 -0.69862,-2.40315 -2.96381,-5.52967 -5.01463,-6.92139 -1.10789,-0.75183 -1.88541,-0.88656 -2.09655,-0.36329 -0.10059,0.24928 -0.1386,0.25157 -0.15434,0.009 -0.0375,-0.57635 0.99965,-0.93414 1.84923,-0.63798 2.14963,0.74937 4.30909,3.34682 5.93129,7.13428 l 1.0523,2.4569 1.32784,-0.17618 c 5.18211,-0.68755 11.34649,-2.41577 14.82158,-4.15532 4.56871,-2.28698 7.0816,-4.3159 8.44266,-6.81663 1.52338,-2.79893 0.60823,-4.65781 -4.84648,-9.84434 -4.04314,-3.84437 -9.06085,-7.20785 -16.23959,-10.8858 -3.97848,-2.03833 -7.50258,-3.60496 -10.77221,-4.78878 -1.09142,-0.39516 -2.40111,-0.87293 -2.91043,-1.0617 -1.7251,-0.63939 -7.46415,-2.27722 -11.08314,-3.16296 -4.343025,-1.06294 -9.191642,-1.89885 -13.126232,-2.26298 -3.360372,-0.311 -7.872524,-0.002 -7.9375,-0.0673 -0.06498,-0.065 -2.25797,-0.43875 -3.598767,-0.33265 -3.003069,0.23769 -3.113524,0.33687 -4.938845,4.43488 -2.064944,4.63598 -2.956931,7.41641 -3.231907,10.07425 -0.176641,1.70737 -0.402952,2.60553 -0.787609,3.12581 -0.296862,0.40152 -0.539747,0.9784 -0.539747,1.28195 0,0.30355 -0.306856,0.85877 -0.681903,1.23381 -0.777893,0.7779 -0.665276,0.98023 0.814194,1.46281 1.244622,0.40598 1.454463,1.05148 0.771285,2.37259 -0.68393,1.32258 -0.534805,2.18097 0.624046,3.59219 1.750867,2.13217 2.924746,4.6038 3.758041,7.91269 0.151982,0.6035 0.463016,1.16891 0.691184,1.25647 0.38843,0.14905 9.144503,-1.52232 9.667029,-1.84526 0.408318,-0.25235 -0.01167,-0.62216 -1.640234,-1.44426 -0.862523,-0.4354 -1.568225,-0.90898 -1.568225,-1.05241 0,-0.39912 0.06874,-0.37141 3.381166,1.36293 6.259092,3.27717 6.190509,3.25888 8.281564,2.20823 1.776534,-0.89263 1.66619,-0.76897 1.262684,-1.41508 -0.289787,-0.46403 -0.252523,-0.72601 0.250555,-1.76149 0.735907,-1.51473 2.869351,-3.83036 3.528987,-3.83036 0.74255,0 0.59323,0.66234 -0.323157,1.43343 -1.289109,1.08471 -2.611681,2.78733 -2.464036,3.17209 0.08377,0.2183 0.758828,0.40158 1.781445,0.48367 0.948357,0.0761 2.148136,0.38595 2.829407,0.73067 1.202642,0.60851 4.478045,3.03377 4.798025,3.55266 0.0966,0.15662 0.48582,0.64195 0.86499,1.07852 0.82047,0.94467 3.1269,5.38068 3.57671,6.87916 0.17472,0.58209 0.36444,1.20717 0.42158,1.38907 0.17622,0.561 1.24647,0.37566 4.78439,-0.82853 z m -14.71806,3.52385 c 1.236927,-0.15386 3.73724,-0.60171 5.55625,-0.99522 2.96634,-0.64172 3.31602,-0.77658 3.39199,-1.30819 0.0917,-0.6418 -2.10192,-5.04294 -3.75424,-7.53222 -1.80789,-2.72365 -5.337021,-5.49355 -6.999326,-5.49355 -1.0022,0 -5.307391,2.0587 -7.717648,3.69051 -1.780196,1.20524 -3.60581,3.7938 -3.857005,5.4689 -0.486035,3.2411 1.160552,5.28292 4.913312,6.09266 1.859788,0.4013 5.587519,0.43525 8.466667,0.0771 z m -8.73125,0.90838 c -1.536332,-0.29476 -3.244707,-0.98454 -3.988565,-1.61046 -2.631308,-2.2141 -2.422427,-6.91551 0.449159,-10.10941 1.371471,-1.5254 1.465252,-2.41904 0.341498,-3.25413 -1.280943,-0.95189 -2.521259,-0.89342 -5.958771,0.28093 -2.517061,0.85989 -3.966782,1.17017 -7.247488,1.55115 -13.714585,1.59262 -23.036205,-0.75721 -23.737235,-5.98378 -0.33928,-2.52953 3.078732,-6.63501 7.433393,-8.92849 1.710645,-0.90095 2.830774,-1.71759 3.847459,-2.80501 1.343309,-1.43677 4.084508,-3.10544 5.101453,-3.10544 0.844193,0 1.318868,-0.78548 2.079731,-3.44149 2.10307,-7.34138 3.608324,-11.36746 6.72593,-17.98976 1.19888,-2.54661 2.511653,-5.34458 2.917273,-6.21771 0.405619,-0.87312 1.237361,-2.65906 1.848313,-3.96875 0.610952,-1.30968 1.798264,-3.5104 2.638475,-4.89047 2.908702,-4.77763 3.646061,-6.82091 10.027005,-27.785565 4.95655,-16.28481 5.195287,-17.08634 5.195287,-17.4427 0,-0.1653 -0.401686,-0.65324 -0.89263,-1.08429 -1.375024,-1.20729 -2.091548,-3.13351 -2.227766,-5.98886 -0.102703,-2.15275 -0.04337,-2.58093 0.53172,-3.83708 0.840695,-1.83633 2.654689,-3.62836 4.797338,-4.73927 l 1.712653,-0.88797 1.200588,-4.90419 c 0.66033,-2.6973 1.27925,-5.43996 1.37539,-6.09481 0.27152,-1.84943 1.36036,-6.5649 1.97651,-8.55979 1.13347,-3.66973 2.91986,-6.1057 5.35765,-7.305818 4.11427,-2.025444 9.58161,-0.989952 13.00603,2.463287 2.42943,2.449881 4.27396,6.869341 5.7085,13.677481 1.34019,6.36033 3.57498,18.91179 5.01525,28.16755 3.23121,20.7651 4.68519,29.083445 6.51896,37.295705 1.33313,5.97016 1.94022,7.7018 3.73438,10.65188 3.52624,5.79809 8.13871,14.69566 9.0601,17.47718 1.44296,4.35602 2.01968,10.732 1.24327,13.74509 -0.60595,2.35155 -1.77702,4.51364 -3.20749,5.92178 -1.16123,1.14311 -1.25494,1.34012 -1.51026,3.175 -0.5243,3.76789 -1.29069,7.241 -1.86017,8.42985 -1.33257,2.78189 -4.72965,5.1399 -11.19106,7.76805 -4.56525,1.85691 -7.50527,2.69458 -13.13605,3.74273 -1.99518,0.3714 -5.64969,1.35287 -8.39687,2.25508 -9.27225,3.04516 -15.185728,4.25024 -21.461877,4.3736 -2.401094,0.0472 -4.663281,0.0287 -5.027083,-0.0411 z"
       inkscape:connector-curvature="0"
       sodipodi:nodetypes="csccccscccccccccccccccccccccccccscccccccsccsccccccccssccscccssscccccccscsscscscccscscscsssscssccsscsssscsscccccsccccsccccsccscssscccscccsscsscsccccsccssccscccccccccssccccccccssscccccccccccssccscccscsccccsccsccscscsscsscccscsssscssssssccccccccccsscccsccccccccccccccccsccccccccccccccscccccccccccccccccsccccccsscsccccscccsscccscccccccccccccsssccccccccccssssssccssscccsccscsscscscccccccccc" />
    <path
       inkscape:connector-curvature="0"
       style="fill:none;stroke:#000000;stroke-width:1.19701707;stroke-opacity:1"
       d="m 242.90785,80.646258 c -1.16059,-1.398427 -1.19615,-2.182371 -0.14664,-3.231944 2.11335,-2.113343 1.65846,-3.148118 -1.07025,-2.434545 -2.16815,0.566985 -2.36746,0.238248 -1.701,-2.805355 l 0.75494,-3.447599 -2.30451,2.839189 c -2.07506,2.556517 -2.38446,2.630797 -3.1077,0.746043 -1.20267,-3.134105 0.87023,-4.840655 10.99128,-9.04878 9.53734,-3.965412 20.03924,-10.425191 18.8622,-11.602234 -0.37141,-0.371408 -1.62125,0.160844 -2.77742,1.182796 -1.15615,1.021951 -8.16201,4.883528 -15.56856,8.581289 -12.65813,6.319635 -13.46643,6.938137 -13.46643,10.304244 0,2.055538 0.63739,3.590071 1.49627,3.602221 0.82295,0.01166 2.84291,1.585922 4.48882,3.498392 3.02418,3.514002 6.38568,5.234343 3.54894,1.816283 z"
       id="path3759" />
    <path
       inkscape:connector-curvature="0"
       style="fill:none;stroke:#000000;stroke-width:1.19701707;stroke-opacity:1"
       d="m 178.62755,90.156098 c 1.07904,-1.07904 -0.40674,-4.15807 -1.63897,-3.39649 -0.58938,0.36425 -1.07159,-0.11462 -1.07159,-1.06435 0,-2.046622 -5.7039,-3.429121 -6.80398,-1.64913 -0.41896,0.67789 0.70125,2.49096 2.48935,4.02902 3.20879,2.76009 5.62912,3.47702 7.02519,2.08095 z"
       id="path3757" />
    <path
       inkscape:connector-curvature="0"
       style="fill:none;stroke:#000000;stroke-width:1.19701707;stroke-opacity:1"
       d="m 213.62303,88.477608 3.44045,-3.59105 h -4.41352 c -3.27315,0 -4.4135,0.50178 -4.4135,1.9421 0,1.59005 -0.32528,1.67213 -1.79446,0.45283 -1.43051,-1.18722 -2.52295,-1.1875 -5.38658,-10e-4 -5.91381,2.44955 -4.56204,4.78847 2.76752,4.78847 5.50372,0 6.82269,-0.48331 9.80009,-3.59102 z"
       id="path3755" />
    <path
       inkscape:connector-curvature="0"
       style="fill:none;stroke:#000000;stroke-width:1.19701707;stroke-opacity:1"
       d="m 180.30707,104.33807 c -0.51717,-0.82295 -0.55597,-2.11814 -0.0862,-2.87821 0.52918,-0.85625 0.32837,-1.05706 -0.52786,-0.52788 -0.76012,0.46975 -1.38201,0.28366 -1.38201,-0.41355 0,-1.627912 7.99269,-1.664342 8.99596,-0.041 0.41697,0.67467 0.3141,1.14953 -0.22862,1.05525 -2.93754,-0.51029 -5.04782,0.34961 -5.41587,2.20688 -0.30364,1.53232 -0.66757,1.69305 -1.35543,0.59851 z"
       id="path3753" />
    <path
       inkscape:connector-curvature="0"
       style="fill:none;stroke:#000000;stroke-width:1.19701707;stroke-opacity:1"
       d="m 166.25984,106.73211 c -0.0729,-4.03858 -0.20834,-4.22529 -1.35046,-1.86161 -0.69818,1.44497 -0.94796,3.46492 -0.55505,4.48882 1.20956,3.15203 1.99037,2.07548 1.90551,-2.62721 z"
       id="path3749" />
    <path
       inkscape:connector-curvature="0"
       style="fill:none;stroke:#000000;stroke-width:1.19701707;stroke-opacity:1"
       d="m 212.55523,112.7172 c 0.8746,-1.15212 1.56101,-3.44141 1.52534,-5.08731 -0.0633,-2.92142 -0.0888,-2.91248 -1.07588,0.37578 -0.55609,1.85256 -1.65306,4.14187 -2.43772,5.08731 -0.78466,0.94546 -1.01608,1.719 -0.51427,1.719 0.5018,0 1.62794,-0.94264 2.50253,-2.09478 z"
       id="path3747" />
    <path
       inkscape:connector-curvature="0"
       style="fill:none;stroke:#000000;stroke-width:1.19701707;stroke-opacity:1"
       d="m 204.42041,119.76444 c 0.96215,-0.61017 -0.45591,-0.95084 -3.66071,-0.87945 -4.06559,0.0906 -6.10304,-0.61695 -9.14373,-3.17524 -2.15187,-1.81051 -4.94848,-3.29182 -6.21469,-3.29182 -1.2662,0 -2.30219,-0.64636 -2.30219,-1.43642 0,-1.1172 -0.31921,-1.1172 -1.43642,0 -0.79003,0.79006 -2.406,1.43642 -3.59105,1.43642 -1.18505,0 -2.15463,0.7762 -2.15463,1.72491 0,2.5918 -2.01995,3.33153 -5.06258,1.85394 l -2.71803,-1.31996 2.80444,2.44423 c 2.19686,1.9147 3.3089,2.17427 5.13291,1.19809 2.34351,-1.2542 11.35986,-0.48183 16.00299,1.37088 3.19114,1.27337 10.38472,1.31672 12.34369,0.0744 z"
       id="path3745" />
    <path
       inkscape:connector-curvature="0"
       style="fill:none;stroke:#000000;stroke-width:1.19701707;stroke-opacity:1"
       d="m 201.05435,130.26625 c 1.98766,-1.62583 2.18864,-2.03229 0.5985,-1.2105 -3.90439,2.01785 -6.06896,3.67541 -4.78806,3.66653 0.65836,-0.006 2.54366,-1.10976 4.18956,-2.45603 z"
       id="path3743" />
    <path
       inkscape:connector-curvature="0"
       style="fill:none;stroke:#000000;stroke-width:1.19701707;stroke-opacity:1"
       d="m 180.77803,131.64065 c -0.9474,-0.59946 -2.66795,-3.41918 -3.82343,-6.26601 -2.33427,-5.75114 -2.90557,-4.04907 -0.97467,2.90378 0.96141,3.46185 1.84992,4.48462 3.88362,4.47048 2.05115,-0.0156 2.25432,-0.26047 0.91448,-1.10825 z"
       id="path3741" />
    <path
       inkscape:connector-curvature="0"
       style="fill:none;stroke:#000000;stroke-width:1.19701707;stroke-opacity:1"
       d="m 188.2509,144.62233 c -0.75042,-0.75042 -5.58318,-2.36919 -10.73946,-3.59724 -9.75738,-2.32394 -10.36581,-2.77838 -15.64344,-11.68428 -2.79293,-4.71301 -3.12063,-6.57944 -3.36259,-19.15227 -0.14742,-7.66167 0.22692,-14.546262 0.83188,-15.299072 0.60496,-0.75281 1.30542,-2.9925 1.5566,-4.97706 0.25115,-1.98458 1.04081,-4.69985 1.75478,-6.033935 0.71399,-1.334063 1.29815,-3.545621 1.29815,-4.914558 0,-1.36893 0.62224,-3.485334 1.38275,-4.703111 1.13874,-1.823409 0.82188,-2.9495 -1.79552,-6.381085 -1.74805,-2.291824 -3.20018,-5.462739 -3.22693,-7.046497 -0.0268,-1.58376 -1.64273,-4.744512 -3.59105,-7.023902 -3.85872,-4.514399 -4.81386,-7.520939 -1.44763,-4.556757 1.15213,1.014519 4.9034,3.251913 8.33614,4.971976 6.43259,3.223204 10.56431,7.918682 6.96795,7.918682 -1.01071,0 -1.83764,-0.839771 -1.83764,-1.866166 0,-1.026396 -0.53366,-1.536355 -1.1859,-1.133245 -1.71196,1.058052 -1.13487,10.18152 0.644,10.18152 0.80283,0 1.74141,-1.077316 2.08575,-2.394033 0.34433,-1.31672 1.48446,-2.394039 2.53364,-2.394039 1.04917,0 1.90759,-0.497328 1.90759,-1.105175 0,-2.27083 -6.45495,-8.662012 -11.18625,-11.07574 -6.16254,-3.143896 -11.55707,-7.099795 -11.55707,-8.474998 0,-0.579375 1.4813,-0.0076 3.29179,1.270519 1.81049,1.278164 6.72352,4.048748 10.91783,6.156855 4.19431,2.108107 8.83975,5.04665 10.32319,6.530092 2.33693,2.336927 2.98967,2.483282 4.88718,1.095793 1.63051,-1.192261 6.79139,-1.550481 20.20075,-1.402178 14.93548,0.165177 18.99139,0.605228 23.7542,2.577205 6.66035,2.75762 7.73533,2.549053 28.09876,-5.451603 6.76276,-2.657037 12.56661,-4.560279 12.89747,-4.229426 0.33088,0.330856 -1.02728,4.044648 -3.01809,8.252867 -1.99081,4.208228 -3.62008,8.789231 -3.62058,10.180008 -5.4e-4,1.39078 -1.66787,4.622732 -3.70518,7.182105 -5.64675,7.093665 -5.84022,7.804547 -4.55205,16.727216 1.60898,11.144932 1.50138,23.330082 -0.2579,29.201972 -1.82478,6.09063 -8.34076,13.7755 -14.22583,16.77787 -6.15293,3.13898 -26.49266,7.24611 -28.38677,5.73202 -1.55206,-1.24066 -14.09663,-0.76308 -17.13689,0.65243 -1.00607,0.46841 -2.44321,0.23762 -3.19363,-0.51276 z"
       id="path3739" />
    <path
       inkscape:connector-curvature="0"
       style="fill:none;stroke:#000000;stroke-width:1.19701707;stroke-opacity:1"
       d="m 200.28353,145.12149 c 4.08376,-0.50097 6.09474,-0.25685 6.76068,0.82068 1.18853,1.92305 20.28274,-1.42919 29.0129,-5.09363 6.37254,-2.67487 13.02066,-9.36791 16.02617,-16.13451 2.22123,-5.00087 2.83125,-19.42953 1.27073,-30.056812 -0.59075,-4.0231 -0.51235,-6.12586 0.21169,-5.67836 1.72034,1.06324 2.35694,-1.99869 0.90405,-4.34831 -1.00219,-1.620746 -0.45975,-3.198953 2.58342,-7.516342 2.11859,-3.005658 3.85199,-6.406937 3.85199,-7.558386 0,-1.151462 1.8853,-6.027522 4.18956,-10.835703 4.37472,-9.128498 5.22489,-12.838349 2.69328,-11.752442 -16.3834,7.027485 -21.92999,9.250196 -28.54437,11.438713 l -7.89582,2.612519 -5.58008,-2.3919 c -4.9256,-2.111355 -8.11269,-2.380595 -27.17287,-2.295488 -17.59185,0.07855 -21.97057,-0.236368 -23.63162,-1.699599 -1.12132,-0.987798 -5.27074,-3.42931 -9.2209,-5.425572 -3.95016,-1.996268 -9.02884,-5.013055 -11.28595,-6.703977 -2.2571,-1.690923 -4.3118,-2.866435 -4.56599,-2.612245 -1.36882,1.36882 1.7254,9.997978 5.2326,14.592672 4.54472,5.953902 4.98023,8.188378 1.94097,9.958583 -1.87079,1.089624 -1.80678,1.223989 0.59851,1.256497 1.48667,0.02007 2.69329,0.783437 2.69329,1.703855 0,0.917105 0.80798,1.977516 1.79552,2.356466 2.43412,0.934064 2.26811,3.960982 -0.29925,5.456336 -1.16256,0.677122 -1.42891,1.236292 -0.59851,1.256498 2.03329,0.04947 1.88749,3.733224 -0.26963,6.812949 -0.97126,1.386666 -1.89619,4.230906 -2.05541,6.320546 -0.15924,2.08965 -0.97534,4.36857 -1.81358,5.06423 -0.9001,0.74704 -1.22709,2.44814 -0.79868,4.15507 0.39896,1.589612 0.79775,8.139702 0.88619,14.555752 0.15312,11.10723 0.35631,11.97011 4.24625,18.03024 5.70828,8.89298 6.21582,9.2635 14.94662,10.91088 4.28107,0.80777 8.75275,2.22527 9.93708,3.14996 1.22762,0.95851 3.43974,1.39812 5.14585,1.02259 1.64589,-0.36228 5.60828,-0.97958 8.80531,-1.37176 z"
       id="path3737" />
    <path
       id="path3638"
       style="fill:none;stroke:#000000;stroke-width:1.19701707;stroke-opacity:1"
       d="m -39.689136,127.82505 c -2.162255,-4.78267 -4.877814,-13.26994 -6.034604,-18.86066 -1.156769,-5.59073 -2.881713,-12.113816 -3.833181,-14.495716 -1.831598,-4.58521 -1.439064,-8.714867 0.456136,-4.79881 1.29077,2.66713 1.518172,2.11143 1.328446,-3.246346 -0.207244,-5.852574 5.229465,-13.394772 18.17146,-25.208762 5.347687,-4.881578 12.405596,-11.921126 15.684253,-15.64342 6.6543769,-7.554782 18.6458909,-16.289994 23.942693,-17.441051 3.311843,-0.719695 6.222141,-0.219061 16.022971,2.756248 9.434241,2.864023 13.284515,11.887242 13.549355,31.753317 0.145514,10.915707 -0.296735,13.962921 -2.853456,19.661141 l -3.025684,6.743333 7.179894,-1.76883 c 3.948933,-0.972866 9.91442,-1.562629 13.256629,-1.310556 3.342196,0.252098 10.807023,-0.547042 16.588497,-1.775793 10.221822,-2.172421 13.556236,-2.064599 13.875192,0.448668 0.171355,1.350301 -8.07235,6.299021 -13.032594,7.823501 -2.448941,0.75267 -3.410693,1.87206 -4.249916,4.94659 -0.80082,2.933856 -1.603506,3.942136 -3.067239,3.852816 -1.604737,-0.0979 -2.047775,0.58652 -2.324745,3.59137 -0.584731,6.34383 -3.034236,8.00475 -11.959437,8.10925 -7.389012,0.0867 -8.462955,-0.19333 -11.269644,-2.93868 -3.946304,-3.85982 -5.579524,-3.47794 -14.06821,3.28943 -4.321623,3.44528 -6.896764,6.43638 -8.026695,9.32321 -0.915014,2.33775 -3.05851,5.67656 -4.763318,7.41957 -2.4408721,2.49556 -3.0234591,3.74786 -2.7411511,5.89223 0.46335,3.5194 0.03289,4.37016 -1.448875,2.86342 -0.707804,-0.7197 -2.717498,-0.053 -4.949576,1.64184 -4.407568,3.34686 -8.882193,4.07587 -9.209049,1.50029 -0.153285,-1.20791 -0.5831,-1.44231 -1.508584,-0.82282 -0.711833,0.47649 -1.213941,1.49897 -1.115816,2.27216 0.343069,2.70331 -3.9221779,1.14736 -5.2873389,-1.92882 -1.075485,-2.42346 -1.624862,-2.81691 -2.562636,-1.83541 -0.925287,0.96845 -1.24297,0.86086 -1.412952,-0.47857 -0.163894,-1.29137 -1.748139,-1.55516 -6.270656,-1.04402 -8.619543,0.97413 -10.542361,-0.34143 -15.040217,-10.29016 z m 14.024685,8.46251 c 3.674911,-0.19178 10.307247,-1.7587 14.738531,-3.48152 9.4016969,-3.6553 26.620794,-14.0824 33.523964,-20.30061 2.64762,-2.3849 5.992757,-4.84562 7.433648,-5.46827 2.133508,-0.92194 2.504782,-1.55527 2.000168,-3.41189 -0.689965,-2.53859 1.038913,-2.30304 2.00284,0.27291 0.901207,2.40846 4.670241,2.26804 4.980616,-0.18556 0.14427,-1.1404 0.709701,-0.24192 1.25654,1.99639 1.014084,4.15112 4.687968,7.08128 5.76621,4.59893 0.327919,-0.75493 0.599315,-3.8867 0.60312,-6.9595 0.0089,-7.280326 0.731291,-6.796966 1.538285,1.02938 0.352205,3.41578 1.055073,6.39936 1.561933,6.63017 2.050839,0.934 3.133379,-1.3722 3.52856,-7.51701 0.228845,-3.558586 0.605857,-6.383746 0.837771,-6.278136 0.231921,0.10572 0.548421,3.231106 0.703323,6.945506 0.154918,3.71437 0.924269,6.67191 1.70967,6.57222 1.837573,-0.2333 3.037018,-5.80911 3.141751,-14.605126 0.06111,-5.13551 -0.493929,-7.13028 -2.200327,-7.90737 -6.149155,-2.800395 -23.885667,1.34957 -35.47354,8.30003 -4.049838,2.42911 -14.2465431,6.904816 -22.65934115,9.946006 -8.41279695,3.04118 -16.99467685,6.5315 -19.07083685,7.75623 -3.656297,2.1569 -3.721391,2.1479 -2.072681,-0.28625 0.972932,-1.43642 1.449879,-4.45934 1.113288,-7.05598 -0.456604,-3.52254 -1.338674,-4.8844 -3.927087,-6.06316 -7.096519,-3.231836 -18.297754,0.39129 -19.375724,6.26718 -0.559502,3.04977 8.583067,28.32104 10.528226,29.1014 0.62119,0.24931 4.136175,0.29602 7.811093,0.10395 z m 18.2529619,2.63843 c 4.559471,-2.61778 8.08091095,-7.01994 6.10787,-7.63547 -0.475069,-0.14806 -3.648986,0.98196 -7.053163,2.51148 -5.8242789,2.61692 -6.1234169,2.93302 -5.0708929,5.35846 1.033729,2.38207 1.48982,2.36431 6.0161859,-0.23456 z m 6.73308295,1.31889 c 1.93426905,-0.79343 3.89314905,-2.26887 4.35307005,-3.27876 0.459918,-1.00993 1.204134,-1.66933 1.653809,-1.46537 0.449644,0.20405 2.162654,-2.5382 3.806609,-6.09367 3.8207821,-8.26342 2.5875451,-7.83057 -2.525507,0.88643 -2.90631,4.95486 -4.858207,7.07017 -7.26720605,7.87565 -1.81150595,0.60572 -3.50819595,1.57242 -3.77042495,2.14823 -0.699847,1.53673 -0.147417,1.52606 3.74964995,-0.0725 z M -40.992841,94.582144 c 2.338146,-0.57014 4.390708,-2.03129 5.128141,-3.65059 0.91985,-2.01984 2.297737,-2.66622 5.470032,-2.56604 4.861583,0.1535 8.752334,-1.33396 11.43281,-4.370829 2.93217,-3.322015 3.543993,-1.858655 1.291153,3.088199 -1.892131,4.15479 -1.809733,4.76036 1.008066,7.40892 3.434653,3.22835 5.237681,9.040816 3.808274,12.276876 -0.671476,1.5202 -0.453186,1.95194 0.757782,1.49883 0.935533,-0.35006 2.2836109,-2.33546 2.9957289,-4.41198 1.067239,-3.11203 0.661463,-4.668856 -2.3090299,-8.858996 -3.079152,-4.34346 -3.393433,-5.6731 -2.158818,-9.133552 1.031237,-2.890411 0.833646,-5.475436 -0.690093,-9.02826 -1.174277,-2.738023 -1.919628,-6.954664 -1.656334,-9.370309 0.518083,-4.753217 2.536813,-6.854026 10.4797009,-10.905735 3.160812,-1.612342 4.72735395,-3.712257 9.263264,-12.417204 4.316731,-8.284307 6.111628,-10.758133 8.5772421,-11.821595 3.588488,-1.547794 8.775994,0.348756 9.639005,3.524003 0.442861,1.629409 1.313228,2.167404 3.505795,2.167008 2.103514,-3.98e-4 4.002938,1.030114 6.812979,3.696297 3.518403,3.33827 3.835446,3.470383 3.268724,1.362068 -0.345164,-1.284116 -2.262413,-4.175883 -4.260545,-6.426142 -3.108602,-3.500847 -4.470859,-4.261325 -9.438226,-5.268854 -3.192913,-0.647615 -7.282348,-1.154015 -9.087648,-1.12532 -6.2007251,0.09855 -15.9289851,6.642 -26.380782,17.74434 -5.48169,5.822878 -13.820252,14.159081 -18.530168,18.524893 -10.106474,9.368114 -14.513072,16.196598 -13.731107,21.277762 0.294973,1.91673 -0.102281,4.11298 -0.882797,4.88056 -2.046569,2.01267 1.025783,3.0422 5.686845,1.90565 z m 51.224486,6.324596 c 2.875373,-1.242526 2.894939,-1.312226 0.654691,-2.332446 -1.2700891,-0.5784 -2.3848911,-2.23097 -2.4773441,-3.67232 -0.245034,-3.8202 0.344077,-4.42908 1.7762491,-1.83585 0.693844,1.25633 0.55542,0.42224 -0.3076061,-1.85353 -2.822045,-7.441722 2.9993211,-11.910658 12.2102481,-9.37357 l 5.095348,1.403478 -3.007763,4.629182 c -3.55978,5.47876 -2.776099,7.95375 1.311023,4.14043 3.343312,-3.11931 7.913346,-14.905183 7.873982,-20.306535 -0.02108,-2.879812 -0.498455,-3.545013 -2.454434,-3.419553 -3.125822,0.200483 -4.094103,-0.260288 -2.620192,-1.246896 0.643162,-0.43051 0.67916,-1.006006 0.07999,-1.278865 -2.339729,-1.065535 -3.417878,1.312589 -2.972696,6.556907 0.375784,4.426574 0.08009,5.619222 -1.537034,6.199827 -1.599041,0.574107 -1.794941,0.415977 -0.972664,-0.785146 0.566305,-0.827223 0.952156,-3.818639 0.857435,-6.647592 l -0.17223,-5.143543 4.253744,-1.237116 c 2.33957,-0.68041 4.580502,-0.748983 4.97986,-0.152372 0.399359,0.596608 1.099834,0.264096 1.556608,-0.738891 0.773925,-1.699407 0.581247,-1.785279 -2.828317,-1.260555 -3.989455,0.613964 -5.094381,-0.353555 -2.885065,-2.526285 0.775856,-0.762996 2.40646,-0.933753 3.623571,-0.379479 2.77597,1.264204 3.59482,-0.479417 2.905473,-6.186751 -0.738586,-6.114907 -6.465381,-13.270407 -10.620172,-13.269641 -1.695107,3.05e-4 -3.690204,-0.617906 -4.43357,-1.373769 -1.762148,-1.791827 -2.836956,-0.515104 -7.80265,9.268421 -4.1238021,8.12482 -4.1255861,8.137523 -1.074961,7.668057 3.245408,-0.499457 8.585921,2.133279 8.207981,4.046318 -0.124043,0.627796 -2.548892,0.394652 -5.388602,-0.518093 -2.839697,-0.912753 -5.8645071,-1.565672 -6.7218041,-1.450921 -2.566444,0.343496 -8.714291,8.481715 -10.257474,13.578336 -1.89202,6.24872 0.935589,14.712114 5.652968,16.920037 3.000763,1.40448 3.068244,1.6044 0.720299,2.13386 -3.34421405,0.75413 -3.54623105,3.95827 -0.494339,7.84063 3.062205,3.895436 3.728747,4.134246 7.2694061,2.604236 z m 5.211341,-26.645544 c 0.225057,-1.365795 0.368025,-1.345836 0.639922,0.08936 0.198984,1.050362 1.387505,1.963894 2.75341,2.116332 1.968398,0.219671 2.010812,0.346063 0.234411,0.698466 -2.652575,0.526212 -4.013465,-0.563228 -3.627749,-2.904156 z M 9.2659269,63.807507 c -1.199132,0.802676 -1.751056,0.614711 -2.270394,-0.773205 -0.925049,-2.472164 6.3046031,-2.848396 8.7498521,-0.455346 1.649714,1.6145 1.552664,1.747133 -1.723634,2.355761 -2.320035,0.430973 -3.42198,0.175067 -3.321664,-0.771384 0.101115,-0.954114 -0.366888,-1.070237 -1.4341601,-0.355826 z m 7.5866011,33.209117 c 1.651416,-0.4135 2.71644,-1.84273 3.658946,-4.9102 0.731217,-2.37981 0.939543,-4.5045 0.462953,-4.72153 -0.476582,-0.21703 -1.465073,1.58217 -2.196633,3.99827 -1.142617,3.7737 -1.770863,4.40204 -4.457025,4.45772 -2.006904,0.0417 -2.530677,0.36824 -1.462305,0.91192 0.915529,0.46593 2.712867,0.58461 3.994064,0.26382 z m 48.06733,2.37496 c 1.949834,-1.30517 0.37358,-4.538 -1.813598,-3.71957 -1.829524,0.68455 -2.101081,3.3667 -0.418449,4.13299 0.528424,0.240666 1.532859,0.0546 2.232047,-0.41342 z M 35.307979,81.699983 c 1.747433,-3.619236 3.328649,-23.805734 1.820508,-23.241411 -0.30873,0.115532 -0.831894,3.558604 -1.162587,7.6513 -0.33068,4.092696 -1.057337,10.192982 -1.614782,13.556201 l -1.01354,6.11495 z m 36.921688,8.449561 c 8.982354,-3.815633 11.843947,-5.596 10.198786,-6.345229 -0.318519,-0.145105 -5.449732,0.81449 -11.402684,2.132313 -10.36307,2.294096 -10.78769,2.520426 -9.980496,5.319576 0.463688,1.60791 0.935797,2.96574 1.049134,3.01735 0.113337,0.0516 4.674205,-1.80418 10.13526,-4.12401 z"
       inkscape:connector-curvature="0" />
    <path
       style="opacity:1;fill:none;fill-opacity:0.81642516;stroke:#000000;stroke-width:0.4031269;stroke-miterlimit:4;stroke-dasharray:none;stroke-opacity:1"
       d="m 171.57759,85.232258 c 0.95969,1.14247 2.12164,2.11 3.38293,2.90296 -0.67447,-0.5185 -0.81165,-1.40646 -0.99057,-2.1532 -0.70618,-0.49718 -1.58003,-0.70453 -2.42756,-0.7933 z m 4.48704,3.47252 c 0.18278,0.14715 1.20009,0.25312 0.75724,0.0676 -0.23232,0.0179 -0.66999,-0.0518 -0.75724,-0.0676 z"
       id="path5937"
       inkscape:connector-curvature="0" />
    <path
       style="opacity:1;fill:none;fill-opacity:0.81642516;stroke:#000000;stroke-width:0.4031269;stroke-miterlimit:4;stroke-dasharray:none;stroke-opacity:1"
       d="m 212.25696,86.891328 c -0.68528,0.0401 -1.43887,-0.0101 -2.07822,0.16696 -0.0641,0.84473 -0.21385,1.76413 -0.8439,2.38591 1.22185,-0.60394 2.18042,-1.60367 3.13044,-2.55694 l -0.10663,0.002 z m -8.06454,1.45368 c -1.39029,0.23812 -2.71534,0.84054 -3.9452,1.49221 2.3012,0.46056 4.67012,0.271 6.99544,0.14308 -1.08979,-0.246 -1.80804,-1.22265 -2.80421,-1.62616 -0.0817,-0.008 -0.16398,-0.0101 -0.24603,-0.0101 z"
       id="path5939"
       inkscape:connector-curvature="0" />
    <path
       style="opacity:1;fill:none;fill-opacity:0.81642516;stroke:#000000;stroke-width:1.14021504;stroke-miterlimit:4;stroke-dasharray:none;stroke-opacity:1"
       d="m 181.34228,113.53105 c -1.00754,0.62986 -2.27097,0.75029 -3.33972,1.03115 -0.0562,0.47758 -0.75189,1.6315 0.2304,1.26036 3.81057,-0.0785 7.66519,0.12222 11.38377,1.00991 -1.76433,-1.35116 -3.7681,-2.40535 -5.97766,-2.67683 -0.87709,-0.11658 -1.47556,-1.48443 -2.29679,-0.62459 z"
       id="path5941"
       inkscape:connector-curvature="0" />
    <path
       transform="matrix(0.67238875,0,0,0.67238875,-19.446481,24.829472)"
       style="fill:none;stroke:#000000;stroke-width:1px;stroke-linecap:butt;stroke-linejoin:miter;stroke-opacity:1"
       d="m 299.62865,112.9781 c 0.68351,-0.14045 1.36587,-0.28066 1.82821,-0.3366 0.46234,-0.0559 0.70579,-0.0279 0.94794,7e-5"
       id="path5943"
       inkscape:connector-curvature="0"
       inkscape:path-effect="#path-effect5945"
       inkscape:original-d="m 299.62865,112.9781 c 0.68335,-0.14121 1.36571,-0.28142 2.04706,-0.42063 0.24362,0.027 0.48706,0.0551 0.72909,0.0841" />
  </g>
</svg>
