<?xml version="1.0" encoding="UTF-8" standalone="no"?>
<svg
   xmlns:dc="http://purl.org/dc/elements/1.1/"
   xmlns:cc="http://creativecommons.org/ns#"
   xmlns:rdf="http://www.w3.org/1999/02/22-rdf-syntax-ns#"
   xmlns:svg="http://www.w3.org/2000/svg"
   xmlns="http://www.w3.org/2000/svg"
   xmlns:sodipodi="http://sodipodi.sourceforge.net/DTD/sodipodi-0.dtd"
   xmlns:inkscape="http://www.inkscape.org/namespaces/inkscape"
   viewBox="0 0 428.38 428.24"
   version="1.1"
   id="svg89"
   sodipodi:docname="gopro.svg"
   inkscape:version="0.92.4 (5da689c313, 2019-01-14)">
  <metadata
     id="metadata93">
    <rdf:RDF>
      <cc:Work
         rdf:about="">
        <dc:format>image/svg+xml</dc:format>
        <dc:type
           rdf:resource="http://purl.org/dc/dcmitype/StillImage" />
      </cc:Work>
    </rdf:RDF>
  </metadata>
  <sodipodi:namedview
     pagecolor="#ffffff"
     bordercolor="#666666"
     borderopacity="1"
     objecttolerance="10"
     gridtolerance="10"
     guidetolerance="10"
     inkscape:pageopacity="0"
     inkscape:pageshadow="2"
     inkscape:window-width="1920"
     inkscape:window-height="1017"
     id="namedview91"
     showgrid="false"
     inkscape:zoom="1.1021857"
     inkscape:cx="305.59121"
     inkscape:cy="186.29664"
     inkscape:window-x="1912"
     inkscape:window-y="-8"
     inkscape:window-maximized="1"
     inkscape:current-layer="svg89" />
  <defs
     id="defs4">
    <style
       id="style2">.cls-1,.cls-2{fill:none;stroke:#231f20;stroke-miterlimit:10;}.cls-2{opacity:0.5;}</style>
  </defs>
  <title
     id="title6">gopro</title>
  <g
     id="outline"
     transform="matrix(0.67600614,0,0,0.64868182,63.498043,80.751252)" />
  <g
     id="lens"
     transform="matrix(0.67600614,0,0,0.64868182,63.498043,80.751252)" />
  <g
     id="lens2"
     transform="matrix(0.67600614,0,0,0.64868182,63.498043,80.751252)" />
  <g
     id="lens3"
     transform="matrix(0.67600614,0,0,0.64868182,63.498043,80.751252)" />
  <g
     id="lens4" />
  <g
     id="lens5" />
  <g
     id="lens6"
     transform="matrix(0.67600614,0,0,0.64868182,63.498043,80.751252)" />
  <g
     id="lens_glass"
     data-name="lens glass"
     transform="matrix(0.67600614,0,0,0.64868182,63.498043,80.751252)" />
  <g
     id="top_button_and_small_screen"
     data-name="top button and small screen"
     transform="matrix(0.67600614,0,0,0.64868182,63.498043,80.751252)">
    <g
       id="lines_gradiant"
       data-name="lines gradiant" />
  </g>
  <g
     id="door"
     transform="matrix(0.67600614,0,0,0.64868182,63.498043,80.751252)" />
  <g
     id="grey_line"
     data-name="grey line"
     transform="matrix(0.99578767,0,0,0.99988382,0.90222589,-0.90393534)">
    <path
       id="path86"
       transform="translate(-95.49,-214.52)"
       style="fill:none;stroke:#231f20;stroke-miterlimit:10"
       d="m 344.74,582.52 c 0,0 2,30.78 -9.86,45.27 M 146,260.66 l 130.52,44 c 0,0 53.24,16.69 65.61,90.58 l 0.61,26.16 m 158.60001,-12.69 h 4.27 v 30.41 h -4.27 z M 494.87,394.84001 h 12.95 c 1.73402,0 3.13,1.39598 3.13,3.13 v 49.76 c 0,1.73402 -1.39598,3.13 -3.13,3.13 h -12.95 c -1.73402,0 -3.13,-1.39598 -3.13,-3.13 v -49.76 c 0,-1.73402 1.39598,-3.13 3.13,-3.13 z M 485.00999,358.88 478.12,505.19001 M 344.53,565.57 l 20.76,-9.6 v 14.64 m -22.6,-126.15 22.6,-10.67 -2.09,-21.39 m -18.46,170.12 -2.05,-161.1 179.46,-78.87 -11.09,143.54 z m -20,-360.55 -29.35,8.54 108.85,27.58 32.54,-9.44 z m -2.39,34.74 a 22.940001,7.4699998 0 0 1 -22.94,7.47 22.940001,7.4699998 0 0 1 -22.94,-7.47 22.940001,7.4699998 0 0 1 22.94,-7.47 22.940001,7.4699998 0 0 1 22.94,7.47 z m 24.8,1.38 a 46.830002,15.85 0 0 1 -46.83,15.85 46.830002,15.85 0 0 1 -46.83,-15.85 46.830002,15.85 0 0 1 46.83,-15.85 46.830002,15.85 0 0 1 46.83,15.85 z m -2.41,324.43 166.32,-96.44 -1.45,18.8 a 56.2,56.2 0 0 1 -17.74,21.59 c -12.67,9.23 -157,101.32 -157,101.32 l 7.81,-19.26 z M 147.05,259.83 280.91,306.21 c 0,0 60.49,25.15 61.51,96.63 l 0.27,18.57 179.46,-78.86 c 0,0 8,-69.9 -41.09,-95.51 L 331.67,215 Z m 17.02,300.28 m 92.37,-214.36 c 0,0 25.07,22.41 28.28,49.09 h -11.21 c 0,0 -9.07,-28.81 -21.87,-37.35 0,0 -3.81,-6.81 4.8,-11.74 z m -148.86,-3.2 14.94,-26.68 111.77,42 a 56,56 0 0 1 32.51,47.62 c 2.62,35.83 8.85,188.92 8.85,188.92 0,0 -0.9,33.45 -24.85,15.81 -23.95,-17.64 -111,-81.53 -111,-81.53 0,0 -10.47,1.06 -15.62,-49 -5.15,-50.06 -16.6,-137.14 -16.6,-137.14 z m 103.04,108.44 a 4.3000002,6.21 0 0 1 -4.3,6.21 4.3000002,6.21 0 0 1 -4.3,-6.21 4.3000002,6.21 0 0 1 4.3,-6.21 4.3000002,6.21 0 0 1 4.3,6.21 z m 11.61507,-5.68346 a 29.129999,18.139999 71.12 0 1 -7.73795,33.43263 29.129999,18.139999 71.12 0 1 -26.59013,-21.69289 29.129999,18.139999 71.12 0 1 7.73795,-33.43263 29.129999,18.139999 71.12 0 1 26.59013,21.69289 z m 8.86232,-3.26304 a 53.279999,28.51 71.12 0 1 -9.73539,59.63892 53.279999,28.51 71.12 0 1 -44.21684,-41.18798 53.279999,28.51 71.12 0 1 9.73539,-59.63892 53.279999,28.51 71.12 0 1 44.21684,41.18798 z M 261.63,531.78 a 47.11,47.11 0 0 1 -0.3,-5.7 c -0.05,-1.69 -0.09,-3.38 -0.11,-5.08 a 6.43,6.43 0 0 1 -1.19,-3.91 c 0,-7.2 0.29,-14.4 0.58,-21.59 -1,-13.55 -4.55,-27.53 -2.78,-41.1 v -49 c -1.71,-5.95 -4.07,-11.7 -7.14,-16 a 38,38 0 0 0 -8.33,-8.46 c -3.75,-1.6 -7.48,-3.23 -11.14,-4.9 -9.58,-4.38 -19,-8.88 -28.89,-12.5 -7.69,-2.7 -15.46,-5.3 -22.61,-8.9 a 75.36,75.36 0 0 0 -8.08,-2.39 6.88,6.88 0 0 1 -2,-0.79 v 0 c 0,0 -40.19,-2.64 -32.59,75 7.6,77.64 59.63,112.04 59.63,112.04 0,0 30.86,29.56 64.84,-2.84 l 0.42,-0.43 c -0.11,-1.15 -0.23,-2.3 -0.31,-3.45 z M 169.64,351.46 133.27,336.15 123.05,351 139.76,495.13 c 0,0 -1.91,16.54 24.31,31.48 26.22,14.94 86.73,60.29 86.73,60.29 0,0 14.43,5.37 12.57,-22.95 -1.86,-28.32 -6.93,-151 -6.93,-151 0,0 0,-27.75 -32,-39 a 522.57,522.57 0 0 1 -54.8,-22.49 z m -62.06,-8.91 14.94,-26.68 117.91,44.29 c 0,0 24,12.69 27.21,52.49 3.21,39.8 8,181.74 8,181.74 0,0 1.42,36.28 -30.77,11.74 -32.19,-24.54 -104.22,-76.84 -104.22,-76.84 0,0 -15.48,-9.07 -16,-39.48 C 124.13,459.4 107.58,342.55 107.58,342.55 Z M 261.52,535.66 M 130.25,334.81 236.3,379.63 c 0,0 19.2,6 20.4,44.42 1.2,38.42 6.81,153.26 6.81,153.26 0,0 4,22.41 -28,0 -32,-22.41 -90.51,-60.82 -90.51,-60.82 0,0 -7.53,-6.4 -9.53,-29.21 -2,-22.81 -15.74,-138.06 -15.74,-138.06 z m -10.54,-55.64 21.61,7.36 -6.32,-11.6 c 0,0 -11.69,-1.27 -15.29,4.24 z m 225.04,285.88 17.87,-8.54 v 15.65 m -17.88,-131.97 17.88,-9.07 V 412.66 M 344.74,582.52 511.06001,486.09001 M 342.69,421.41999 522.15,342.55 M 119.71,279.52 247.1,326.81 c 0,0 49.62,28 52.82,88.84 3.2,60.84 4.8,193.68 4.8,193.68 0,0 -2,19.41 -5.2,26.71 M 133.85,273.76 263.11,319.61 c 0,0 51.62,21.61 53.62,89.23 2,67.62 4.8,196.09 4.8,196.09 0,0 0,22.36 -20.6,31.39 m 32.48,-7.59 c 4,-0.87 8.66,-17.14 8.66,-17.14 0,0 2.8,1.74 2.67,-29.07 -0.13,-30.81 -2.4,-185 -2.4,-185 0,0 -6.27,-72.84 -67.89,-93.78 C 212.83,282.8 145,260.33 145,260.33 m -4.61,1.12 191.28,-46.45 149.39,32 c 53.36,35.22 41.09,95.51 41.09,95.51 l -12.54,162.37 c 0,0 -4.94,14.54 -30.41,30.82 l -145.79,93 -3.88,2.47 a 4.45,4.45 0 0 1 -3.8,1.44 c 0,0 -7.3,7.1 -15.5,5.5 L 299.52,636 c 0,0 -14.5,13.5 -32.41,0.7 C 249.2,623.9 244.2,620 244.2,620 c 0,0 -9,3.9 -14,-11.5 l -66.12,-48.42 c 0,0 -5.91,2 -11.21,-8.31 l -20.21,-18.1 c 0,0 -16.54,-23.08 -18.94,-53 v -6.47 c 0,0 -5.47,-8.2 -1.8,-15.54 l -12.2,-91.9 0.53,-4.34 c 0,0 -8.27,-3.93 -1.73,-16.6 L 98.38,343.68 96,305.87 99,289.33 c 0,0 1.87,-9.81 20.67,-9.81 0,0 4.74,-6.53 10.54,-4.8 5.8,1.73 10.18,-13.27 10.18,-13.27 z"
       inkscape:connector-curvature="0" />
  </g>
</svg>
