<?xml version="1.0" encoding="UTF-8" standalone="no"?>
<!-- Created with Inkscape (http://www.inkscape.org/) -->

<svg
   xmlns:dc="http://purl.org/dc/elements/1.1/"
   xmlns:cc="http://creativecommons.org/ns#"
   xmlns:rdf="http://www.w3.org/1999/02/22-rdf-syntax-ns#"
   xmlns:svg="http://www.w3.org/2000/svg"
   xmlns="http://www.w3.org/2000/svg"
   xmlns:sodipodi="http://sodipodi.sourceforge.net/DTD/sodipodi-0.dtd"
   xmlns:inkscape="http://www.inkscape.org/namespaces/inkscape"
   inkscape:version="0.92.4 (5da689c313, 2019-01-14)"
   version="1.1"
   id="svg2"
   viewBox="0 0 302.55242 576.48362"
   height="162.69649mm"
   width="85.387016mm"
   sodipodi:docname="Link2.svg">
  <sodipodi:namedview
     inkscape:window-maximized="1"
     inkscape:window-y="-8"
     inkscape:window-x="-8"
     inkscape:window-height="1017"
     inkscape:window-width="1920"
     showgrid="false"
     inkscape:current-layer="g3338"
     inkscape:document-units="px"
     inkscape:cy="315.28716"
     inkscape:cx="36.81725"
     inkscape:zoom="1.979899"
     inkscape:pageshadow="2"
     inkscape:pageopacity="0.0"
     borderopacity="1.0"
     bordercolor="#666666"
     pagecolor="#ffffff"
     id="base"
     fit-margin-top="0"
     fit-margin-left="0"
     fit-margin-right="0"
     fit-margin-bottom="0" />
  <defs
     id="defs4">
    <pattern
       inkscape:isstock="true"
       inkscape:stockid="Stripes 1:1"
       id="Strips1_1"
       patternTransform="translate(0,0) scale(10,10)"
       height="1"
       width="2"
       patternUnits="userSpaceOnUse"
       inkscape:collect="always">
      <rect
         id="rect2201"
         height="2"
         width="1"
         y="-0.5"
         x="0"
         style="fill:black;stroke:none" />
    </pattern>
  </defs>
  <metadata
     id="metadata7">
    <rdf:RDF>
      <cc:Work
         rdf:about="">
        <dc:format>image/svg+xml</dc:format>
        <dc:type
           rdf:resource="http://purl.org/dc/dcmitype/StillImage" />
        <dc:title />
      </cc:Work>
    </rdf:RDF>
  </metadata>
  <g
     id="layer1"
     inkscape:groupmode="layer"
     inkscape:label="Layer 1"
     transform="translate(-286.21096,-253.36228)">
    <g
       style="fill:#040302;stroke:none"
       transform="matrix(0.1,0,0,0.1,104.77642,196.9877)"
       id="g3338">
      <path
         id="path3348"
         style="fill:url(#Strips1_1);fill-opacity:1.0;stroke:#000000;stroke-width:1.003125;stroke-miterlimit:4;stroke-dasharray:none;stroke-opacity:1"
         d="m 2470.6667,2819.2679 c -8,-23 12,-38 41,-30 39,10 36,46 -4,46 -19,0 -33,-6 -37,-16 z m 607,108 -25,-20 28,-13 c 33,-15 38,-11 29,25 l -8,28 z m 573,91 c 4,-3 10,-3 14,0 3,4 0,7 -7,7 -7,0 -10,-3 -7,-7 z m -311,164 c -6,-7 -42,-30 -79,-50 -38,-21 -93,-60 -123,-88 l -55,-51 51,36 c 29,20 57,36 64,36 6,0 38,15 70,34 32,19 66,36 76,38 12,2 20,13 22,31 4,29 -9,35 -26,14 z m 88,3114 5.875,-38.375 14.125,-52.625 14.125,-56.875 5.875,-50.125 -2.1094,-22.5332 -5.7656,-26.4824 -19.125,-56.6094 -23.625,-47.7969 -11.3906,-15.4668 -9.9844,-7.1113 -11.8281,-11.8281 -19.0469,-28.7969 -51.125,-95.375 -38.375,-74.8594 -23.375,-38.7656 -8.7578,-9.4512 -8.2422,-4.7519 -19.25,-1.1719 -19.0312,-0.031 -14.7188,-9.2187 -16.5937,-25.3438 -24.6563,-48.4065 -49.875,-83.625 -58.125,-81.375 -98,-121 -32,-41 -70,5 -53.875,8 -32.125,11 -17.3281,10.7344 -18.5469,2.3906 -19.1094,-5.6719 -19.0156,-13.4531 -33.7656,-25.2188 -39.8594,-21.2812 -34.7969,-12.2813 -12.0136,-1.1835 -6.5645,2.9648 -5.0469,4.8437 -6.8281,0.9063 -23.125,-10.75 -16.1875,-8.7188 -13.5625,-1.7812 -16.9375,5.7187 -26.3125,13.7813 -53,33 0.5156,6.8125 8.1094,13.1875 33.375,38 27.7969,29.0781 15.3281,21.2969 6.5156,20.3594 1.3594,26.2656 3.25,38.625 7.75,27.375 8.75,34.375 7.25,54.625 2.2969,36.3281 -1.1719,25.5469 -5.4844,20.1094 -10.6406,20.0156 -16.5,35 -10.5,38 -10.625,34.125 -14.375,25.875 -14.75,21.875 -10.25,24.125 -5.5469,14.7187 -14.0781,8.5313 -32.2656,5.1562 -60.1094,4.5938 -136.7812,5.1562 -94.2188,-2.9062 -32.0273,-4.6523 -22.4414,-6.879 -13.2071,-9.1757 -4.3242,-11.543 7.25,-20.125 17.75,-29.875 18.8438,-32.7188 14.1562,-35.5312 8.9063,-36.6563 3.0937,-36.0937 -3.5605,-17.2109 -10.1114,-21.6641 -36.4531,-52.375 -52.3906,-57.25 -61.4844,-53.5 -27.5,-22.7031 -19.25,-20.1719 -12.875,-19.9844 -8.375,-22.1406 -9.75,-51.8594 -2.25,-54.7656 5.25,-50.4531 5.4375,-21.3535 7.3125,-17.5684 30,-57 32,-44.875 62,-77.125 57.875,-75.5 17.6406,-26.0313 6.4844,-13.4687 4.9688,-21.5625 16.0312,-27.1875 28.7813,-35.0625 43.2187,-45.1875 31.9063,-32.7188 20.0937,-24.2812 9.5938,-17.5313 0.4062,-12.4687 -1,-14.75 5,-10.25 8.293,-9.0332 10.6133,-17.1074 23.5937,-47.9844 19.0938,-48.9219 4.9882,-18.2793 0.418,-10.6738 1.3438,-14.4687 10.1562,-17.2813 14.6563,-14.6562 14.8437,-6.5938 18,-12 33,-27 22.5938,-22.125 12.6562,-17.625 5.5313,-18.75 1.2187,-25.5 -3.125,-34.25 -6.875,-17.75 -8.4844,-9.4687 0.6621,-5.8243 4.4473,-7.207 21.7969,-20.5312 41.5781,-31.9688 49.625,-39.375 20.375,-20.625 11.3125,-18.8281 33.4375,-42.5469 130.25,-153.625 49,-57 -44,-39 -39.75,-32.375 -32.25,-22.625 -20,-13.875 -8,-13.125 -5.9453,-10.4492 -16.4922,-19.5195 -56.5625,-58.2813 -74.5625,-70.6562 -76.4375,-67.0938 -26.4531,-23.875 -14.9219,-17.125 -5.7344,-14.125 1.1094,-14.875 10.3125,-47.4219 3.9375,-31.2031 -2.4375,-17.1406 -3.6094,-3.9707 -5.2031,-1.2637 -15.125,7.125 -15.875,16.875 -60,79 -24.375,31.0938 -11.625,19.6562 -1.125,14.7813 7.125,16.4687 10.8438,27.0938 2.4062,25.4062 -6.2187,25.4063 -15.0313,27.0937 -30.8594,34.1875 -41.2656,32.3125 -42.2031,24.0625 -18.4942,6.9453 -15.1777,2.4922 -30.3906,-4.4375 -32.7344,-10.8125 -26.1719,-13.4375 -7.8418,-6.5312 -2.8613,-5.7813 -7.75,-16.875 -18.25,-25.125 -13.7031,-18.625 -7.4219,-17.875 -2.3594,-23.125 1.4844,-34.375 7.0938,-47.1719 6.6523,-18.6582 9.2539,-16.0449 12.2539,-13.9355 15.6524,-12.3301 43.0937,-21.8594 22.1094,-10.25 15.2656,-11 10.5781,-13.625 8.0469,-18.125 15.5,-36.375 21.5,-38.625 13.2188,-24.2344 7.7812,-25.6406 4.0313,-35.2031 1.9687,-52.9219 4.25,-78.875 4.75,-22.5156 7,-13.6094 16.125,-25.625 16.875,-38.375 16.625,-37 14.375,-22 8,-15.875 -1,-24.125 -1.2031,-15.6406 2.8281,-14.9844 7.5156,-15.9219 12.8594,-18.4531 27,-36 -30,-41 -21.8281,-33.5469 -13.2969,-33.0781 -9.7344,-50.5156 -11.1406,-85.8594 -8.5,-80.8281 -1,-49.7969 2.5469,-15.752 4.7031,-10.9824 6.9531,-7.209 9.2969,-4.4316 34.1094,-1.1875 52.7656,6.6875 55.5781,11.9375 42.5469,14.5625 24.4063,14.0469 6.3554,6.7129 2.4883,6.8652 -1.3555,7.2871 -5.1757,7.9785 -21.7188,19.1094 -30,22 41,60 31.5,41.625 12.0938,11.9531 7.4062,3.4219 14.5,-21.625 20.5,-46.375 11.125,-33.0312 6.625,-28.7188 2.5,-26.8437 -1.25,-27.4063 -1.7969,-34.2656 3.1719,-21.6094 9.7344,-13.1719 17.8906,-8.9531 7.2813,-5.2656 -5.2813,-8.3594 -58,-35.375 -61.375,-36.25 -42.625,-28.75 -44,-27.125 -65,-33.875 -68.375,-35.875 -49.625,-32.125 -27.6914,-17.5762 -37.2773,-16.9082 -43.418,-15.3847 -46.1133,-13.0059 -45.3633,-9.7715 -41.1679,-5.6816 -33.5274,-0.7364 -22.4414,5.0645 -11.2969,5.2969 -6.3281,0.3281 -2.7656,-5.4844 -0.6094,-12.1406 1.127,-13.0059 4.7011,-12.291 10.2559,-13.1113 17.791,-15.4668 66.1094,-44.1406 120.0156,-71.9844 67.75,-36.25 57.25,-25.75 61,-26 52.875,-18.25 112.125,-31.75 154,-42 227,-5 228,-4 63,-87 94.5,-135 97.5,-156 55.625,-86.5 107.375,-152.5 45,-63.00004 11,-12.75 11,-5.25 21.125,-19.5 36.875,-46.5 39.25,-47.875 25.75,-23.125 18.125,-9.25 18.875,-13.75 58.0625,-43.01563 86.9375,-57.35937 88.4375,-54.17188 62.5625,-33.45312 50.2813,-18.34375 16.1289,-1.80078 11.0898,3.89453 6.7773,10.17578 3.1915,17.04297 -1.4688,57.03125 -12.4219,74.39062 -22.4531,85.73438 -26.0156,75.42187 -12.3223,27.07618 -10.7871,16.37695 -19.875,28.75 -28.125,51.25004 -40.375,70.75 -51.625,75.25 -79.375,113.625 -132.625,210.375 -53,84 116,-7 97.875,-2.375 26.8594,3.3594 19.2656,7.0156 25.625,8.375 10.5156,-0.6406 9.8594,-3.7344 23.8086,-3.3066 50.5977,-1.7715 146.5937,0.4531 148.8438,4.7656 53.4101,3.6192 27.7461,4.2402 38,30.9375 65,64.3125 70.25,75.1875 53.75,63.5625 102,145 102,141 26,38.625 17,36.375 5.7344,15.7813 1.666,2.4648 0.9746,-1.4961 -1.375,-50.75 -0.125,-47.375 1.9531,-14.3594 3.1719,-5.2656 11.125,9.75 14.875,23.25 9.5625,26.6563 5.4375,51.5937 3,268.75 -3.25,267 -5.1875,63.75 -8.5625,41.25 -18.2187,46.3281 -25.5313,43.0469 -29.6562,35.3594 -30.5938,23.2656 -28,23.125 -34,35.875 -61.0625,67.8906 -68.9375,64.9844 -65.1875,52.0469 -27.5547,18.0371 -22.2578,11.041 -10.875,7.75 -1.125,9.25 5.8359,4.2656 10.4766,3.0469 28.6875,2.4375 28.6875,-2.4375 10.4766,-3.0469 5.8359,-4.2656 11.6719,-9.0156 14.9531,-0.8594 12.8906,6.0781 4.002,5.2598 1.4824,6.5371 -7.4687,22.4063 -18.5313,31.5937 -23.7812,32.3438 -23.2188,24.6562 -11.875,11.625 -5.125,9.375 42.5,26.625 102.5,54.375 102.5,55.875 31.0938,20.2031 11.4062,10.9219 6.8594,16.4688 16.5156,16.2812 20.0781,11.4063 17.5469,1.8437 8.8906,0.5 8.9844,6.5 20.125,34 14.6562,32.8438 5.0938,19.9062 -4.2813,12.7813 -13.4687,11.4687 -9.6406,12.25 -9.7344,22.75 -21.625,83 -19.375,81.5 -15.625,48.5 -35,95 -19.875,56.875 -16.125,38.125 -39.875,93 -17.0781,47.625 -7.0469,27.375 -3.875,15.875 -9.125,15.125 -22.125,45.25 -34.875,85.75 -66,169 -16.875,42.625 -7.125,28.375 -3.334,10.791 -9.0879,12.9121 -29.9531,27.9219 -36.5156,23.6094 -17.291,7.5215 -14.8184,3.2441 -28,7.25 -28,14.75 -34.3906,21.1875 -48.1719,25.6875 -122.6875,58.125 -132.8125,55.875 -112.9375,40.125 -73,22 -28,-28 -22.375,-25.875 -15.625,-22.125 -11.1758,-31.9941 -12.0429,-53.334 -23.7813,-148.7969 -18.5312,-168.4844 -5.4805,-77.9433 -1.9883,-66.4473 -2,-48.25 -5,-19.75 -11.6641,5.9336 -21.0859,16.0352 -59,51.7812 -62.375,60.4063 -42.875,47.8437 -43,50 -13,16.875 -19,37.125 -16.125,45 -1.4531,16.3125 2.5781,13.6875 6.375,40.375 2.625,63.625 1.2344,45.6875 5.6406,35.5625 12.9531,37.4375 23.1719,51.3125 31.5,73.125 6.75,24.6094 0.75,16.2656 -0.4375,16.498 4.0625,19.8614 17.875,43.0156 24.625,36.0781 12.5,11.1895 11.375,4.3574 13.6563,2.375 9.3437,9.875 7.0938,21.5 6.9062,37.25 8.6563,26.1719 19.3437,27.2031 33.5938,32.2656 51.4062,41.3594 32.25,22.75 18.75,9.25 14.4219,6.9219 16.2031,20.7031 17.8906,34.3906 19.4844,47.9844 22.625,58.75 17.375,36.25 12.5,30.375 12.5,44.625 6.8125,25.9844 8.6875,21.3906 10.9375,17.4531 13.5625,14.1719 14.2344,14.2344 8.8906,14.1406 4.5781,16.2031 1.2969,20.4219 3.375,52.875 8.625,73.125 11,88 -32,50 -26.75,39.25 -19.25,22.75 -8.125,12.25 0.125,13.75 0.094,6.8281 -6.8438,4.2969 -41.25,2.875 -60.375,5.875 -68.6252,14.125 -74.25,14.125 -72.75,5.875 h -73 v -29 0 m 225,-61 46.125,-14.125 28.875,-5.875 16.125,-4.5 13.875,-10.5 5,-8.5469 -2.5,-7.3281 -11.5,-7.8906 -22,-10.2344 -46,-16 -49,-10 -51,-7 -15,61 -16,61 h 23 l 32.5,-5.875 47.5,-14.125 v 0 m 168,-122 9.3789,-16.5801 6.4024,-20.0605 3.4492,-22.8965 0.5195,-25.0879 -7.6562,-54.1719 -19.0938,-55.2031 -18.25,-44 -7.75,-26 -3.25,-10 -7.75,-4 -12.75,-13.625 -17.25,-32.375 -16.5,-30.625 -10.5,-10.375 -60,27 -39.25,22.25 -7.4375,8.9687 -0.3125,8.7813 32,94 25,78 -27,22 -27,21 49,14 48,13 -35,13 -35,13 50,21 70,31 17.2188,5.8437 13.2812,-1.0937 12.5313,-8.9688 14.9687,-17.7812 v 0 m -1486,-328 h 41 l 30,-127 21.75,-112.75 4.6875,-44.4688 0.5625,-36.7812 -1.9687,-37.375 -4.7813,-23.875 -10.4062,-17.5 -18.8438,-18.25 -41,-33 -15.5,9.625 -27.5,28.375 -36,42 31,67 20.625,56 4.4063,22.8906 0.4687,19.6094 -3.4687,16.4219 -7.4063,13.3281 -11.3437,10.3281 -15.2813,7.4219 -30,11 53,26 35.0625,20.5469 21.1875,17.8281 3.9844,6.3418 -1.1719,3.7988 -6.8906,0.6348 -13.1719,-3.1504 -11.2031,-2.875 -5.6719,0.875 -0.9844,5.375 2.8594,10.625 3.1406,18.7344 -3.5156,11.8906 -9.3281,3.8281 -14.2969,-5.4531 -9.9687,-4.25 -9.7813,-0.5 -10.9062,3.625 -13.3438,8.125 -18.9062,14.9687 -7.0938,11.7813 0.9414,3.9336 3.9649,2.2226 17.0937,-1.9062 27.875,-4.125 36.125,-1.875 v 0 m 1207,-15 59.3281,-12.9531 51.5469,-16.4219 38.6094,-17.7344 20.5156,-16.8906 -5,-29.375 -20,-58.625 -18.9219,-46.1563 -16.2031,-26.8437 -22.3906,-17.8438 -37.4844,-19.1562 -48.125,-20.25 -11.9219,-1.6875 -3.9531,3.9375 -3.8125,10.6719 -9.4375,7.2031 -12.0625,2.5156 -11.6875,-3.3906 -15.625,-29.875 -22.375,-62.125 -28.7812,-72.2656 -40.9688,-85.8594 -39.0937,-71.7969 -14.4493,-21.9824 -8.707,-8.0957 -54,25 -28.3125,11.5312 -33.9375,9.4688 -93.75,15 -111,14 6.6875,17.375 21.3125,32.375 24.3125,31.25 15.6875,14 7.9219,8.4375 14.9531,23.0625 43.125,76.5 48.7031,89.7187 31.9219,48.2813 13.7988,13.3477 14.5606,8.6835 38.0156,10.9688 49.3281,13.6719 16.959,7.791 12.5879,9.1621 8.791,11.084 5.5684,13.5566 3.7656,36.7344 -2.75,34.625 -3.1562,10.5156 -4.0938,3.8594 -7.5469,4.3125 -1.8281,9.9375 3.6094,11.0625 8.7656,7.6875 24.3281,5.0781 37.5469,0.2969 49.3594,-4.3906 59.7656,-8.9844 v 0 m -1391,-330 36,-8.625 11.8125,-5.8594 6.1875,-6.5156 7,-10 10,-4 22,-14.25 37,-33.75 34.75,-41.125 6.5938,-13.8594 -0.3438,-10.0156 -7.0156,-12.5313 -10.8594,-2.9687 -17.4219,6.7812 -26.7031,16.7188 -24.4531,14.9219 -19.6719,8.4531 -13.1094,1.5156 -3.5371,-1.9902 -1.2285,-3.9004 7.4375,-12.5156 22.8125,-26.1094 94.75,-96.375 60,-59 -65,-59 -134,-118.25 -33.3437,-25.1875 -16.6563,-7.5625 -8.6133,3.8516 -13.0429,10.6484 -34.5938,36.25 -37.9687,47.125 -31.7813,47.125 -26.75,39.375 -31.25,38.625 -31.625,40.25 -29.375,41.75 -28,44 31,65 16.4375,32.125 14.5625,21.625 14.5625,13.75 16.4375,8.5 28,13.625 22,17.375 12,11.3125 18.75,4.1875 40.125,-2.5625 76.125,-8.9375 v 0 m 797,-275 137.25,-15.375 102.75,-20.625 65.25,-16.875 36.75,-7.125 19.625,-3.125 23.375,-6.875 26,-10 -19,-28 -17.5,-31.5 -14.5,-37.5 -7.8906,-22.5 -7.2344,-12 -8.9219,-3.75 -12.9531,2.25 -25,6 6,-69 12,-115 5,-46 -117,-7 -84.125,-7.2656 -78.875,-10.3594 -78.875,-14.2969 -84.125,-19.0781 -37.6875,-8.7188 -31.3125,-1.7812 -39.5625,5.7187 -62.4375,13.7813 -118,26 -9.4297,-3.832 -13.8828,-10.5118 -35.6875,-35.1562 -37.1875,-44.1563 -27.8125,-41.3437 -12.2656,-25.4844 -7.1094,-20.8906 -2.4219,-18.4531 1.7969,-18.1719 2,-27 -4.25,-3.6562 -8.75,0.6562 -8.4062,3.6875 -7.0938,7.8125 -9.5,26.5 -14.875,42.875 -26.125,54.125 -24.375,53.75 -0.2344,12.0625 6.6094,7.1875 6.875,6.0937 0.875,5.9063 -17.75,18 -108.875,91 -36.9531,33.3125 -14.1719,15.6875 6.625,7.75 16.375,9.25 33.2813,22.2344 53.7187,40.8906 58.9688,47.8281 49.0312,43.0469 42.875,29.875 57.125,29.125 166,77 54.3594,26.5312 35.5156,13.9688 25.5781,4.2187 24.5469,-2.7187 74.75,-8.75 121.25,-10.25 v 0 m 950,-231 62.8906,-22.7969 62.9844,-30.5781 74.7969,-44.6406 98.3281,-64.9844 94.125,-68.625 26.1094,-23.2031 8.7656,-13.1719 18.25,-59.75 43.75,-121.25 92,-245 43,-110 42.3594,-105.9531 51.2656,-143.9219 43.2031,-132.4844 13.2754,-46.5136 4.8965,-25.127 -3.25,-7.75 -7.75,-3.25 -21.125,-10.375 -33.875,-24.625 -64.125,-44.3437 -87.375,-51.6563 -81.375,-42.6562 -29.2969,-12.8555 -16.8281,-4.4883 -87,9 -8.5312,5.7031 3.2812,8.4219 13.4063,9.3594 21.8437,8.5156 31.875,13.875 25.125,16.125 47.5,29.75 86.5,46.25 82.5469,44.2813 25.2597,17.4179 16.3184,16.5508 8.6777,17.3945 2.3379,19.9493 -2.7011,24.2148 -6.4395,30.1914 -29.8594,108.4531 -47.0156,150.1719 -45.3281,133.8594 -16.1426,42.6777 -8.6543,16.8379 -5.5,8.125 -2.5,14.875 -13.625,42.375 -32.375,74.625 -74,157 -26.25,47.75 -13.4062,17.7812 -11.3438,10.4688 -87.8437,45.6562 -128.1563,57.8438 -122.9062,50.3437 -45.2461,16.2071 -26.8477,6.9492 -25.7031,1.5781 -15.6719,-2.4531 -10.2344,-8.2656 -9.3906,-15.8594 -10.0703,-25.5664 -11.0547,-38.5274 -22.625,-102.9062 -19.25,-115.6562 -11,-102.3438 -6,-109 -25,24 -25,25 17,144 26,227 14.75,86.75 22.25,91.25 27,95 31,-6 95,-27 v 0 m 423,-187 77,-57 26.1563,-51.1875 40.5937,-101.0625 49.9688,-137.4375 54.2812,-160.3125 97,-295 64,-178 15.6719,-52.9844 2.0644,-22.3379 -1.8613,-20.0527 -5.8457,-18.1309 -9.8887,-16.5722 -13.9902,-15.377 -18.1504,-14.5449 -133.375,-77.25 -75.7344,-40.0312 -44.8906,-20.7188 -23.375,-10.875 -25.625,-16.125 -24.875,-12.25 -8.4531,0.1563 -6.6719,4.0937 -2.125,6.3281 6.125,7.5469 40,22.125 57.2344,29.9531 71.3906,42.4219 177.375,116.625 -23,91 -39.875,133.375 -60.125,156.625 -109,309 -66.375,190.625 -26.4375,66.4375 -24.1875,51.4375 -23.625,39.625 -24.75,31 -27.5625,25.5625 -32.0625,23.3125 -27.625,20.875 -0.6406,3.4531 8.2656,-1.3281 37.875,-18.625 55.125,-34.375 v 0 m -445,-70 51,-172 30.875,-89.25 33.125,-81.75 26.7969,-63.8437 24.8281,-67.4063 18.2656,-58.0312 7.1094,-35.7188 -3.5156,-7.3125 -9.6094,-9.1875 -31.875,-19.5 -45,-22 -29,29 -26.4844,39.9531 -31.6406,66.6719 -32.5781,83.3594 -29.2969,90.0156 -19.5781,76.4844 -11.0469,65.8906 -2.9844,59.7031 4.6094,57.9219 9.1719,48.9375 12.4531,43.3125 13.3906,30.9375 6.3145,8.7187 5.6699,3.0938 10.75,-22.875 18.25,-55.125 v 0 m 77,38 32,-21 23,-9 12.9395,-1.9395 12.2011,-6.4511 12.0371,-11.9121 12.4473,-18.3223 28.4219,-59.6719 36.9531,-96.7031 49,-131.875 37,-92.125 20.5,-48.625 8.5,-28.375 -4.6406,-6.9121 -12.4219,-10.1348 -39.1875,-24.8281 -43.3125,-22.3906 -29.4375,-9.7344 -6.3125,8.4375 -10.4375,23.0625 -27.25,76.5 -36.375,102.25 -38.625,94.75 -36.125,93.125 -30.875,96.875 -32,118 -1.3965,8.3008 1.6621,5.4179 4.4981,2.5586 7.1113,-0.2773 21.1719,-8.9688 28.9531,-20.0312 v 0 m -691,-62 8.4688,-25.2188 0.6367,-8.4257 -2.1055,-6.1055 -13.4687,-6.6563 -27.5313,-1.5937 -35.375,-3.25 -31.625,-7.75 -34.125,-7.375 -43.875,-3.625 -43.5,-4.875 -34.5,-10.125 -36.875,-12.625 -48.125,-10.375 -46.375,-12.375 -14.7969,-8.0156 -9.8281,-9.6094 -12.4375,-14.8281 -9.8125,-4.0469 -6.4375,6.6406 -2.3125,17.2344 -4.625,27.75 -11.375,29.25 -9.3125,23.8125 1.9297,8.1094 7.8828,6.3281 38.3125,9.5625 76.1875,9.1875 81.125,12.625 29.5469,6.9219 16.3281,6.4531 19.0469,8.375 30.5781,6.125 116.375,8.5 20.6406,0.2344 13.2344,-3.6094 9.2969,-9.4219 8.8281,-17.2031 v 0 m 989,-110 18.125,-13 3.9531,-6.6875 -0.078,-6.3125 11.625,-41.625 33.375,-81.375 35.5,-81.625 14.5,-40.375 -11.9375,-17.5781 -26.5625,-24.0469 -29.5625,-21.2344 -20.9375,-9.1406 -6.9062,4.7344 -9.3438,12.8906 -20.75,42.375 -76.875,198.375 -28.7344,82.4531 -14.3906,49.1719 -7,37 54,-36 46.25,-29.25 35.75,-18.75 v 0 m -1616,64 13.7539,-9.6523 18.8399,-20.129 44.4062,-59.2187 39.1563,-63.7187 12.2773,-25.754 4.5664,-17.5273 -4.5156,-18.9687 -14.3594,-18.7813 -25.4219,-19.9062 -37.7031,-22.3438 -36,-20 -57,44 -39.8594,31.9688 -21.0156,23.5312 -5.0527,11.2383 -2.2754,12.293 1.2031,31.9687 4,42 56,-6 40.9844,-6.0781 12.9629,-4.1699 8.4277,-5.377 4.2559,-6.9238 0.4472,-8.8106 -9.0781,-24.6406 -15.25,-21.75 -15.25,-8.25 -7.3906,0.9375 -7.1094,4.3125 -13,18.75 -9.9844,15.5313 -10.6406,5.9687 -9.3281,-3.7812 -6.0469,-13.7188 0.7949,-13.9492 6.6895,-12.8945 11.166,-11.1602 14.2246,-8.7461 15.8652,-5.6523 16.0879,-1.8789 14.8926,2.5742 12.2793,7.707 15.1406,23.4375 10.7344,29.8125 3.7969,27.1875 -1.4942,9.7969 -4.1777,5.7656 -34,13.6875 -48.25,11.8125 -44.875,6.5625 -15.6641,0.2578 -8.2109,-2.3203 -8.625,-23.625 -6.375,-42.375 -0.9219,-38.9531 2.5215,-14.6778 5.2754,-12.7441 21.1094,-23.4844 39.0156,-27.1406 28.625,-20.625 2.1719,-5.1094 -5.7969,-1.2656 -23.6094,3.3906 -21.2656,10.9844 -23.3281,22.0469 -29.7969,36.5781 -33.2344,48.7969 -8.4082,19.9863 -2.9824,18.5918 2.4082,18.3574 7.7637,19.2832 31.4531,45.9844 23.6406,29.0937 17.7344,16.1563 17.5469,6.7812 23.0781,0.9688 34.75,-1.875 27.25,-4.125 v 0 m 769,-128 2.9219,-7.75 10.7031,-13 38.375,-34.25 89.209,-72.9219 92.7129,-79.9531 181.4531,-167.125 81.498,-80.2344 70.5176,-73.3906 55.916,-63.0781 37.6934,-49.2969 56,-83 -6,-158 -6.9062,-122.2031 -10.8438,-82.9219 -7.1914,-28.0488 -8.5273,-19.8106 -9.9805,-12.0996 -11.5508,-4.916 -20.875,1.125 -17.125,7.875 -7.6562,6.9688 -1.8438,5.2812 4.1563,4.9063 10.3437,5.8437 3.2188,2.7695 -1.8438,2.3243 -20.375,3.4062 -118,2.5 -127.75,3 -87.25,6 -37.1406,7.5938 -28.2344,11.1562 -16.0469,13.0313 -2.4277,6.6914 1.8496,6.5273 -1.6719,4.4063 -7.2031,5.3437 -26.125,11.25 -22.7129,8.4219 -13.1152,7.3906 -3.1074,6.5469 7.3105,5.8906 47.5156,10.5625 94.1094,10.1875 54.4375,5.375 33.0625,6.875 23.3125,12.5 25.1875,22.25 31.7383,32.8164 30.168,36.0274 52.3437,76.1562 20.5352,37.3633 15.6836,35.043 10.0117,31.3398 3.5195,26.2539 -1.5625,19.0313 -5.6875,15.4687 -11.3125,14.7188 -18.4375,16.7812 -23.627,16.3926 -27.5761,12.748 -36.3184,9.584 -49.8535,6.9004 -159.4844,7.6719 -271.1406,2.7031 -340,2 -97,-47 -71.125,-30.5 -19.8594,-5.5 -7.0156,2 -11.875,19.875 -29.125,31.125 -58.5,62.875 -82.5,95.125 -73.625,82.5 -25.5156,25.2188 -12.8594,9.2812 -9.3613,1.7832 -9.0918,4.9824 -15.9219,17.3594 -10.4844,23.5469 -2.1406,25.3281 3.0313,22.9688 3.9687,11.5312 6.2188,1.7813 9.7812,-6.2813 29.875,-9.75 53.125,-8.25 70,-6 83,61 44.5313,33.125 24.4687,21.875 9.4688,15.875 -0.4688,15.125 -1.625,14.5625 7.375,11.9375 21.25,13.4375 40,19.0625 77.3281,31.8125 79.2969,23.9375 83.9844,16.8125 91.3906,10.4375 110,8 38,-35 25.125,-28.375 6.7969,-11.1406 1.0781,-7.4844 v 0 m 393,-104 47,-133 24.25,-63.625 7.75,-28.375 -17.875,10.875 -38.125,31.125 -52,45 v 101 l 1.5781,60.4844 5.0469,25.8906 3.9707,0.1777 5.0137,-8.2246 13.3906,-41.3281 v 0 m 612,-206 7,-29 -48,-25 -39.75,-21.375 -32.25,-20.625 -15.6719,-9.8125 -13.7031,-4.1875 -15.7656,1.0625 -21.8594,5.9375 -21.5469,5.4063 -15.8281,1.0937 -13.3906,-3.4062 -14.2344,-8.0938 -23,-11.25 -20,-3.75 -2.1035,0.7715 1.0254,2.2129 10.4531,8.1406 47.625,26.875 140,74 48.125,26 24.875,11 8.25,-7.75 9.75,-18.25 v 0 m 48,-114 4.5938,-16.1562 -0.094,-11.0938 -5.3437,-8.4687 -11.1561,-8.2813 -29.8906,-16.6719 -20.9844,-4.9531 -8.002,1.9473 -6.7949,4.9121 -11.3281,18.7656 -7.875,22.625 -1.125,11.375 18.4063,13.1563 25.3437,14.0937 23.4688,10.7188 12.7812,3.0312 8.25,-12.625 9.75,-22.375 v 0 m -178,-78 74,-38 -3,-69 -5.8281,-63.875 -10.7969,-43.625 -7.6426,-15.1562 -9.3418,-11.2188 -11.1933,-7.6562 -13.1973,-4.4688 -32.875,-12.125 -35.125,-21.875 -26.625,-18.375 -12.375,-5.625 -10.6406,24.0313 -11.4844,36.2187 -19.875,91.75 -7.375,39.2188 -8.125,28.5312 -10.375,21.4063 -14.125,17.8437 -17.25,22.75 -3.8437,9.3125 0.094,5.9375 17.125,8.75 32.875,7.25 34.75,9.375 21.25,11.625 15,15 76,-38 v 0 m 207,-33 -0.2812,-12.3281 -4.2188,-10.5469 -8.7187,-9.6094 -13.7816,-9.5156 -22.4375,-12.2344 -12.3125,-3.1406 -5.1875,6.7969 -1.0625,17.5781 5.9219,21.1875 14.4531,20.8125 18.0156,14.8125 8.791,3.3984 7.8184,-0.2109 8,-8.625 5,-18.375 v 0 m -793,-79 39.5,-3.25 51.5,-7.75 53.25,-5.875 17.0625,1.7969 13.6875,5.0781 20.4121,6.9551 7.3108,-0.761 5.449,-3.241 5.5176,-12.8847 -1.3145,-19.6934 -7.7363,-24.4277 -13.7481,-27.0879 -19.3496,-27.6739 -24.541,-26.1855 -46.375,-48.125 -45.625,-54.875 -45,-60 -90,-20 -65.5,-12 -32.5,-3 -47.375,4 -103.625,4 -110.875,5.75 -34.9531,4.6563 -18.1719,5.5937 -11.4531,5.4063 -13.4219,1.0937 -42.125,-11.5 -48.25,-11.375 -46.75,-4.625 -37.8594,-4.1719 -18.6894,-6.5332 -20.5762,-10.6699 -52.9531,-37.2656 -78.9219,-64.3594 -70.5312,-61.5156 -60.2188,-57.1094 -47.8437,-50.5469 -33.4063,-41.8281 -18.25,-25.375 -10.75,-9.625 -74,57 -36.5781,31.3438 -22.7969,24.4062 -13.6094,23.2813 -9.0156,27.9687 -14,75 5.1055,18.875 14.1758,26 48.7187,65.125 64.4688,68.875 33.8632,30.6875 32.668,25.4375 49.75,40.625 15.2188,16.0469 6.0312,10.3281 6.8281,10.5313 20.7969,15.2187 85.375,45.25 108.2188,49.8906 44.8164,16.0449 45.2148,11.4395 50.5586,7.8301 60.8477,5.2168 172.3437,6.5781 195.75,4.25 119.25,-0.25 95,-4 v 0 m 830,-27 6.125,-34.25 3.875,-41.75 0.2188,-25.4687 -2.9688,-17.0313 -7.0937,-11.7812 -12.1563,-9.7188 -17.625,-10.125 -9.375,-1.875 -30.625,65.375 -25.375,64.625 10.6875,10.8906 24.5625,16.2344 27.1875,14.9219 18.5625,6.9531 7,-7.875 7,-19.125 v 0 m -71,-175 -23.75,-16.25 -49.25,-26.75 -55.75,-23.75 -15.125,-2.125 -9.125,3.875 -9.5937,15.1563 1.8437,16.8437 14.2188,20.5938 27.5312,26.4062 31.875,30.75 13.125,17.25 11,37 11,28 29,-59 18.25,-44.5 4.75,-23.5 v 0 m -2453,-44 -11.6875,-18.0098 -6.625,-17.8808 -1.6562,-17.5293 3.2187,-16.9551 8,-16.1582 12.6875,-15.1387 17.2813,-13.8965 21.7812,-12.4316 34.8281,-10.8906 15.9199,-0.6934 14.877,2.459 13.7988,5.5996 12.6856,8.7285 21.8906,26.7969 18.5,27.75 2.875,-3 0.625,-12.75 -4.6875,-27.0469 -14.0625,-22.8281 -23.4375,-18.8906 -32.8125,-15.2344 -34.2656,-8.4062 -28.3594,1.1562 -27.7969,12.0313 -32.5781,24.2187 -13.875,13.9609 -10.125,15.4141 -6.375,16.5391 -2.625,17.3359 1.125,17.8047 4.875,17.9453 8.625,17.7578 12.375,17.2422 21.0625,22.0156 13.9375,8.6094 3.0078,-0.9277 -0.3203,-4.5254 -12.6875,-20.1719 v 0 m 2279,-40 -14.1875,-13.5781 -31.8125,-18.5469 -33.3125,-14.9844 -12.1797,-3.4902 -6.5078,0.5996 -1.6328,5.7891 1.5078,9.2109 10.375,24.75 16.75,26.625 19,20.625 26,20 13,-23 13,-34 v 0 m -2146,24 9.6699,-17.418 4.502,-17.3007 -0.3028,-16.504 -4.7441,-15.0273 -8.8223,-12.8711 -12.5371,-10.0351 -15.8886,-6.5196 -18.877,-2.3242 -21.25,2.7813 -17.6875,7.6562 -13.6562,11.5 -9.1563,14.3125 -4.1875,16.0938 1.25,16.8437 7.1563,16.5625 13.5312,15.25 24.625,13.875 25.375,4.125 23.125,-5.625 9.7813,-6.4687 8.0937,-8.9063 v 0 m 1257,-129 26.2656,-12.0312 25.6094,-16.7188 19.4219,-17.0937 7.7031,-13.1563 -17.4062,-8.9375 -39.3438,-11.5625 -41.9687,-9.3125 -25.2813,-2.1875 -9.375,-1.375 -11.625,-6.625 -10.1875,-5.8125 -8.3125,4.3125 -9.0625,17.8125 -12.4375,34.6875 -8.625,31.375 -0.375,18.625 5.2695,4.1797 9.8868,2.8203 29.5937,1.75 35.9688,-3.125 34.2812,-7.625 v 0 m -151,-24 4.625,-29.125 11.375,-35.875 10.5,-35.5 -1.5,-10.9062 -6,-9.5938 -19.8906,-19.5312 -19.9844,-7.7188 -23.5469,3.9063 -30.5781,15.3437 -29.2031,20.3438 -8.7481,10.2773 -5.1738,11.3789 -1.8457,13.2539 1.2363,15.9024 10.7344,42.8437 8.3906,22.7031 9.2344,11.9219 15.4219,4.6094 26.9531,0.7656 26.0625,-0.6719 14.4375,-3.2031 6.1875,-7.5156 1.3125,-13.6094 v 0 m -1050,-49 -9.125,-11.5 -21.875,-11.5 -16.8125,-5.8437 -10.4375,-0.4063 -7.0625,5.9688 -6.6875,13.2812 -5.2344,12.8281 -0.6406,9.5469 4.0469,7.8594 8.8281,7.7656 10.6406,6.7344 9.2344,2.1406 9.7969,-2.5469 12.3281,-7.3281 16.375,-14.625 6.625,-12.375 v 0 m 866,7 2.2344,-18.75 -0.8594,-16.5 -4.0469,-15.375 -7.3281,-15.375 -10,-23.125 -1,-14.875 20.75,-11 40.25,-14 55,-16 -43,-48 -61.4062,-75.4219 -24.6211,-36.5332 -21.2227,-36.9199 -18.3164,-38.1855 -15.9023,-40.3301 -26.5313,-90.6094 -12,-53 -32,26 -34.9062,25.0313 -41.0938,21.4687 -48.5937,18.4688 -57.4063,16.0312 -71,17 -18,48 -12,47.5313 -0.7266,20.7773 2.9766,19.4414 6.8203,18.5977 10.8047,18.2461 34.125,37.4062 37,31.5 25,16.5 25.125,16.875 37.875,31.125 35,28.75 20,12.25 15,9.125 24,21.875 34.7656,31.7656 43.1094,31.8594 40.6719,24.5469 27.4531,9.8281 8.1094,-1.5469 6.5156,-6.3281 9.375,-28.125 v 0 m 1293,-20 35.9688,-27.1406 19.2812,-19.7344 3.3242,-7.002 -0.9179,-5.0449 -5.1836,-3.0527 -9.4727,-1.0254 -20.875,-5.875 -23.125,-14.125 -25,-19 -33,34 -20.0312,18.9688 -17.9688,10.5312 -22.4687,4.5313 -33.5313,0.9687 -61,1 43,40 24.4531,21.9219 18.1719,11.7031 16.8594,3.6406 20.5156,-2.2656 41.75,-14.75 49.25,-28.25 v 0 m -2115,-32 8.4844,-10.8906 0.1406,-7.9844 -10.1719,-8.5469 -22.4531,-12.5781 -28.7812,-12.8594 -18.4688,-2.2656 -5.8945,2.9863 -3.9492,5.8106 -2.9063,20.3281 2.3789,14.5293 6.5274,11.8926 9.7617,8.9629 12.082,5.7402 13.4883,2.2246 13.9805,-1.584 13.5585,-5.6855 12.2227,-10.0801 v 0 m 1362,-22 13.4219,-11.625 20.4531,-5.625 38.2656,-0.75 66.8594,3 170,11 47.6406,0.875 41.7344,-8.125 16.9238,-6.8516 13.3731,-8.3984 9.1308,-9.7109 4.1973,-10.7891 1.3281,-14.8594 -4.2031,-5.7656 -13.0156,3.0469 -25.1094,11.5781 -21.0781,8.1875 -23.0469,1.0625 -36.7344,-7.5625 -62.1406,-17.6875 -97.125,-23.75 -79.875,-13.25 -45.375,-6.25 -12.1406,-3.875 -2.4844,-3.875 30.875,-14 63.125,-23 72.5781,-28.1094 74.5469,-33.2656 66.4844,-33.8281 48.3906,-29.7969 14.8281,-11.3906 7.7969,-10.7344 1.9844,-13.1719 -2.6094,-18.7031 -21.75,-55.125 -44.25,-85.875 -43.75,-82 -21.25,-46 -5.7402,-13.0762 -9.6192,-10.7207 -13.3457,-8.3535 -16.9199,-5.9746 -43.9531,-4.7656 -56.4219,4.8906 -38,7 19,26 34.3438,55.4063 32.6562,63.8437 24.4063,58.2188 9.5937,38.5312 -2.75,24.625 -3.1562,7.5781 -4.0938,2.7969 -6.875,-3.25 -3.125,-7.75 -4.043,-13.0859 -11.0507,-20.5391 -36.6563,-54.625 -45.2812,-58 -40.9688,-43.75 -47,-41 -5,79 -3.9687,41.1406 -6.7813,33.7344 -10.9062,31.2969 -16.3438,33.8281 -32,68 18.375,3.75 44.625,2.25 42.875,2.625 2.8281,2.5781 -8.7031,3.7969 -38.4844,7.3594 -46.6406,1.2656 -46.0781,-4.5469 -36.7969,-10.0781 -33.6406,-18.6875 -33.7344,-26.5625 -29.7969,-30.6875 -21.8281,-31.0625 -9.5,-23.5 4.1563,-1.8125 10.3437,2.3125 10.1719,1.6719 7.4531,-5.5469 6.1406,-15.1094 6.2344,-27.0156 17,-70 2.6094,-13.5312 -2.3809,-2.8868 -4.8535,-0.332 -17.1719,6.9063 -27.2031,16.8437 -27.2656,15.6094 -6.0449,0.6504 -1.0645,-3.8848 12.5781,-20.6719 31.7969,-36.7031 47,-50 h -55 l -41.625,3.375 -15.3281,3.7969 -9.0469,4.8281 -5.6875,3.8281 -5.3125,-0.9531 -11,-18.875 -7.3125,-26.9844 -2.4375,-24.6406 2.4375,-16.5781 3.0469,-3.4785 4.2656,0.6816 7.25,10 2.75,16 1.75,9.7188 7,5.7812 14.875,2.7813 25.375,0.7187 71.6563,-3.9062 79.3437,-11.5938 86.0938,-19.0937 91.9062,-26.4063 94.5,-27.375 55.5,-11.625 25.4375,-2.6562 9.2969,-3.9883 7.5156,-6.3555 11.1875,-21.5937 8.5625,-36.4063 14.5,-51.625 20.5,-49.375 14.375,-34.125 1.625,-13.875 -107,42 -99,41 -190,4 -142.5,0.125 -76.5,-5.125 -30,-8 55,-31 42.625,-26.5 25.375,-20.5 5.2656,-8.4062 -4.3906,-4.8438 -50.875,-2.75 -52.7656,-2.2187 -55.1094,-5.7813 -48.9219,-8.0312 -34.2031,-8.9688 -9.5625,-1.5781 -5.4375,6.9531 -2.4375,19.5156 -0.5625,36.1094 5.375,70.875 10.625,73.125 13.1719,74.7031 7.4531,63.9219 0.8906,44.6094 -2.2793,12.3965 -4.2363,4.3691 -7.75,-6.5 -3.25,-15.5 -3.125,-20.875 -6.875,-17.125 -4.5312,-4.5937 -3.2188,3.0937 -3.25,31.5 -3.375,40.875 -5.625,34.125 -3.8125,11.9688 -1.4609,1.2148 -1.2266,-2.1836 -3.5,-46 -3.1562,-49.7969 -5.5938,-36.5781 -6.7187,-18.3906 -3.3711,-0.8223 -3.1602,5.5879 -18,59 -14.75,37.5 -19.25,28.5 -23,23 21,10 10.9219,6.0313 2.2031,3.9687 -25.125,7 -17.9844,4.9063 -8.8906,6.5937 -1.9531,11.8438 2.8281,20.6562 12.0039,51.793 16.5274,50.3633 21.0742,48.9101 25.6445,47.4336 30.2383,45.9336 34.8555,44.4102 39.496,42.8632 44.1602,41.293 57.2969,47.2188 47.8281,32.0312 50.2656,23.4063 64.6094,21.3437 64.3281,16.5 46.7969,6 17.9082,-0.9375 14.8262,-3.5625 12.1777,-6.1875 9.9629,-8.8125 v 0 m -1319,-26 -49,-25 -43,-18 28,25 26,17.75 23,7.25 13.125,-2 2.4844,-2.2187 -0.6094,-2.7813 v 0 m 1938,-22 29.25,-16.1094 25.5,-20.5156 25.125,-28.2031 28.125,-39.1719 14.0313,-18.1719 19.4687,-19.9531 45.5,-35.875 44.3438,-32.7344 44.9062,-37.8906 34.7813,-33.5781 13.9687,-19.7969 -5.9434,-5.4238 -16.291,-2.9043 -54.3906,0.9531 -68.0781,8.6406 -63.2969,14.7344 -60.625,17.75 -37.375,7.25 -17.3125,3.0781 -13.1875,9.5469 -9.4375,16.4844 -6.0625,23.8906 -1.625,21.5 4.2969,2.4063 8.3281,-1.9063 126.25,-45.75 48.6875,-14.1562 22.0625,-3.0938 3.0234,5.1875 -0.5859,5.75 -11.4375,12.8125 -24.1875,13.9375 -35.8125,14.3125 -28.4219,10.625 -18.9531,11.375 -13.5156,15.125 -12.1094,21.875 -17.625,31.0625 -14.625,14.1875 -5.1328,0.2969 -3.1172,-4.4844 1.5,-24.0625 7,-31 -42,21 -40.75,26.75 -39.25,34.25 -38,40 26,25 25.6094,16.6719 29.2656,6.4531 33.5781,-3.8594 38.5469,-14.2656 v 0 m -1815,-5 7.2656,-17.0625 17.1094,-21.9375 19.9219,-18.9375 15.7031,-8.0625 17,-5.875 23,-14.125 14.8906,-12.6094 9.7344,-14.7656 6.1719,-20.5781 4.2031,-30.0469 10.75,-49.25 15.25,-38.75 12.209,-23.3203 5.7754,-19.8047 -0.8106,-16.4297 -7.5488,-13.1953 -14.4395,-10.1016 -21.4824,-7.1484 -28.6777,-4.3359 -36.0254,-1.6641 -31.9844,-1.6562 -22.8906,-7.0938 -23.4531,-17.9687 -33.6719,-34.2813 -47,-43.375 -15.4375,-9.0781 -10.5625,-0.5469 -6.3437,3.9531 -3.9063,5.9219 0.25,18.125 1.5,31.25 -4.5,41.75 -4.5,24.6875 -5.25,15.3125 -7.125,7.8125 -10.125,2.1875 -9.2812,2.0313 -7.2188,6.7187 -5.7187,12.3438 -4.7813,18.9062 -19,77 -6.8066,30.9883 -0.3965,29.6055 5.6738,27.6835 11.4043,25.2227 16.7949,22.2227 21.8457,18.6836 26.5567,14.6054 30.9277,9.9883 38.75,11.25 11.875,5.3438 4.375,4.4062 5.875,5.5 14.125,2.5 14.125,-4 4.2969,-4.4375 1.5781,-5.5625 v 0 m 1636,-94 56.7031,-40.9375 39.9219,-38.3125 28.1094,-41.6875 21.2656,-51.0625 18.25,-45 7.0625,-7.3125 6.6875,1.3125 7.6719,3.9375 10.9531,1.3125 31.375,-5.25 38,-11 -4,-196 -3.1562,-108.5312 -4.8438,-69.7188 -8.5937,-49.8437 -14.4063,-48.9063 -33.0937,-93.5469 -35.9063,-91.5781 -31.4062,-71.5156 -19.5938,-33.3594 -5.8594,-9.625 -6.5156,-19.375 -11.625,-56 -15,-76.875 -21,-82.875 -22.5,-72 -19.5,-44.25 -20.25,-21.5 -27.75,-18.5 -52.25,-33.625 -83.75,-67.375 -44,-31.25 -53,-29.75 -59,-29 -90,14 -92,10.125 -95,4.875 -69.25,2.5 -28.75,5.5 4.291,4.877 11.6621,6.0136 38.1719,13.2344 45.8594,11.1719 39.0156,4.7031 36,1 -45,24 -37.625,17 -26.375,8 -41.375,9.875 -73.625,24.125 -150.3906,50.4688 -164.7344,49.5312 -147.6719,39.7813 -99.2031,21.2187 -47,6 114,111 59.9375,57.0469 45.3125,38.5781 38.1875,26.0156 38.5625,19.3594 56.375,22 40.625,10 27.375,3.75 23.625,8.25 44.25,16 78.75,22 56.1875,13.0938 43.8125,6.9062 42.3125,1.6563 51.6875,-2.6563 48.9531,-4.0312 32.9219,-5.7188 23.7344,-9.0937 21.3906,-14.1563 48,-34.5 9.375,-3.1875 2.625,4.6875 -5.6016,9.0156 -15.2109,15.2969 -49.6875,41.9375 -59.4375,44.5625 -50.0625,32.1875 -45,24 50,3 45.9355,0.4648 54.7364,-3.496 123.4531,-16.7188 121.3906,-26.0937 52.1582,-15.2149 42.3262,-15.9414 41.375,-14.75 43.625,-10.25 45,-7 -41,35 -32.4336,33.6465 -25.8476,39.0254 -18.9571,42.6582 -11.7617,44.5449 -4.2617,44.6855 3.543,43.0801 11.6523,39.7285 20.0664,34.6309 59,83 27,44 -25,-7 -40,-12 -7.875,-1.1562 -2.625,6.1562 10.5,47 18.4688,60.375 18.2812,38.625 8.543,10.4531 7.8633,4.1719 6.9726,-2.3906 5.8711,-9.2344 2.2031,0.8125 1.9219,11.6875 1.875,48.5 0.9688,42.1094 3.0312,21.0156 3.0508,4.5605 4.4805,1.6426 14.4687,-2.3281 18.3867,-2.2012 4.4165,1.7683 1.4781,3.4485 -5.1211,11.2403 -14.6602,15.8691 -52.0312,40.0469 -72.4688,41.8281 -67.5,31.625 -49.5,20.375 -26.875,10.375 -11.125,9.625 18.7031,6.9219 46.1719,8.7031 115.125,13.375 15.4219,-3.2656 22.4531,-9.3594 58.125,-34.375 v 0 m 549,-169 61.8125,-55.6875 38.9375,-45.5625 13.2344,-22.5 10.3281,-24.1875 15.6875,-59.0625 10.4629,-72.7754 5.3652,-85.1152 0.6074,-92.2637 -3.8105,-94.2207 -7.8887,-90.9863 -11.6269,-82.5606 -15.0254,-68.9433 -18.084,-50.1348 -64.5156,-114.8437 -76.6094,-119.9063 -70.7969,-98.5312 -27.623,-32.9883 -19.4551,-17.7305 -76,-46 -40.375,-28.25 -33.625,-29.75 -18.625,-17.5 -18.625,-9.25 -28,-3.625 -46.75,-0.625 -83.375,-4.5 -85.625,-10.5 -63.375,-9.625 -29.625,-1.375 8.375,8.875 25.625,14.125 38.8281,23.7813 48.2969,37.4687 45.4844,40.8438 30.3906,33.9062 7.2168,14.3379 7.2051,22.3652 13.2031,61.9219 9.6406,73.3594 3.7344,71.0156 0.7813,38.625 3.2187,23.625 6.9688,14.25 12.0312,10.5 11,10.2969 12.5,17.3281 23.5,46.375 86.5,228.5 23.4688,72.1563 15.0312,57.3437 16.375,59.25 8.5156,20.3438 7.1094,10.4062 7.2344,10 1.8906,20.5 -14.125,105.5 -28,152 -6,27 h 58 l 62.875,-4 68.125,-10 58.3125,-8.7031 15.9375,0.7754 7.5,5.0527 -0.6562,9.9746 -8.5313,15.541 -39.5625,50.3594 -33.375,43.25 -8.1094,13 -0.5156,4.75 26.5,-16.875 50.5,-40.125 v 0 m -1810,-128 37.9219,-12.9687 29.9531,-15.0313 22.2656,-17.2812 14.8594,-19.7188 3.5938,-10.8437 -1.8438,-11.4063 -8.2187,-14.0312 -15.5313,-18.7188 -32,-37 -15,34 -9.1797,14.793 -11.5703,12.0508 -13.6328,9.1914 -15.3672,6.2148 -16.7734,3.1211 -17.8516,-0.09 -18.6016,-3.418 -19.0234,-6.8631 -51,-21 -9.1406,-5.1875 -5.4844,-11.5625 -3.375,-54.25 -2.75,-46.75 -3.1562,-13.4375 -4.0938,-4.8125 -24.875,8.625 -45.125,21.375 -59,30 -53,-56 -40.25,-47.3281 -41.75,-56.7969 -32.75,-50.9844 -13.25,-29.8906 5.875,-11.625 14.125,-15.375 10.0469,-10.6094 1.1504,-3.6816 -2.0723,-3.084 -15.7344,-5.8281 -34.3906,-7.7969 -43.875,-7.875 -19.125,-1.125 5,110 9.5,89.375 6.8125,27.4844 8.6875,19.1406 38.75,55.3594 44,57.5156 39.875,47.5781 26.375,25.5469 13.7813,8.6563 6.4687,0.5937 0.8438,-9.5312 -3.0938,-21.7188 -11,-34.625 -17,-32.375 -22.7656,-34.2344 -21.3594,-38.6406 -14.7969,-32.4531 -3.0781,-15.6719 3.625,0.5781 5.875,5.5469 15.5,21.875 24.5,33 30.5,33 18.8594,17.0938 13.5156,8.6562 11.0781,1.5313 11.5469,-4.2813 24.5,-7.75 30.5,-3.25 16.8125,-1.1875 13.4375,-3.8125 10.8125,-6.8125 8.9375,-10.1875 12.6406,-15.0781 4.7793,-2.2715 3.4551,0.9746 2.0469,10.8906 -5.9219,21.4844 -4.2031,15.0313 -0.1719,12.2187 4.5156,11.8438 9.8594,13.9062 14.125,22.25 5.875,17.75 1.9238,6.875 5.5918,6.3125 21.1094,10.5625 32.5469,7.1875 41.8281,3.0625 38.625,2 -0.2344,3.0625 -11.3906,4.9375 -36.75,6.5 -53.25,0.5 -34.25,-1.1562 -20,1.6562 -9.875,5.4063 -3.875,10.0937 1.25,15.75 8.75,11.25 9.75,3.209 16.3125,1.4629 46.6875,-1.7969 56.0625,-7.2344 54.1875,-11.6406 v 0 m -224,-25 8.5293,-7.1172 6.0801,-10.2578 4.7656,-26.375 -5.1719,-28.25 -6.3418,-12.6016 -8.8613,-10.3984 -10.4375,-7.3281 -10.8125,-4.0469 -11.9375,-0.8594 -13.8125,2.2344 -25.1367,9.1113 -19.0195,12.9668 -12.6915,15.5215 -6.1523,16.7754 0.5977,16.7285 7.5586,15.3809 14.7304,12.7324 22.1133,8.7832 38.25,5.25 13.7813,-2.4375 13.9687,-5.8125 v 0 m 230,-156 11,-31 5.875,-9.5 5.125,-3.5 23.375,15.125 40.625,36.875 53,52 v -34 l 6,-87 3.0781,-35.0937 -1.6191,-10.0118 -4.584,-5.3945 -8.1934,-1.082 -12.4472,2.9258 -40.2344,16.6562 -45.8125,24.2188 -37.1875,26.2812 -28.9375,28.5313 -21.0625,30.9687 -13.25,32.625 2.8438,6.0469 9.4062,3.3281 17.5625,-0.3594 14.1875,-9.2656 11.5625,-19.2031 9.6875,-30.1719 v 0 m 223,-153 15,-54.5 -1.7812,-5.9687 -7.2188,-0.5313 -5.8809,5.416 -7.416,14.6621 -16.5781,47.5469 -14.1406,55.9844 -5.9844,45.3906 2,32.75 5,28.25 4.0156,8.2969 3.3594,-4.1719 6.625,-49.125 9.625,-65 13.375,-59 v 0 m -266,93 26.1094,-29.6406 23.7656,-22.2344 22.8281,-16.0469 23.2969,-11.0781 25.2324,-12.8262 17.252,-15.5332 9.3535,-17.5722 1.5371,-18.9434 -6.1973,-19.6465 -13.8496,-19.6816 -21.4199,-19.0489 -28.9082,-17.748 -17.8906,-9 -5.8574,-0.4219 -4.627,3.4219 -8.0469,21.75 -10.5781,47.25 -19.75,55.75 -30.25,60.25 -29.75,53.625 -16.25,39.375 -3.0781,18.0313 1.6191,2.6054 4.584,-2.3867 60.875,-70.25 v 0 m -34,-62 29.375,-64.1406 19.625,-54.4844 8.375,-40.4219 -0.5,-13.5605 -3.875,-8.3926 -14.2656,-9.0937 -16.6094,2.3437 -22.4219,15.4688 -31.7031,30.2812 -44.5469,50.1875 -43.3281,55.8125 -30.3906,45.3125 -6.6817,13.6797 0.9473,5.0078 52,-15 49.75,-14.125 8.1875,2.7344 1.0625,9.3906 v 36.75 l 2.5313,14.4375 3.4687,5.8125 13.5,-19.75 25.5,-48.25 v 0 m 233,-19 -5,-0.25 -2,7.25 2,7.25 5,-0.25 2.25,-7 -2.25,-7 v 0 m 74,-188 21.3125,-51.7656 6.6875,-31.6094 -2.2578,-10.0332 -6.0547,-7.1387 -23.6875,-8.4531 -27.0996,-12.0469 -38.3848,-26.3906 -46.0488,-37.3594 -50.0918,-44.9531 -97.8281,-99.1875 -40.4942,-47.4844 -30.0527,-41.5781 -20,-22.875 -23,-16.125 -16.4062,-9.7031 -6.8438,-8.6719 3.2813,-6.2344 13.9687,-2.3906 27.5781,-2.7344 26.5469,-5.6406 19.9844,-6.9531 7.8906,-6.6719 1.9219,-3.1406 5.2031,-1.7344 16.875,1.875 16.75,-0.5469 27.25,-6.0781 83,-28.375 212,-79 73.75,-28.875 21.0313,-10.3594 6.2187,-5.7656 -16.0312,-5.7031 -24.4688,-0.9219 -24.4687,3.3906 -16.0313,7.2344 -11.1562,5.0625 -21.8438,1.6875 -87,-6.75 -93.2187,-5.5937 -114.7813,1.3437 -136.5312,8.4688 -158.4688,15.7812 -104.3437,18.1406 -110.1563,29.4844 -104.1562,37.1719 -46.1368,20.3261 -40.207,20.877 -117,67 -26.875,16.875 -11.125,10.125 21.5,6.125 51.5,6.875 42.2813,5.3906 41.7187,11.4844 52.9688,21.7969 76.0312,36.3281 119.625,61.125 90.375,49.875 108.875,57.125 165.125,78.875 152.75,72.375 79.25,41.625 23.75,14.125 19.25,5.875 10.5,3.125 4.5,6.875 2.4688,10.1094 7.5312,-5.7344 31,-59.375 v 0 m -336,11 10.2656,-8.0937 1.3594,-6.4063 -8.9531,-7.1562 -20.6719,-10.3438 -20.0937,-8.6406 -14.6563,-3.4844 -12.7812,1.5781 -14.4688,6.5469 -17.75,13 -7.25,13 3.3223,8.1816 9.0058,6.459 29.2969,7.2344 34.7344,-1.2031 15.8027,-4.0879 12.8379,-6.584 v 0 m 385,-7 -2.75,-12.25 -3.1562,-2.375 -4.0938,0.625 -6.875,8.625 -3.125,12.375 3.125,10 6.875,4 7.25,-6 2.75,-15 v 0 m 179,-743 4.9531,-8.0625 -0.5781,-6.9375 -6.7656,-6.9375 -13.6094,-8.0625 -15.6094,-9.6719 -2.7656,-5.4531 10.9219,-1.8906 25.4531,1.0156 15.2656,-1.9531 13.8594,-9.9219 16.2969,-21.7344 22.5781,-37.3906 49.25,-79 59.75,-88 92,-132 71,-91 48.75,-63.125 53.25,-75.87504 69,-96.75 87,-113.25 69.875,-88.75 27.125,-39.25 -26.4219,8.71875 -56.7031,28.03125 -66.6406,36.65625 -56.2344,34.59375 -61.8437,47.625 -60.1563,58.125 -59.4062,69.75 -59.5938,82.50004 -163,229 -81.2187,113.625 -87.0313,127.125 -69.4062,105.75 -28.3438,49.5 24.75,5 59.25,2 67,-3.25 18.2188,-4.3437 9.7812,-6.4063 v 0 m 211,-64 17.625,-28.375 42.375,-57.625 66.5,-93.75 75.5,-113.25 59.875,-91.125 29.125,-37.875 16.875,-20.875 28.125,-50.125 30.375,-51.5 12.2344,-16.8438 8.3906,-7.6562 15,-13.50004 18,-25.5 29.1406,-67.42188 39.7344,-109.70312 32.7969,-100.89063 8.3183,-31.17382 0.01,-9.81055 -31.625,36.875 -62.375,81.125 -161,212 -78.5,107.25004 -81.5,117.75 -169,248 -86,127 20.75,3.625 49.25,1.375 49.625,-2.5 20.375,-5.5 v 0" />
    </g>
  </g>
</svg>
